<?xml version="1.0" standalone="no"?>
<!DOCTYPE svg PUBLIC "-//W3C//DTD SVG 1.1//EN" "http://www.w3.org/Graphics/SVG/1.1/DTD/svg11.dtd" >
<svg xmlns="http://www.w3.org/2000/svg">
<metadata></metadata>
<defs>
<font id="transport_new_lightregular" horiz-adv-x="1140" >
<font-face units-per-em="2048" ascent="1597" descent="-451" />
<missing-glyph horiz-adv-x="716" />
<glyph horiz-adv-x="0" />
<glyph unicode="&#xd;" horiz-adv-x="0" />
<glyph horiz-adv-x="0" />
<glyph horiz-adv-x="0" />
<glyph unicode=" "  horiz-adv-x="716" />
<glyph unicode="&#x09;" horiz-adv-x="716" />
<glyph unicode="&#xa0;" horiz-adv-x="716" />
<glyph unicode="!" horiz-adv-x="665" d="M164 129q0 68 47 116t113 48t111.5 -48t45.5 -116q0 -70 -46 -117t-111 -47q-66 0 -113 47t-47 117zM174 1597h297l-80 -1171h-139z" />
<glyph unicode="&#x22;" horiz-adv-x="917" d="M164 971v626h186v-626h-186zM545 971v626h188v-626h-188z" />
<glyph unicode="#" horiz-adv-x="1294" d="M61 457l19 161h223l45 357h-221l20 164h224l57 456h180l-57 -456h283l57 456h182l-57 -456h217l-21 -164h-219l-45 -357h221l-22 -161h-219l-45 -457h-181l43 457h-282l-43 -457h-182l45 457h-222zM485 618h283l45 357h-283z" />
<glyph unicode="$" horiz-adv-x="1456" d="M92 260l168 156l2 -2q37 -43 91.5 -88t115.5 -82t125.5 -59.5t124.5 -22.5q70 0 136.5 10t118.5 39t85 81t33 136q0 66 -39 113t-96.5 79.5t-123 52t-116.5 32.5q-96 20 -199.5 48.5t-189.5 79t-141.5 129t-55.5 199.5q0 109 39 192t104.5 140t154.5 90t189 43v156h207 v-158q121 -10 235 -56t195 -138l-149 -152q-80 86 -179.5 121t-213.5 35q-57 0 -120 -12.5t-115 -41t-86 -76t-34 -116.5q0 -72 45.5 -120t110 -79t137 -48t125.5 -28q98 -20 195.5 -54t176.5 -91t127 -140t48 -200t-38 -199t-103.5 -137t-155.5 -83.5t-197 -37.5v-178h-206 v180q-160 16 -293 90t-238 197z" />
<glyph unicode="%" horiz-adv-x="1886" d="M102 1135q0 104 26 203.5t77 176t128 124t179 47.5q113 0 191.5 -47.5t129 -124t74 -175t23.5 -200.5t-23.5 -202.5t-73 -182.5t-126 -132.5t-181.5 -50.5q-115 0 -194.5 49.5t-130.5 128t-75 180t-24 206.5zM281 1135q0 -57 9 -127t35.5 -131.5t73.5 -102.5t121 -41 q70 0 115 41t71.5 101.5t36 130t9.5 124.5q0 61 -10.5 132t-37 129.5t-72.5 97.5t-118 39q-61 0 -106.5 -35t-73 -90t-40.5 -126t-13 -142zM956 473q0 104 26 202.5t77 176.5t128 125t179 47q113 0 191.5 -47t129 -125t74 -176.5t23.5 -198.5q0 -102 -23.5 -202.5 t-73 -182.5t-125 -132t-180.5 -50q-115 0 -194.5 48t-131.5 128t-76 181.5t-24 205.5zM1135 473q0 -59 9 -129t35.5 -131t73.5 -102t121 -41q72 0 117 41t71.5 101t36 130t9.5 127q0 61 -10.5 132t-38 129t-73.5 97t-116 39q-63 0 -107 -34.5t-73 -91t-42 -127t-13 -140.5z " />
<glyph unicode="&#x26;" horiz-adv-x="1413" d="M102 416q2 164 80 288.5t238 225.5q-59 102 -87 175t-28 142q0 86 24.5 156t70.5 120t112 76.5t145 26.5q80 0 147.5 -21.5t117 -62.5t78 -103.5t28.5 -144.5q0 -59 -23.5 -112.5t-64.5 -102.5t-100.5 -96t-128.5 -94l311 -465q49 66 71.5 125t30.5 108h199 q-12 -102 -58 -208.5t-124 -212.5q53 -45 99 -58.5t89 -7.5l23 -180q-33 -14 -65 -19.5t-64 -5.5q-59 0 -117.5 27.5t-120.5 95.5q-109 -66 -203 -93.5t-184 -27.5q-100 0 -190.5 30t-158 87t-107.5 140t-40 192zM309 453q0 -66 25.5 -119t68.5 -90t99.5 -57.5t118.5 -20.5 q55 -2 116.5 23.5t139.5 76.5l-357 514q-57 -41 -97 -79.5t-65.5 -77.5t-37 -80t-11.5 -90zM504 1253q2 -31 12 -59.5t25 -54.5q16 -27 33.5 -52.5t43.5 -60.5q43 27 82 54.5t69 61.5t48.5 72.5t18.5 85.5q0 74 -47.5 119t-120.5 45q-43 0 -74 -20.5t-51.5 -51t-29.5 -68.5 t-9 -71z" />
<glyph unicode="'" horiz-adv-x="636" d="M225 975v622h187v-622h-187z" />
<glyph unicode="(" horiz-adv-x="727" d="M82 805q0 135 29.5 273.5t87 268.5t140.5 244.5t187 200.5l84 -102q-78 -86 -138 -191.5t-102 -221.5t-63.5 -236.5t-21.5 -235.5q0 -252 82.5 -480t246.5 -421l-84 -103q-219 197 -333.5 454t-114.5 550z" />
<glyph unicode=")" horiz-adv-x="727" d="M113 -96q164 193 246.5 421t82.5 480q0 115 -21.5 235.5t-63.5 236.5t-103 221.5t-139 191.5l86 102q104 -86 187 -200.5t139.5 -244.5t87 -268.5t30.5 -273.5q0 -293 -115.5 -550t-332.5 -454z" />
<glyph unicode="*" horiz-adv-x="720" d="M82 1186l39 131l194 -84v242h109v-240l197 82l38 -131l-196 -76l123 -201l-94 -80l-119 209l-121 -209l-96 80l123 201z" />
<glyph unicode="+" horiz-adv-x="1124" d="M102 416v213h355v415h213v-415h352v-213h-352v-416h-213v416h-355z" />
<glyph unicode="," horiz-adv-x="512" d="M102 150q0 63 44 107t108 44q33 0 61.5 -15.5t49 -41t33 -59t12.5 -70.5v-32t-4 -38q-4 -23 -17.5 -57.5t-48.5 -75.5q-27 -29 -76 -55.5t-102 -40.5l-31 69q41 14 67.5 26.5t55.5 37.5q16 16 16 33q0 16 -16 16q-61 0 -106.5 44t-45.5 108z" />
<glyph unicode="-" horiz-adv-x="700" d="M61 567v195h506v-195h-506z" />
<glyph unicode="." horiz-adv-x="501" d="M102 113q0 61 44 105t106 44q61 0 104 -44t43 -105t-43 -104.5t-104 -43.5t-105.5 43t-44.5 105z" />
<glyph unicode="/" horiz-adv-x="813" d="M41 -362l557 1986l164 -47l-559 -1987z" />
<glyph unicode="0" horiz-adv-x="1421" d="M123 805q0 160 37 307.5t110.5 262t182 183t252.5 68.5q156 0 268 -68.5t185 -182t106.5 -261t33.5 -303.5t-34.5 -307.5t-105.5 -271t-178.5 -193.5t-252.5 -74q-160 0 -274.5 70.5t-187 188.5t-107.5 269.5t-35 311.5zM332 805q0 -57 6 -128t21.5 -142.5t42 -140 t69.5 -122t103.5 -85t142.5 -31.5q117 0 189.5 68.5t113.5 169t55.5 211t14.5 194.5q0 61 -6.5 133t-23 143.5t-45 137t-70.5 115.5t-100.5 81t-135.5 31q-104 0 -177 -58.5t-117 -150.5t-63.5 -205t-19.5 -221z" />
<glyph unicode="1" horiz-adv-x="884" d="M143 1190v153q53 4 110.5 17.5t102.5 48.5t64.5 84t28.5 104h169v-1597h-208v1190h-267z" />
<glyph unicode="2" horiz-adv-x="1239" d="M123 1063v16q-2 117 29.5 214.5t94 168t152.5 109.5t207 39q248 0 378 -136.5t130 -396.5q0 -109 -41 -208t-105.5 -188t-143.5 -166t-154 -138q-25 -20 -49.5 -40t-53 -41.5t-63.5 -48t-82 -61.5h694v-186h-991v203q102 66 225 153.5t228 178.5q41 35 96 88t105 122.5 t85 157.5t35 193q0 63 -14.5 121.5t-46 104.5t-85 73.5t-132.5 27.5q-82 0 -140.5 -29.5t-95.5 -79.5t-52.5 -115.5t-10.5 -135.5h-199z" />
<glyph unicode="3" horiz-adv-x="1300" d="M133 393l201 47q16 -57 44 -107t67.5 -88t91 -60.5t116.5 -22.5q59 0 116.5 17.5t101.5 53t72 91t28 133.5q0 94 -34 150.5t-86 85t-115.5 35.5t-121.5 3v168q55 0 114.5 10.5t109 37t81 74.5t31.5 128q2 141 -70.5 213t-232.5 72q-129 0 -199.5 -68t-101.5 -166l-188 47 q53 199 186 289t342 90q106 0 193.5 -33.5t151 -92t98 -137.5t34.5 -171q0 -53 -9 -104.5t-34.5 -97.5t-68.5 -85t-111 -65q129 -84 183.5 -166.5t54.5 -186.5q0 -117 -35 -212t-98.5 -162.5t-154.5 -105.5t-202 -38q-104 0 -195.5 22.5t-164 73t-122.5 131t-73 197.5z" />
<glyph unicode="4" horiz-adv-x="1357" d="M82 313v258l713 1026h286v-1097h185v-187h-185v-313h-213v313h-786zM264 500h608v903z" />
<glyph unicode="5" horiz-adv-x="1284" d="M123 821l108 776h850v-186h-661l-55 -405q68 57 148.5 73.5t141.5 16.5q111 0 204 -47.5t159.5 -127t104.5 -183t38 -216.5q0 -123 -40 -225t-111.5 -176t-171 -115t-215.5 -41q-201 0 -319 85t-175 235l197 80q39 -92 112.5 -149.5t186.5 -57.5q88 0 151.5 32.5 t102.5 87t57 125t18 148.5q0 76 -23.5 141.5t-66.5 114.5t-104.5 76.5t-136.5 27.5q-86 0 -160 -36.5t-127 -116.5z" />
<glyph unicode="6" horiz-adv-x="1327" d="M123 782q0 88 11 185.5t38 191.5t70 179t106.5 148.5t148.5 101.5t195 38q158 0 267.5 -57.5t189.5 -192.5l-180 -80q-47 72 -119 111t-158 39q-84 0 -150.5 -44t-113.5 -113.5t-71.5 -152.5t-24.5 -159v-72.5t4 -56.5q55 98 154.5 152.5t211.5 54.5q125 0 218.5 -41 t157 -113t95 -171t31.5 -218q0 -113 -31.5 -212t-95 -174t-156 -118t-210.5 -43q-172 0 -286 74t-180.5 190.5t-94 262t-27.5 290.5zM348 514q0 -70 24.5 -134.5t67.5 -114.5t103.5 -79.5t132.5 -29.5q74 0 134 29.5t103 79.5t68 114.5t25 134.5t-25 134.5t-68 114.5 t-103 80.5t-134 30.5q-72 0 -132.5 -30.5t-103.5 -80.5t-67.5 -114.5t-24.5 -134.5z" />
<glyph unicode="7" horiz-adv-x="1126" d="M51 1409v188h1024v-223l-563 -1374h-227l569 1409h-803z" />
<glyph unicode="8" horiz-adv-x="1308" d="M123 403q0 123 56.5 232.5t191.5 177.5q-111 78 -166 171t-55 198q0 104 44 187t115.5 139.5t163.5 86t189 29.5q98 0 188 -31.5t158.5 -91t110.5 -144.5t42 -190q0 -100 -54 -187t-171 -153q129 -80 189.5 -181t60.5 -216q0 -104 -44 -190t-117 -147.5t-166 -95.5 t-191 -34q-92 0 -188.5 32t-175.5 89t-130 138t-51 181zM330 440q0 -63 26.5 -116.5t71.5 -92t104.5 -61.5t124.5 -23q66 0 125.5 23t104.5 61.5t71.5 92t26.5 116.5q0 61 -26.5 115.5t-71.5 93.5t-104.5 61.5t-125.5 22.5t-125 -22.5t-104 -61.5t-71.5 -93t-26.5 -116z M354 1161q0 -59 23.5 -109.5t64.5 -87t95.5 -58t115.5 -21.5t115.5 21.5t95.5 58t65.5 87t24.5 109.5t-24.5 109.5t-65.5 87.5t-95 58.5t-116 21.5q-61 0 -115.5 -21.5t-95.5 -58.5t-64.5 -87t-23.5 -110z" />
<glyph unicode="9" horiz-adv-x="1327" d="M123 1079q0 113 32.5 212.5t95 174t155 117.5t210.5 43q172 0 286 -73.5t181.5 -190.5t94 -263.5t26.5 -289.5q0 -90 -11 -186.5t-38 -190.5t-70 -179t-106.5 -148.5t-148.5 -101.5t-195 -38q-158 0 -267.5 57.5t-189.5 192.5l182 80q47 -72 119 -111t158 -39 q82 0 148.5 44t113.5 114t71.5 152t24.5 159v73t-2 56q-57 -98 -156.5 -152t-211.5 -54q-123 0 -217.5 39.5t-158 112.5t-95 172.5t-31.5 217.5zM317 1077q0 -74 26 -139.5t70 -114.5t104.5 -77.5t129.5 -28.5q68 0 128.5 28.5t104.5 77.5t69.5 114.5t25.5 139.5 t-25.5 139.5t-69.5 113.5t-104.5 77t-128.5 29q-70 0 -130 -29t-104 -77t-70 -113.5t-26 -139.5z" />
<glyph unicode=":" horiz-adv-x="501" d="M102 113q0 61 44 105t106 44q61 0 104 -44t43 -105t-43 -104.5t-104 -43.5t-105.5 43t-44.5 105zM102 735q0 61 44 105.5t106 44.5q61 0 104 -44.5t43 -105.5t-43 -104t-104 -43t-105.5 43t-44.5 104z" />
<glyph unicode=";" horiz-adv-x="512" d="M102 150q0 63 44 107t108 44q33 0 61.5 -15.5t49 -41t33 -59t12.5 -70.5v-32t-4 -38q-4 -23 -17.5 -57.5t-48.5 -75.5q-27 -29 -76 -55.5t-102 -40.5l-31 69q41 14 67.5 26.5t55.5 37.5q16 16 16 33q0 16 -16 16q-61 0 -106.5 44t-45.5 108zM102 739q0 61 44 105.5 t106 44.5q61 0 104 -44.5t43 -105.5t-43 -104t-104 -43t-105.5 43t-44.5 104z" />
<glyph unicode="&#x3c;" horiz-adv-x="1388" d="M102 492v145l1184 502v-197l-942 -377l942 -379v-196z" />
<glyph unicode="=" horiz-adv-x="1234" d="M113 205v198h1009v-198h-1009zM113 698v197h1009v-197h-1009z" />
<glyph unicode="&#x3e;" horiz-adv-x="1409" d="M113 -8v196l942 379l-942 379v197l1183 -504v-145z" />
<glyph unicode="?" horiz-adv-x="1220" d="M123 1153q6 106 46 193.5t105.5 150t154.5 96t194 33.5q109 0 197.5 -44t153 -117.5t99.5 -169t35 -199.5q0 -92 -23.5 -163t-59.5 -124t-78 -90t-77 -57q-39 -25 -69.5 -46.5t-52 -51t-30.5 -72.5t-5 -109h-201q-4 170 55.5 263t147.5 136q98 49 149 130t51 186 q0 63 -22.5 121.5t-62 102.5t-95 70.5t-123.5 26.5q-57 0 -109 -22.5t-93 -59.5t-68 -85t-33 -99h-186zM459 127q0 68 46 116t111 48q66 0 113 -48t47 -116t-47 -116t-113 -48t-111.5 48t-45.5 116z" />
<glyph unicode="@" horiz-adv-x="1906" d="M174 799q0 174 64.5 325.5t176 263t260 175t316.5 63.5q152 0 287 -49t236.5 -139t160 -215t58.5 -277q0 -164 -58.5 -284.5t-140.5 -200.5t-172 -119t-152 -39q-53 0 -88 31t-47 69h-16q-10 -12 -32.5 -28.5t-53.5 -32.5t-68 -27.5t-76 -11.5q-82 0 -144 28.5t-103 78 t-62.5 116t-21.5 144.5q0 119 34.5 223t99 182t158 124t209.5 46q80 0 150 -41t94 -100l31 110h160l-146 -571q-6 -25 -13 -54.5t-7 -47.5q0 -25 12 -44.5t43 -19.5q47 0 93 33t83 90t59.5 136t22.5 169q0 135 -44 240.5t-123 177.5t-187.5 111t-237.5 39q-139 0 -261 -52.5 t-211 -144.5t-140 -217t-51 -266q0 -147 53 -271.5t145 -213.5t215 -139t262 -50q135 0 245 48t184 114l88 -103q-41 -39 -93.5 -77t-117 -68.5t-143.5 -49t-173 -18.5q-168 0 -316.5 62.5t-260 174t-176 264t-64.5 333.5zM692.5 685.5q-6.5 -56.5 7 -102.5t50 -76 t108.5 -30q33 0 75 14.5t82 38t69.5 54t39.5 65.5l60 228q6 29 2 62.5t-24.5 63t-56.5 49t-91 19.5q-123 -2 -197 -80t-104 -196q-14 -53 -20.5 -109.5z" />
<glyph unicode="A" horiz-adv-x="1400" d="M51 0l510 1597h273l516 -1597h-215l-99 311h-665l-99 -311h-221zM428 494h549l-277 860z" />
<glyph unicode="B" horiz-adv-x="1423" d="M195 0v1597h591q72 0 151 -21.5t145.5 -69.5t109.5 -125.5t43 -188.5q0 -240 -201 -330q86 -27 141.5 -64.5t87 -90t45 -116.5t13.5 -142q0 -98 -28.5 -180.5t-88 -142.5t-151.5 -93t-222 -33h-636zM410 193h413q57 0 112.5 19t96.5 56t66.5 90t25.5 121q0 145 -76.5 217 t-211.5 72h-426v-575zM410 938h405q113 0 172.5 66.5t59.5 166.5q0 104 -64.5 169t-171.5 65h-401v-467z" />
<glyph unicode="C" horiz-adv-x="1546" d="M113 788q0 174 44 327t132 267.5t218 181t300 66.5q229 0 393 -113.5t223 -314.5l-190 -74q-23 61 -58.5 118t-87 100t-116 68.5t-144.5 25.5q-139 0 -234 -54.5t-153.5 -144.5t-83 -206.5t-24.5 -239.5q0 -113 23.5 -226.5t78.5 -206t147.5 -149.5t227.5 -57 q147 0 256 77.5t160 217.5l192 -72q-72 -197 -225.5 -306.5t-386.5 -109.5q-168 0 -297 66.5t-217 180.5t-133 263.5t-45 314.5z" />
<glyph unicode="D" horiz-adv-x="1533" d="M195 0v1597h557q176 0 305 -69.5t212 -182t123 -252t40 -280.5q0 -170 -43 -317.5t-128 -258t-213 -174t-298 -63.5h-555zM408 193h354q125 0 212 57t141 147t79 200t25 212q0 94 -27 198.5t-81 192.5t-138 146.5t-197 58.5h-368v-1212z" />
<glyph unicode="E" horiz-adv-x="1280" d="M195 0v1597h935v-196h-722v-498h661v-192h-661v-514h770v-197h-983z" />
<glyph unicode="F" horiz-adv-x="1212" d="M195 0v1597h935v-196h-722v-496h661v-196h-661v-709h-213z" />
<glyph unicode="G" horiz-adv-x="1597" d="M102 827q0 166 45.5 312.5t132.5 256t216 174t295 64.5q197 0 350 -84t248 -258l-168 -96q-31 57 -76 103.5t-100.5 78t-117 48t-122.5 16.5q-135 0 -229.5 -59.5t-152.5 -153.5t-85 -211t-27 -230q0 -115 24.5 -227t82 -202.5t149.5 -146.5t228 -56q102 0 183 33.5 t136 88t85 125t30 144.5v139h-453v186h627v-872h-180v211q-55 -106 -167 -176t-261 -70q-178 0 -309.5 69.5t-216.5 187.5t-126 274.5t-41 330.5z" />
<glyph unicode="H" horiz-adv-x="1511" d="M195 0v1597h213v-645h768v645h213v-1597h-213v762h-768v-762h-213z" />
<glyph unicode="I" horiz-adv-x="604" d="M195 0v1597h215v-1597h-215z" />
<glyph unicode="J" horiz-adv-x="966" d="M51 20l66 191q66 -27 124 -37t99 -10q29 0 65.5 9t70.5 30.5t56.5 57.5t22.5 89v1245h217v-1288q0 -84 -33.5 -148.5t-92 -107.5t-134.5 -65.5t-160 -22.5q-72 0 -152.5 14.5t-148.5 42.5z" />
<glyph unicode="K" horiz-adv-x="1427" d="M195 0v1597h213v-794l673 794h256l-549 -643l588 -954h-246l-483 793l-239 -283v-510h-213z" />
<glyph unicode="L" horiz-adv-x="1089" d="M195 0v1597h213v-1400h620v-197h-833z" />
<glyph unicode="M" horiz-adv-x="1873" d="M195 0v1597h213l518 -800l547 800h206v-1597h-213v1229l-540 -787l-518 787v-1229h-213z" />
<glyph unicode="N" horiz-adv-x="1675" d="M195 0v1597h260l813 -1308v1308h213v-1597h-262l-811 1303v-1303h-213z" />
<glyph unicode="O" horiz-adv-x="1632" d="M113 786q0 188 43 344t130 267.5t218 173t305 61.5q182 0 316.5 -62.5t221.5 -175t130 -266t43 -337.5q0 -176 -45 -329t-134.5 -264.5t-222.5 -176t-309 -64.5q-166 0 -296 61.5t-219 171t-135 262t-46 334.5zM322 803q0 -127 25.5 -244t82.5 -207t150.5 -143t230.5 -53 q147 0 242.5 56t152 147.5t78 207t21.5 234.5q0 125 -25 241.5t-83 205.5t-153.5 142.5t-234.5 53.5q-135 0 -228.5 -55.5t-150.5 -145.5t-82.5 -205.5t-25.5 -234.5z" />
<glyph unicode="P" horiz-adv-x="1300" d="M195 0v1597h598q109 0 190.5 -44t136 -115.5t82 -160.5t27.5 -177q0 -90 -32 -177t-90 -158t-138 -115t-176 -44h-381v-606h-217zM408 797h340q57 0 108 25.5t89 68.5t59.5 97.5t21.5 109.5q0 59 -21.5 113.5t-58.5 96.5t-88 67.5t-113 25.5h-337v-604z" />
<glyph unicode="Q" horiz-adv-x="1646" d="M113 791q0 186 44 340.5t131 266t219 173t308 61.5q184 0 319.5 -62.5t224.5 -174t132 -265t43 -335.5q0 -227 -78 -412.5t-244 -306.5l101 -187l-193 -104l-100 207q-63 -16 -109.5 -22.5t-93.5 -6.5q-170 0 -301 60.5t-220 170t-136 262t-47 335.5zM324 807 q0 -127 25.5 -244t84 -207t152.5 -143t231 -53q18 0 43 2t72 10l-123 244l176 94l135 -260q59 57 97 123.5t60.5 137.5t31 145.5t8.5 148.5q0 125 -25.5 239.5t-84 203.5t-155 142.5t-237.5 53.5q-135 0 -229 -55.5t-152.5 -144.5t-84 -203.5t-25.5 -233.5z" />
<glyph unicode="R" horiz-adv-x="1335" d="M195 0v1597h585q123 0 210 -42t144.5 -109.5t84 -155.5t26.5 -180q0 -76 -17.5 -145.5t-55 -128t-96 -102.5t-140.5 -66q70 -147 135 -277q27 -55 55.5 -112.5t54 -109.5t47.5 -96t36 -73h-224l-309 647h-323v-647h-213zM408 838h364q63 0 114.5 20.5t87.5 57t54.5 87 t18.5 105.5q0 61 -19.5 114.5t-54.5 93.5t-85 62.5t-112 22.5h-368v-563z" />
<glyph unicode="S" horiz-adv-x="1499" d="M133 260l168 156q33 -47 87 -91t117.5 -80t131.5 -57.5t129 -21.5q74 0 140.5 12t117.5 42t81 80t30 128q0 59 -27 100t-69 69t-95 46.5t-106 32.5l-289 76q-78 25 -146.5 57.5t-120 80.5t-80 114.5t-28.5 156.5q0 115 47 203t127 147.5t188.5 89t235.5 29.5 q188 0 318.5 -47t228.5 -147l-150 -152q-29 29 -71.5 56.5t-95 49t-109.5 34t-115 12.5q-57 0 -122.5 -13.5t-122 -42t-94.5 -76t-38 -116.5q0 -55 25 -95t65.5 -68t94 -48.5t112.5 -34.5l269 -72q72 -18 143.5 -51t127.5 -86t92 -129t36 -182q0 -123 -43 -210t-121 -141.5 t-184.5 -80t-235.5 -25.5q-193 0 -356.5 72t-292.5 223z" />
<glyph unicode="T" horiz-adv-x="1189" d="M51 1401v196h1088v-196h-439v-1401h-213v1401h-436z" />
<glyph unicode="U" horiz-adv-x="1556" d="M184 541v1056h226v-1069q0 -76 32.5 -142.5t85 -116.5t120 -78.5t136.5 -28.5q61 0 128 28.5t120 78.5t88 117t35 142q-2 233 -2 443v626h219v-1056q0 -131 -49 -237.5t-130 -182.5t-187.5 -117t-221.5 -41q-119 0 -227 42t-191 119t-132.5 182.5t-49.5 234.5z" />
<glyph unicode="V" horiz-adv-x="1331" d="M72 1597h213l383 -1359l381 1359h211l-449 -1597h-291z" />
<glyph unicode="W" horiz-adv-x="1941" d="M72 1597h223l274 -1232l275 1232h254l274 -1239l275 1239h223l-352 -1595h-258l-287 1301l-291 -1301h-256z" />
<glyph unicode="X" horiz-adv-x="1349" d="M61 0l496 842l-442 755h235l324 -553l323 553h236l-440 -753l495 -844h-237l-377 645l-377 -645h-236z" />
<glyph unicode="Y" horiz-adv-x="1318" d="M61 1597h222l376 -733l377 733h221l-491 -954v-643h-213v643z" />
<glyph unicode="Z" horiz-adv-x="1245" d="M113 2v217l772 1186h-752v192h1000v-219l-775 -1185h775v-191h-1020z" />
<glyph unicode="[" horiz-adv-x="729" d="M164 -250v1845h514v-104h-330v-1636h330v-105h-514z" />
<glyph unicode="\" horiz-adv-x="802" d="M41 1567l164 47l557 -1987l-162 -49z" />
<glyph unicode="]" horiz-adv-x="729" d="M51 -145h330v1636h-330v104h514v-1845h-514v105z" />
<glyph unicode="^" horiz-adv-x="1388" d="M41 383v664l651 653l656 -653v-662l-435 434v-1409h-436v1409z" />
<glyph unicode="_" horiz-adv-x="2856" d="M41 999l1059 -247v411h657v-411l1059 247l-1389 -981z" />
<glyph unicode="`" horiz-adv-x="1218" d="M336 1628h264l221 -323h-141z" />
<glyph unicode="a" d="M92 309q0 125 55.5 205t136.5 126t175 63.5t172 17.5q35 0 74.5 -4t72.5 -10l8 77q2 20 2 38q0 94 -52 136q-62 50 -171 50q-90 0 -166.5 -27t-154.5 -68l-70 164q45 29 99.5 51.5t110.5 39t111.5 25.5t100.5 9q119 0 195.5 -32.5t119.5 -90t59.5 -136.5t16.5 -171v-512 q0 -63 22.5 -95t59.5 -50l-98 -162q-43 14 -91.5 46t-74.5 85q-59 -57 -135 -88t-185 -31q-78 0 -149.5 23.5t-125.5 68.5t-86 108.5t-32 143.5zM299 326q0 -51 19.5 -89t52 -62.5t73.5 -36t82 -11.5q72 0 140.5 35.5t113.5 107.5v283q-33 4 -73.5 7t-90.5 3q-47 0 -102 -11 t-102 -39t-80 -73t-33 -114z" />
<glyph unicode="b" horiz-adv-x="1234" d="M143 2v1595h191v-553q76 86 164 119t166 33q102 0 190 -51t152.5 -137t100.5 -199t36 -238q0 -115 -34 -224t-96.5 -194t-153.5 -137.5t-206 -52.5q-74 0 -157.5 34t-161.5 128v-123h-191zM330 408q0 -63 30.5 -108.5t74.5 -75t92 -43t83 -13.5q82 0 142.5 39t101.5 99.5 t61.5 134t20.5 141.5q0 84 -20.5 160.5t-62.5 134t-104.5 91t-144.5 33.5q-43 0 -91 -16t-89 -47t-67.5 -77t-26.5 -107v-346z" />
<glyph unicode="c" d="M92 580q0 119 32 230.5t96.5 197.5t161.5 137t228 51q150 0 260.5 -73t178.5 -208l-160 -98q-43 88 -117 142.5t-172 54.5q-86 0 -143.5 -44t-92 -109.5t-50 -142.5t-15.5 -145t17.5 -143.5t54.5 -139t95 -105.5t140 -42q182 0 289 199l152 -100q-74 -125 -179.5 -202 t-246.5 -77q-129 0 -227.5 47t-166 129t-101.5 194.5t-34 246.5z" />
<glyph unicode="d" horiz-adv-x="1245" d="M92 565q0 123 31 238t92 202t155.5 139t221.5 52q72 0 151.5 -30.5t157.5 -110.5v542h201v-1597h-205l-2 113q-80 -92 -159 -120t-150 -28q-111 0 -202 52.5t-155.5 137.5t-100.5 192.5t-36 217.5zM299 580q0 -68 20.5 -141.5t61.5 -133t101.5 -98.5t142.5 -39 q35 0 83 13.5t92 43t74.5 75t30.5 108.5v342q0 61 -26.5 107t-67.5 77t-89 47t-91 16q-84 0 -145.5 -33.5t-103.5 -91t-62.5 -133t-20.5 -159.5z" />
<glyph unicode="e" horiz-adv-x="1189" d="M92 588q0 129 33 240.5t98.5 192.5t163.5 127t227 46q125 0 219.5 -49t154.5 -137t88 -210q23 -101 23 -215q0 -25 -1 -51v-18h-793q16 -180 102.5 -262t227.5 -82q74 0 137.5 23.5t114.5 64.5l133 -139q-86 -68 -182.5 -111t-202.5 -43q-131 0 -232.5 47t-170 131 t-104.5 198t-36 247zM305 662h586q1 13 1 26q0 65 -18 119q-20 65 -59 111.5t-94 71t-121 24.5q-68 0 -122 -28t-93 -75t-59.5 -111.5t-20.5 -137.5z" />
<glyph unicode="f" horiz-adv-x="751" d="M41 1001v162h186l-2 82v14q0 72 19 135q22 70 65 121.5t108.5 81t153.5 29.5q35 0 72 -3t72 -11l-15 -174q-18 4 -43.5 8t-44.5 4q-59 0 -96 -18.5t-58.5 -50t-29.5 -73.5q-6 -34 -6 -72v-19l2 -54h213v-162h-211v-1003h-199v1003h-186z" />
<glyph unicode="g" horiz-adv-x="1179" d="M92 635q0 104 36 204.5t97.5 178.5t143.5 126t174 48q104 0 182 -40t119 -105v114h192v-1202q0 -96 -37.5 -163.5t-103.5 -110.5t-153 -62.5t-185 -19.5q-213 0 -399 102q16 35 36.5 82t34.5 86q78 -39 164 -60.5t172 -21.5q45 0 94.5 8t90.5 29.5t67.5 60.5t26.5 99v205 q-74 -82 -151 -112t-148 -30q-109 0 -194 50.5t-142 131t-87 186t-30 216.5zM295 637q0 -74 14.5 -143.5t48 -125t88 -88t134.5 -32.5q74 0 124 34.5t79.5 88t43 118t13.5 123.5q0 76 -14.5 145.5t-46 123t-83 85t-125.5 31.5q-72 0 -123 -31.5t-85.5 -83t-51 -116 t-16.5 -129.5z" />
<glyph unicode="h" horiz-adv-x="1167" d="M143 0v1599h193v-577q59 80 143 127t183 47q178 0 270 -99.5t92 -265.5v-831h-195v762q0 129 -53 184t-147 55q-53 0 -106.5 -17t-94.5 -51t-66.5 -81t-25.5 -109v-743h-193z" />
<glyph unicode="i" horiz-adv-x="542" d="M143 1495q0 55 37 94t92 39q53 0 90 -39t37 -94t-36.5 -93t-90.5 -38q-55 0 -92 38t-37 93zM170 0v1163h201v-1163h-201z" />
<glyph unicode="j" horiz-adv-x="534" d="M-102 -356l55 184q23 -6 37 -9t43 -3q53 0 76.5 33.5t23.5 87.5v1226h199v-1298q0 -123 -64.5 -186.5t-181.5 -63.5q-53 0 -99 7t-89 22zM104 1495q0 55 37 94t92 39q53 0 90 -39t37 -94t-36.5 -93t-90.5 -38q-55 0 -92 38t-37 93z" />
<glyph unicode="k" horiz-adv-x="1163" d="M143 0v1597h201v-944l481 510h256l-430 -448l461 -715h-215l-371 590l-182 -193v-397h-201z" />
<glyph unicode="l" horiz-adv-x="653" d="M143 254v1345h195v-1306q0 -66 40 -103.5t107 -37.5q47 0 95 12l22 -176q-45 -10 -86 -16.5t-86 -6.5q-158 0 -222.5 70.5t-64.5 218.5z" />
<glyph unicode="m" horiz-adv-x="1800" d="M143 0v1163h207v-131q29 47 67 79t76.5 51.5t74.5 27.5t63 8q45 0 93 -10t91 -31.5t79 -54.5t58 -76q70 92 155 132t171 40q84 0 153.5 -28.5t120 -80t78 -123t27.5 -159.5v-807h-199v799q0 45 -16.5 83t-44 65.5t-64.5 44t-80 16.5t-87 -18.5t-79.5 -50.5t-59 -75 t-23.5 -94v-770h-203v85t-1 114.5t-1 131v136.5v334q0 41 -13.5 79t-38 66.5t-60.5 46t-79 17.5q-49 0 -95 -19.5t-83 -51.5t-58.5 -75t-21.5 -88v-776h-207z" />
<glyph unicode="n" horiz-adv-x="1185" d="M143 0v1163h197v-145q41 57 85 93t87 54.5t84 24.5t76 6q92 0 161.5 -26.5t115.5 -73.5t69.5 -110.5t23.5 -137.5v-848h-202v752q0 131 -60.5 186t-167.5 55q-47 0 -96 -23.5t-88 -61.5t-63.5 -88t-24.5 -103v-717h-197z" />
<glyph unicode="o" horiz-adv-x="1232" d="M92 563q0 117 33 230.5t97.5 203.5t160.5 145.5t223 55.5t226.5 -43t168 -123t104.5 -193.5t36 -252.5q0 -135 -34 -249t-101.5 -197t-167 -129t-230.5 -46q-119 0 -214 48t-162.5 131t-103.5 190.5t-36 228.5zM287 580q0 -86 25.5 -162t69.5 -133.5t104.5 -91 t131.5 -33.5q70 0 131.5 33.5t105.5 91t69.5 133.5t25.5 162t-25.5 162.5t-69.5 135t-105.5 92.5t-131.5 34q-72 0 -132 -34t-105 -92.5t-69.5 -135t-24.5 -162.5z" />
<glyph unicode="p" horiz-adv-x="1261" d="M143 -383v1544h191v-133q33 51 72.5 84t81.5 51.5t84 25.5t81 7q115 0 210 -47t163 -128t105.5 -188.5t37.5 -230.5q0 -150 -39.5 -265.5t-109.5 -195.5t-161 -120.5t-195 -40.5q-78 0 -160 32.5t-170 134.5v-530h-191zM330 428q0 -61 26.5 -107.5t67.5 -78t89 -48 t91 -16.5q82 0 147.5 33t111.5 88t70.5 130t24.5 161q0 70 -24.5 141.5t-69.5 129t-109.5 93t-144.5 35.5q-37 0 -86 -18.5t-92 -53t-72.5 -84t-29.5 -112.5v-293z" />
<glyph unicode="q" horiz-adv-x="1263" d="M92 602q0 123 38 230.5t105.5 188.5t163 128t211.5 47q76 0 166 -38t154 -130v133h190v-1544h-190v530q-37 -51 -78 -83.5t-85 -51t-87 -25.5t-82 -7q-104 0 -195.5 40.5t-161 120.5t-109.5 196t-40 265zM303 590q0 -86 24.5 -161t70.5 -130t113 -88t148 -33 q43 0 91.5 16.5t89.5 48t67.5 79t26.5 106.5v293q0 61 -30 111.5t-73 85t-92 53t-86 18.5q-80 0 -144.5 -35.5t-110.5 -93t-70.5 -129.5t-24.5 -141z" />
<glyph unicode="r" horiz-adv-x="759" d="M143 0v1163h203v-182q29 57 72 99t92 69q50 27 102 38q44 9 83 9h14v-225h-4h-11q-60 1 -120 -19q-64 -22 -114 -65t-82 -105.5t-32 -142.5v-639h-203z" />
<glyph unicode="s" horiz-adv-x="1093" d="M82 147l131 148q31 -31 73 -56.5t88 -44t91 -28.5t80 -10q100 0 170.5 37.5t70.5 111.5q0 35 -14 60.5t-38.5 43t-57.5 29t-70 21.5l-211 53q-53 14 -106 40t-94 65.5t-67 92t-26 119.5q0 90 37 159t99.5 115t142.5 69.5t166 23.5q125 0 227.5 -31.5t198.5 -113.5 l-131 -144q-72 59 -148 80t-145 21q-35 0 -74 -8.5t-73.5 -29t-57 -52t-22.5 -80.5q0 -45 40.5 -84t131.5 -62l204 -53q61 -16 115.5 -40t96.5 -60.5t66.5 -92t24.5 -135.5q0 -86 -32.5 -151.5t-93 -108.5t-143.5 -64.5t-183 -21.5q-129 0 -250 45t-217 137z" />
<glyph unicode="t" horiz-adv-x="819" d="M51 997v166h203v344l199 88v-432h305v-166h-305v-661q0 -98 36.5 -142t137.5 -44q51 0 106 16l21 -176q-49 -12 -98.5 -19.5t-98.5 -7.5q-53 0 -106.5 12.5t-96.5 41t-70.5 78.5t-27.5 128v774h-205z" />
<glyph unicode="u" horiz-adv-x="1169" d="M133 338v825h199v-733q0 -145 56 -203.5t171 -58.5q47 0 95 21.5t87 58.5t63.5 87t24.5 109v719h197v-1161h-197v143q-27 -47 -66.5 -80.5t-84.5 -56t-92 -33t-86 -10.5q-84 0 -152.5 29t-116 78t-73 117.5t-25.5 148.5z" />
<glyph unicode="v" horiz-adv-x="1048" d="M41 1163h209l276 -946l271 946h211l-349 -1163h-270z" />
<glyph unicode="w" horiz-adv-x="1564" d="M41 1163h205l209 -934l207 934h241l207 -934l209 934h205l-303 -1163h-244l-197 926l-192 -926h-242z" />
<glyph unicode="x" horiz-adv-x="1052" d="M31 0l385 614l-344 551h225l231 -368l228 368h221l-342 -544l387 -621h-223l-273 440l-274 -440h-221z" />
<glyph unicode="y" horiz-adv-x="1038" d="M31 1163h209l280 -907l275 907h213l-437 -1376q-16 -51 -49 -92t-73 -57q-45 -20 -92.5 -26.5t-98.5 -6.5q-82 0 -158 24q12 80 31 160q29 -10 58.5 -15t60.5 -5q33 0 63.5 9t55 27.5t39 48t14.5 70.5q0 2 -14.5 48t-38 120t-53 171t-63.5 202.5t-67.5 212t-63.5 201 t-54.5 169t-36.5 115.5z" />
<glyph unicode="z" horiz-adv-x="1038" d="M92 0v190l584 797h-533v176h783v-188l-588 -801h618v-174h-864z" />
<glyph unicode="{" horiz-adv-x="729" d="M82 713v166q68 6 106.5 31.5t58 64.5t23.5 88t4 102v260q0 205 83 314.5t290 109.5v-170q-72 -4 -111.5 -31.5t-61 -71.5t-27 -100.5t-5.5 -117.5q0 -55 2 -111.5t2 -111.5q0 -51 -3 -98.5t-17 -89.5t-43 -80t-80 -70q53 -35 84 -79t45 -93.5t17.5 -102.5t3.5 -106 q0 -47 -1 -93.5t-1 -93.5q0 -61 4 -116.5t23.5 -97.5t59.5 -69.5t109 -35.5v-170q-160 0 -256 96t-110 258q-8 72 -5 140.5t3 140.5q0 53 -2.5 109.5t-18.5 113.5q-20 66 -68.5 88.5t-107.5 26.5z" />
<glyph unicode="|" horiz-adv-x="468" d="M164 -55v1702h141v-1702h-141z" />
<glyph unicode="}" horiz-adv-x="729" d="M82 -90q70 8 109.5 35.5t59 69.5t24 97.5t4.5 116.5q0 47 -1.5 93.5t-1.5 93.5q0 53 3.5 106t18.5 102.5t46 93.5t84 79q-51 33 -81 70.5t-44 79.5t-17 89t-3 99q0 55 2 111.5t2 111.5q0 61 -5.5 117.5t-25.5 100.5t-61 71.5t-113 31.5v170q104 0 176 -27.5t115 -81.5 t62.5 -133t19.5 -182v-260q0 -53 5 -102t23.5 -88t57.5 -64.5t106 -31.5v-166q-57 -4 -106 -26.5t-68 -88.5q-16 -57 -19 -113.5t-3 -109.5q0 -72 3 -140.5t-3 -140.5q-14 -162 -111.5 -258t-257.5 -96v170z" />
<glyph unicode="~" horiz-adv-x="1456" d="M168 582q53 90 126 138t181 48q63 0 135 -25.5t141.5 -55.5t134 -55.5t113.5 -25.5q35 0 65 15.5t54.5 38t47 51t40.5 53.5l84 -111q-53 -90 -125.5 -138t-181.5 -48q-66 0 -136.5 25.5t-141 55.5t-134 55.5t-112.5 25.5q-35 0 -64.5 -15.5t-55.5 -38t-47.5 -51 t-39.5 -53.5z" />
<glyph unicode="&#xa1;" horiz-adv-x="645" d="M164 1434q0 68 47 115.5t113 47.5t111.5 -47.5t45.5 -115.5t-46 -116t-111 -48q-66 0 -113 48t-47 116zM174 -35l80 1172h139l78 -1172h-297z" />
<glyph unicode="&#xa2;" horiz-adv-x="1183" d="M113 580q0 102 25.5 203.5t79.5 186.5t135 143t192 77v160h168v-160q123 -18 213 -91t145 -184l-160 -98q-41 86 -115.5 141.5t-172.5 55.5q-82 0 -139.5 -43t-93.5 -108.5t-52 -143.5t-16 -146q0 -70 17 -145.5t55 -139t97.5 -104.5t141.5 -41q98 0 168.5 58.5 t116.5 140.5l151 -100l-2 -2q-33 -49 -69.5 -93.5t-80 -81t-94.5 -62.5t-110 -34v-153h-168v155q-113 18 -195 76.5t-134 141.5t-77.5 184.5t-25.5 206.5z" />
<glyph unicode="&#xa3;" horiz-adv-x="1280" d="M82 182q63 31 104 77t64.5 101.5t33 119t9.5 128.5v36t-2 34h-191v113h174q-16 49 -36.5 92t-38 86t-29.5 90t-12 102q0 109 34.5 195t98 146.5t152.5 92t196 31.5q88 0 166 -19.5t140.5 -60.5t107.5 -105.5t67 -154.5l-186 -39q-35 111 -100.5 157t-182.5 46 q-70 0 -127 -25.5t-98 -69.5t-63.5 -103.5t-22.5 -127.5q0 -49 11 -91t28.5 -82t37 -78.5t36.5 -81.5h385v-113h-359v-62q0 -57 -7 -106t-21.5 -95t-34 -92.5t-45.5 -95.5q14 2 35.5 4t44 3.5t44 2.5t35.5 1q53 0 91 -8.5t90 -24.5q61 -23 117.5 -38t121.5 -15q43 0 87 8 t85 18l35 -188q-59 -14 -117.5 -21.5t-121.5 -7.5q-68 0 -117 7t-92 18.5t-88.5 26t-104.5 28.5q-41 10 -80 11t-80 1q-59 0 -118.5 -19.5t-112.5 -35.5z" />
<glyph unicode="&#xa4;" horiz-adv-x="1716" d="M61 590l15 121h176q-2 23 -3 34t-2 17t-1 11v15v11.5t1 7.5t2 12t1 31h-154l15 121h149q25 147 80 268t140 209t200 136t260 48q113 0 210 -29.5t175 -86t136 -136.5t91 -178l-186 -69q-23 61 -59.5 117.5t-88 100.5t-116 69.5t-144.5 25.5q-109 0 -190.5 -35t-140 -97.5 t-96 -149.5t-58.5 -193h488l-21 -121h-475q0 -20 -1 -28.5t-2 -11.5t-1 -5v-10v-16.5t1 -14.5t2 -19.5t3 -33.5h457l-17 -121h-428q16 -88 54 -167t95.5 -139.5t135.5 -96t176 -35.5q147 0 256 77.5t162 216.5l188 -65q-80 -207 -228.5 -312.5t-379.5 -105.5q-139 0 -252 46 t-196.5 129t-141 199t-86.5 253h-201z" />
<glyph unicode="&#xa5;" horiz-adv-x="1392" d="M102 1597h217l357 -694h43l354 694h217l-356 -694h256v-131h-324l-65 -129v-111h389v-131h-389v-401h-209v401h-389v131h389v111l-66 129h-323v131h256z" />
<glyph unicode="&#xa6;" horiz-adv-x="464" d="M143 -41v655h138v-655h-138zM143 977v655h138v-655h-138z" />
<glyph unicode="&#xa7;" horiz-adv-x="991" d="M82 618q0 37 9 79t32.5 81t64.5 72t107 53q-76 59 -104.5 123t-28.5 139q0 61 21.5 119.5t63.5 104t103.5 73t143.5 27.5q55 0 108 -12.5t97 -43t76 -82t44 -126.5h-121q-18 74 -70.5 122t-140.5 48q-47 0 -84.5 -16.5t-64.5 -43t-42 -61.5t-15 -72q0 -117 110 -178 l318 -178q45 -25 82.5 -52.5t63.5 -61.5t40 -79t14 -104q0 -12 -6 -46t-27.5 -77t-66.5 -90t-121 -86q78 -59 118 -124t40 -155q0 -86 -30 -151.5t-79 -108.5t-114.5 -65.5t-137.5 -22.5q-88 0 -148.5 26.5t-100 67.5t-60 88.5t-29.5 90.5h132q8 -33 24 -65t43 -57.5t66 -41 t94 -15.5q68 0 108.5 29t62 65.5t29 74.5t7.5 57q0 45 -13.5 77.5t-35 57t-48 42t-53.5 34.5l-301 172q-47 27 -81 53.5t-56.5 60t-32.5 76.5t-10 102zM182 674q0 -80 40 -124t85 -73l326 -196q74 47 119 94t45 123q0 41 -15.5 73.5t-38 57t-47 42t-45.5 29.5l-313 177 q-45 -18 -75 -45t-48 -55.5t-25.5 -56.5t-7.5 -46z" />
<glyph unicode="&#xa8;" horiz-adv-x="1261" d="M248 1448q0 51 34.5 87t86.5 36q51 0 87 -36t36 -87t-36 -87t-87 -36t-86 36t-35 87zM670 1448q0 49 35.5 85t87.5 36q51 0 85.5 -36t34.5 -85q0 -51 -34.5 -87t-85.5 -36t-87 36t-36 87z" />
<glyph unicode="&#xa9;" horiz-adv-x="1906" d="M123 797q0 172 65.5 322.5t178 263t264 178t323.5 65.5t322.5 -65.5t263.5 -178t178.5 -263t65.5 -322.5t-65.5 -323.5t-178.5 -264.5t-263.5 -178.5t-322.5 -65.5t-323.5 65.5t-264 178.5t-178 264.5t-65.5 323.5zM180 795q0 -160 60.5 -300.5t166 -246t246 -165.5 t299.5 -60q160 0 301.5 60t247 165.5t165.5 246t60 300.5t-60 301t-165.5 246.5t-247 166t-301.5 60.5t-300 -60.5t-245.5 -166t-166 -247t-60.5 -300.5zM369 799q0 121 46 227.5t124.5 186t185 125.5t227.5 46q82 0 160 -21.5t144.5 -60t119.5 -92t86 -116.5l-233 -136 q-39 72 -112 114t-165 42q-66 0 -123 -24.5t-99 -67.5t-66.5 -100.5t-24.5 -122.5q0 -66 24.5 -123.5t66.5 -99t99.5 -66.5t122.5 -25q90 0 162 44t109 108l231 -139q-37 -61 -89 -113.5t-116.5 -89.5t-139.5 -58.5t-157 -21.5q-121 0 -227.5 46t-185 125t-124.5 185.5 t-46 227.5z" />
<glyph unicode="&#xaa;" horiz-adv-x="976" d="M82 913q0 109 44 174.5t110.5 101.5t144.5 48t145 12q23 0 51.5 -3t55.5 -5l4 47q8 78 -40 119t-124 41q-74 0 -136.5 -21.5t-127.5 -56.5l-66 150q37 25 82 44t93.5 32.5t94.5 20.5t85 7q98 0 161.5 -27.5t99.5 -74.5t49 -110.5t13 -135.5v-397q0 -43 19.5 -70t54.5 -39 l-84 -139q-94 16 -135 92h-23q-47 -53 -111.5 -70.5t-125.5 -17.5q-57 0 -116.5 15.5t-108 48t-79 86t-30.5 128.5zM270 928q0 -37 16.5 -64.5t41 -45t55.5 -26t59 -8.5q55 0 106.5 26t84.5 79l-2 203q-35 4 -62.5 6t-54.5 2q-35 0 -78 -7.5t-80 -26.5t-61.5 -53t-24.5 -85z " />
<glyph unicode="&#xab;" horiz-adv-x="948" d="M102 485v246l281 268v-159l-238 -232l238 -229v-162zM565 485v246l281 268v-159l-238 -232l238 -229v-162z" />
<glyph unicode="&#xac;" horiz-adv-x="1110" d="M113 682v160h884v-621h-125v461h-759z" />
<glyph unicode="&#xad;" horiz-adv-x="700" d="M61 567v195h506v-195h-506z" />
<glyph unicode="&#xae;" horiz-adv-x="1832" d="M123 795q0 166 60.5 317.5t167 265t252 181t315.5 67.5t315 -67.5t250.5 -181t166 -265t60.5 -317.5t-60.5 -316.5t-166 -264.5t-251 -181.5t-314.5 -67.5q-170 0 -315.5 67.5t-252 181.5t-167 264.5t-60.5 316.5zM229 795q0 -143 52.5 -273.5t143.5 -228.5t217 -156.5 t273 -58.5t273.5 58.5t218.5 156.5t144.5 228.5t52.5 273.5t-52.5 274t-144.5 229.5t-218 156.5t-274 58q-147 0 -272 -58t-217 -156.5t-144.5 -229.5t-52.5 -274zM625 350v926h376q61 0 111.5 -21.5t86.5 -59.5t54.5 -89t18.5 -111q0 -49 -17.5 -89t-46 -70.5t-66.5 -55 t-79 -45.5l211 -387h-129l-217 395h-191v-393h-112zM750 836h262q66 0 105.5 49t39.5 110q0 29 -12 55.5t-32.5 48t-47.5 35t-55 13.5h-260v-311z" />
<glyph unicode="&#xaf;" horiz-adv-x="722" d="M29 1313v119h667v-119h-667z" />
<glyph unicode="&#xb0;" horiz-adv-x="833" d="M113 1303q0 68 23.5 127t65.5 103t97 69.5t119 25.5q63 0 118.5 -25.5t96.5 -69.5t64.5 -103t23.5 -127t-23.5 -126.5t-64.5 -102.5t-96.5 -69.5t-118.5 -25.5t-118.5 25.5t-97.5 69.5t-65.5 102.5t-23.5 126.5zM221 1303q0 -43 15.5 -81t42 -66t61.5 -44t76 -16t76.5 16 t62.5 44t42 66t15 81q0 88 -57 148t-139 60q-41 0 -76 -16t-61.5 -44t-42 -66.5t-15.5 -81.5z" />
<glyph unicode="&#xb1;" horiz-adv-x="1095" d="M102 0v174h881v-174h-881zM102 803v178h355v428h184l-2 -428h352l2 -178h-352v-428h-174l2 428h-367z" />
<glyph unicode="&#xb2;" horiz-adv-x="1015" d="M82 1286q4 193 103.5 295t283.5 102q172 0 267 -97t95 -275q0 -168 -118.5 -304.5t-343.5 -265.5h458v-155h-725v174q63 37 157.5 95t182.5 132t150.5 158t62.5 170q0 41 -12 78t-36.5 65.5t-58.5 46t-77 17.5q-53 0 -91 -20.5t-63.5 -54.5t-38 -76t-14.5 -85h-182z" />
<glyph unicode="&#xb3;" horiz-adv-x="1034" d="M82 872l168 33q27 -86 89 -135t157 -49q84 0 145 47t64 145q0 72 -42 106t-90 46q-35 10 -72.5 11t-74.5 1v137q29 0 56.5 2.5t56.5 8.5q25 6 51 16t49 28.5t37 46t14 66.5q0 51 -22.5 82t-54 48.5t-66.5 23.5t-62 6q-78 0 -141 -37t-92 -123l-168 21q92 281 405 280 q72 0 138.5 -20.5t118 -59t82 -95t30.5 -130.5q0 -31 -7 -62.5t-26.5 -60t-54.5 -55t-90 -47.5q113 -53 151.5 -113.5t38.5 -126.5q0 -184 -94 -262t-289 -78q-166 0 -265 75t-140 224z" />
<glyph unicode="&#xb4;" horiz-adv-x="1232" d="M436 1305l219 321h265l-345 -321h-139z" />
<glyph unicode="&#xb5;" horiz-adv-x="1226" d="M41 -422l301 1491h195l-142 -704l-6 -25q-8 -41 0 -74t27.5 -55.5t47.5 -34.5t58 -12q61 0 113.5 25.5t91.5 68.5t66.5 101.5t40.5 123.5l118 586h193l-211 -1059h-184l26 125q-59 -53 -100 -82.5t-72 -46t-54.5 -20.5t-45.5 -4q-16 0 -57 16t-111 82l-100 -502h-195z " />
<glyph unicode="&#xb6;" horiz-adv-x="1058" d="M72 1001q0 102 29.5 188.5t86 148t137.5 96t185 34.5h508v-88h-115v-1742h-98v1742h-246v-1742h-100v901q-98 8 -171 47t-121 101.5t-71.5 143t-23.5 170.5z" />
<glyph unicode="&#xb7;" horiz-adv-x="563" d="M102 801q0 61 44 105t106 44q61 0 104 -44t43 -105t-43 -104.5t-104 -43.5t-105.5 43t-44.5 105z" />
<glyph unicode="&#xb8;" horiz-adv-x="1556" d="M983 -266q23 -10 49.5 -14.5t48.5 -4.5q45 0 84 32t39 93q0 63 -32.5 103.5t-69.5 62.5h57q37 0 76 -17.5t69.5 -49t50 -75.5t19.5 -97q0 -92 -58.5 -138.5t-146.5 -46.5q-57 0 -95 16.5t-68 34.5z" />
<glyph unicode="&#xb9;" horiz-adv-x="575" d="M82 1409v109q31 4 57.5 14t48.5 31q51 43 62 123h162v-1082h-183v805h-147z" />
<glyph unicode="&#xba;" horiz-adv-x="1028" d="M82 1118q0 92 26.5 182.5t80 163t133 117.5t184.5 45q104 0 186 -35t138.5 -99.5t86 -154t29.5 -200.5q0 -106 -27.5 -197.5t-83 -158t-138.5 -104.5t-191 -38q-98 0 -176 39t-133.5 105.5t-85 152.5t-29.5 182zM262 1133q0 -66 19.5 -123.5t53.5 -100.5t80 -68.5 t99 -25.5t100.5 25.5t81 68.5t53 100.5t19.5 123.5q0 63 -19.5 121.5t-53 101.5t-81 68.5t-100.5 25.5t-99 -25.5t-80 -68.5t-53.5 -101.5t-19.5 -121.5z" />
<glyph unicode="&#xbb;" horiz-adv-x="948" d="M102 217v162l238 229l-238 232v159l281 -268v-246zM565 217v162l238 229l-238 232v159l281 -268v-246z" />
<glyph unicode="&#xbc;" horiz-adv-x="1394" d="M82 1413v107q31 4 57.5 14t48.5 31q51 43 62 121h162v-1065h-183v792h-147zM367 117v196l522 668h264v-690h160v-174h-160v-187h-182v187h-604zM549 291h422v540z" />
<glyph unicode="&#xbd;" horiz-adv-x="1445" d="M82 1413v107q29 4 56.5 13t49.5 30q51 43 62 120h162v-1062h-183v792h-147zM573 621q4 188 104.5 289.5t283.5 101.5q174 0 268 -95.5t94 -271.5q0 -166 -119 -301t-344 -260h461v-154h-727v170q43 25 100.5 59t118.5 75.5t121.5 91t108 101.5t77 108.5t29.5 113.5 q0 39 -13.5 77t-37 65.5t-58 45t-77.5 17.5q-53 0 -91 -20.5t-64 -53t-38 -74.5t-14 -85h-183z" />
<glyph unicode="&#xbe;" horiz-adv-x="1724" d="M82 883l168 32q27 -86 89 -134t157 -48q84 0 145 47t64 146q0 68 -42 101.5t-90 45.5q-35 10 -72.5 12t-74.5 2v134q57 0 113 12q25 4 51 14t49 28.5t37 45.5t14 65q0 49 -22.5 81t-54 48.5t-66.5 22.5t-62 6q-78 0 -141 -35.5t-92 -122.5l-168 21q92 276 405 276 q72 0 138.5 -20.5t118 -58t82 -94t30.5 -128.5q0 -31 -7 -61.5t-26.5 -59t-54.5 -54t-90 -46.5q113 -53 151.5 -112t38.5 -125q0 -182 -93 -258t-290 -76q-166 0 -265 72.5t-140 220.5zM694 117v196l525 668h262v-690h161v-174h-161v-187h-183v187h-604zM879 291h419v540z " />
<glyph unicode="&#xbf;" horiz-adv-x="1179" d="M102 494q0 92 24 162.5t59.5 124t76.5 89t78 58.5q39 25 69.5 46t52 51t31 73t5.5 110h200q4 -172 -55 -265t-147 -136q-98 -49 -150.5 -130t-52.5 -185q0 -63 22.5 -122t62.5 -103t96 -70.5t124 -26.5q57 0 109.5 21.5t92.5 58.5t66.5 85t32.5 101h188q-6 -106 -46 -193 t-105.5 -149.5t-154.5 -96.5t-193 -34q-109 0 -199 44t-153.5 118t-98.5 169t-35 200zM434 1462q0 68 47 116t113 48t112 -48t46 -116t-46.5 -116t-111.5 -48q-66 0 -113 48.5t-47 115.5z" />
<glyph unicode="&#xc0;" horiz-adv-x="1400" d="M51 0l510 1597h273l516 -1597h-215l-99 311h-665l-99 -311h-221zM428 494h549l-277 860zM451 2023h264l221 -321h-141z" />
<glyph unicode="&#xc1;" horiz-adv-x="1400" d="M51 0l510 1597h273l516 -1597h-215l-99 311h-665l-99 -311h-221zM428 494h549l-277 860zM522 1702l221 321h265l-346 -321h-140z" />
<glyph unicode="&#xc2;" horiz-adv-x="1400" d="M51 0l510 1597h273l516 -1597h-215l-99 311h-665l-99 -311h-221zM342 1702l258 321h191l260 -321h-183l-172 213l-172 -213h-182zM428 494h549l-277 860z" />
<glyph unicode="&#xc3;" horiz-adv-x="1400" d="M51 0l510 1597h273l516 -1597h-215l-99 311h-665l-99 -311h-221zM367 1702q10 86 60 144.5t140 58.5q39 0 72 -11.5t63 -25.5q33 -14 65 -26.5t67 -12.5q76 0 100 72h98q-8 -94 -58 -146.5t-140 -52.5q-35 0 -66 11t-66 26q-35 16 -68.5 28.5t-70.5 12.5 q-39 0 -64.5 -21.5t-35.5 -56.5h-96zM428 494h549l-277 860z" />
<glyph unicode="&#xc4;" horiz-adv-x="1400" d="M51 0l510 1597h273l516 -1597h-215l-99 311h-665l-99 -311h-221zM367 1825q0 51 35.5 87t86.5 36t86 -36t35 -87t-34.5 -86t-86.5 -35q-51 0 -86.5 35t-35.5 86zM428 494h549l-277 860zM788 1825q0 51 36 86t87 35t87 -35t36 -86t-35.5 -87t-87.5 -36q-51 0 -87 36 t-36 87z" />
<glyph unicode="&#xc5;" horiz-adv-x="1400" d="M51 0l510 1597h273l516 -1597h-215l-99 311h-665l-99 -311h-221zM428 494h549l-277 860zM469 1937q0 49 18.5 91.5t50 74t73.5 50t91 18.5t91.5 -18.5t75 -50t51 -74t18.5 -91.5t-18.5 -92t-51 -74.5t-74.5 -50t-92 -18.5q-49 0 -91 18.5t-73.5 50t-50 74.5t-18.5 92z M571 1935q0 -53 39 -92t92 -39t92.5 39t39.5 92q0 55 -39 94t-93 39q-53 0 -92 -38.5t-39 -94.5z" />
<glyph unicode="&#xc6;" horiz-adv-x="2226" d="M51 0l1022 1597h998v-188h-721l-2 -512h655v-182h-653v-527h774v-188h-987v307h-668q-51 -74 -97 -151.5t-89 -155.5h-232zM586 494h549v860z" />
<glyph unicode="&#xc7;" horiz-adv-x="1546" d="M113 788q0 162 41 313.5t127 269.5t217 188.5t309 70.5q106 0 204.5 -27.5t179.5 -81t141 -134.5t91 -185l-190 -74q-25 68 -62.5 124.5t-90 98.5t-116 65.5t-137.5 23.5q-141 0 -236 -55.5t-152.5 -146.5t-82 -207t-24.5 -236q0 -115 23.5 -229.5t80 -206t147.5 -147.5 t226 -56q150 0 257.5 77.5t158.5 217.5l192 -72q-63 -174 -188 -278.5t-307 -129.5q51 -35 78.5 -89t27.5 -115q0 -92 -59.5 -138.5t-145.5 -46.5q-47 0 -86 13.5t-78 37.5l-22 101q45 -18 98 -19q53 0 88 36t35 89q0 35 -12 67t-37 56q-176 0 -306 68.5t-217 184.5 t-130 264.5t-43 307.5z" />
<glyph unicode="&#xc8;" horiz-adv-x="1280" d="M195 0v1597h935v-196h-722v-498h661v-192h-661v-514h770v-197h-983zM389 2023h264l221 -321h-141z" />
<glyph unicode="&#xc9;" horiz-adv-x="1280" d="M195 0v1597h935v-196h-722v-498h661v-192h-661v-514h770v-197h-983zM522 1702l221 321h265l-346 -321h-140z" />
<glyph unicode="&#xca;" horiz-adv-x="1280" d="M195 0v1597h935v-196h-722v-498h661v-192h-661v-514h770v-197h-983zM307 1702l258 321h191l260 -321h-182l-172 213l-173 -213h-182z" />
<glyph unicode="&#xcb;" horiz-adv-x="1280" d="M195 0v1597h935v-196h-722v-498h661v-192h-661v-514h770v-197h-983zM346 1825q0 51 36 87t87 36t86 -36t35 -87t-35 -86t-86 -35t-87 35t-36 86zM768 1825q0 51 36 86t87 35t87 -35t36 -86t-36 -87t-87 -36t-87 36t-36 87z" />
<glyph unicode="&#xcc;" horiz-adv-x="604" d="M20 2023h265l221 -321h-141zM195 0v1597h215v-1597h-215z" />
<glyph unicode="&#xcd;" horiz-adv-x="604" d="M168 1702l219 321h264l-344 -321h-139zM195 0v1597h215v-1597h-215z" />
<glyph unicode="&#xce;" horiz-adv-x="604" d="M-53 1702l258 321h190l260 -321h-182l-172 213l-172 -213h-182zM195 0v1597h215v-1597h-215z" />
<glyph unicode="&#xcf;" horiz-adv-x="604" d="M-31 1825q0 51 36 87t87 36t86 -36t35 -87t-35 -86t-86 -35t-87 35t-36 86zM195 0v1597h215v-1597h-215zM391 1825q0 51 36 86t87 35t87 -35t36 -86t-36 -87t-87 -36t-87 36t-36 87z" />
<glyph unicode="&#xd0;" horiz-adv-x="1533" d="M102 723v158h86v716h564q176 0 305 -69.5t212 -182t123 -252t40 -280.5q0 -170 -43 -317.5t-128 -258t-213 -174t-298 -63.5h-562v723h-86zM401 190h361q125 0 212 58.5t141 148.5t79 200t25 212q0 94 -27 198.5t-81 192.5t-138 146.5t-197 58.5h-375v-524h279v-158h-279 v-533z" />
<glyph unicode="&#xd1;" horiz-adv-x="1675" d="M195 0v1597h260l813 -1308v1308h213v-1597h-262l-811 1303v-1303h-213zM516 1704q10 86 60.5 144.5t140.5 58.5q39 0 71.5 -11.5t63.5 -25.5q33 -14 64.5 -26.5t66.5 -12.5q76 0 100 72h99q-8 -94 -58.5 -146.5t-140.5 -52.5q-35 0 -65.5 11t-65.5 26q-35 16 -68.5 28.5 t-70.5 12.5q-39 0 -64.5 -21.5t-36.5 -56.5h-96z" />
<glyph unicode="&#xd2;" horiz-adv-x="1632" d="M113 786q0 188 43 344t130 267.5t218 173t305 61.5q182 0 316.5 -62.5t221.5 -175t130 -266t43 -337.5q0 -176 -45 -329t-134.5 -264.5t-222.5 -176t-309 -64.5q-166 0 -296 61.5t-219 171t-135 262t-46 334.5zM322 803q0 -127 25.5 -244t82.5 -207t150.5 -143t230.5 -53 q147 0 242.5 56t152 147.5t78 207t21.5 234.5q0 125 -25 241.5t-83 205.5t-153.5 142.5t-234.5 53.5q-135 0 -228.5 -55.5t-150.5 -145.5t-82.5 -205.5t-25.5 -234.5zM451 2023h264l221 -321h-141z" />
<glyph unicode="&#xd3;" horiz-adv-x="1632" d="M113 786q0 188 43 344t130 267.5t218 173t305 61.5q182 0 316.5 -62.5t221.5 -175t130 -266t43 -337.5q0 -176 -45 -329t-134.5 -264.5t-222.5 -176t-309 -64.5q-166 0 -296 61.5t-219 171t-135 262t-46 334.5zM322 803q0 -127 25.5 -244t82.5 -207t150.5 -143t230.5 -53 q147 0 242.5 56t152 147.5t78 207t21.5 234.5q0 125 -25 241.5t-83 205.5t-153.5 142.5t-234.5 53.5q-135 0 -228.5 -55.5t-150.5 -145.5t-82.5 -205.5t-25.5 -234.5zM666 1702l221 321h264l-346 -321h-139z" />
<glyph unicode="&#xd4;" horiz-adv-x="1632" d="M113 786q0 188 43 344t130 267.5t218 173t305 61.5q182 0 316.5 -62.5t221.5 -175t130 -266t43 -337.5q0 -176 -45 -329t-134.5 -264.5t-222.5 -176t-309 -64.5q-166 0 -296 61.5t-219 171t-135 262t-46 334.5zM322 803q0 -127 25.5 -244t82.5 -207t150.5 -143t230.5 -53 q147 0 242.5 56t152 147.5t78 207t21.5 234.5q0 125 -25 241.5t-83 205.5t-153.5 142.5t-234.5 53.5q-135 0 -228.5 -55.5t-150.5 -145.5t-82.5 -205.5t-25.5 -234.5zM451 1702l258 321h190l260 -321h-182l-172 213l-172 -213h-182z" />
<glyph unicode="&#xd5;" horiz-adv-x="1632" d="M113 786q0 188 43 344t130 267.5t218 173t305 61.5q182 0 316.5 -62.5t221.5 -175t130 -266t43 -337.5q0 -176 -45 -329t-134.5 -264.5t-222.5 -176t-309 -64.5q-166 0 -296 61.5t-219 171t-135 262t-46 334.5zM322 803q0 -127 25.5 -244t82.5 -207t150.5 -143t230.5 -53 q147 0 242.5 56t152 147.5t78 207t21.5 234.5q0 125 -25 241.5t-83 205.5t-153.5 142.5t-234.5 53.5q-135 0 -228.5 -55.5t-150.5 -145.5t-82.5 -205.5t-25.5 -234.5zM473 1702q10 86 60.5 144.5t140.5 58.5q39 0 71.5 -11.5t63.5 -25.5q33 -14 64.5 -26.5t66.5 -12.5 q76 0 100 72h99q-8 -94 -58.5 -146.5t-140.5 -52.5q-35 0 -65.5 11t-65.5 26q-35 16 -68.5 28.5t-70.5 12.5q-39 0 -64.5 -21.5t-36.5 -56.5h-96z" />
<glyph unicode="&#xd6;" horiz-adv-x="1632" d="M113 786q0 188 43 344t130 267.5t218 173t305 61.5q182 0 316.5 -62.5t221.5 -175t130 -266t43 -337.5q0 -176 -45 -329t-134.5 -264.5t-222.5 -176t-309 -64.5q-166 0 -296 61.5t-219 171t-135 262t-46 334.5zM322 803q0 -127 25.5 -244t82.5 -207t150.5 -143t230.5 -53 q147 0 242.5 56t152 147.5t78 207t21.5 234.5q0 125 -25 241.5t-83 205.5t-153.5 142.5t-234.5 53.5q-135 0 -228.5 -55.5t-150.5 -145.5t-82.5 -205.5t-25.5 -234.5zM469 1825q0 51 36 87t87 36t86 -36t35 -87t-35 -86t-86 -35t-87 35t-36 86zM891 1825q0 51 36 86t87 35 t87 -35t36 -86t-36 -87t-87 -36t-87 36t-36 87z" />
<glyph unicode="&#xd7;" horiz-adv-x="1110" d="M92 168l311 354l-311 357l148 153l313 -358l313 356l152 -151l-313 -357l313 -354l-152 -156l-313 357l-313 -357z" />
<glyph unicode="&#xd8;" horiz-adv-x="1617" d="M113 797q0 197 55 351.5t150.5 259.5t221.5 161.5t269 56.5q31 0 67.5 -4t104.5 -16l45 161l98 -26l-45 -170q199 -111 311.5 -302t114.5 -474q0 -188 -55 -341t-150.5 -261.5t-222.5 -168t-268 -59.5q-29 0 -62.5 4t-93.5 15l-47 -174l-100 24l49 182 q-211 113 -326.5 310.5t-115.5 470.5zM322 795q0 -180 66.5 -320.5t219.5 -263.5l320 1196q-63 8 -84 9t-33 1q-102 0 -190.5 -42t-155 -121.5t-104 -195.5t-39.5 -263zM705 178q59 -6 77.5 -7t28.5 -1q104 0 190 45t146.5 128t94.5 197t34 253q0 172 -56.5 310t-195.5 267z " />
<glyph unicode="&#xd9;" horiz-adv-x="1556" d="M184 541v1056h226v-1069q0 -76 32.5 -142.5t85 -116.5t120 -78.5t136.5 -28.5q61 0 128 28.5t120 78.5t88 117t35 142q-2 233 -2 443v626h219v-1056q0 -131 -49 -237.5t-130 -182.5t-187.5 -117t-221.5 -41q-119 0 -227 42t-191 119t-132.5 182.5t-49.5 234.5zM451 2023 h264l221 -321h-141z" />
<glyph unicode="&#xda;" horiz-adv-x="1556" d="M184 541v1056h226v-1069q0 -76 32.5 -142.5t85 -116.5t120 -78.5t136.5 -28.5q61 0 128 28.5t120 78.5t88 117t35 142q-2 233 -2 443v626h219v-1056q0 -131 -49 -237.5t-130 -182.5t-187.5 -117t-221.5 -41q-119 0 -227 42t-191 119t-132.5 182.5t-49.5 234.5zM604 1702 l221 321h265l-347 -321h-139z" />
<glyph unicode="&#xdb;" horiz-adv-x="1556" d="M184 541v1056h226v-1069q0 -76 32.5 -142.5t85 -116.5t120 -78.5t136.5 -28.5q61 0 128 28.5t120 78.5t88 117t35 142q-2 233 -2 443v626h219v-1056q0 -131 -49 -237.5t-130 -182.5t-187.5 -117t-221.5 -41q-119 0 -227 42t-191 119t-132.5 182.5t-49.5 234.5zM428 1702 l258 321h191l260 -321h-183l-172 213l-172 -213h-182z" />
<glyph unicode="&#xdc;" horiz-adv-x="1556" d="M184 541v1056h226v-1069q0 -76 32.5 -142.5t85 -116.5t120 -78.5t136.5 -28.5q61 0 128 28.5t120 78.5t88 117t35 142q-2 233 -2 443v626h219v-1056q0 -131 -49 -237.5t-130 -182.5t-187.5 -117t-221.5 -41q-119 0 -227 42t-191 119t-132.5 182.5t-49.5 234.5zM444 1825 q0 51 36 87t87 36t86 -36t35 -87t-35 -86t-86 -35t-87 35t-36 86zM866 1825q0 51 36 86t87 35t87 -35t36 -86t-36 -87t-87 -36t-87 36t-36 87z" />
<glyph unicode="&#xdd;" horiz-adv-x="1318" d="M61 1597h222l376 -733l377 733h221l-491 -954v-643h-213v643zM584 1702l221 321h264l-346 -321h-139z" />
<glyph unicode="&#xde;" horiz-adv-x="1269" d="M154 0v1597h211v-268h387q104 0 185 -42t136 -110.5t85 -159t30 -186.5q0 -90 -32 -178t-90 -158.5t-138 -114.5t-176 -44l-385 2v-338h-213zM367 528h340q57 0 108 26t90 69t60.5 97t21.5 109q0 57 -21.5 112.5t-58.5 97.5t-88 68t-112 26h-340v-605z" />
<glyph unicode="&#xdf;" horiz-adv-x="1220" d="M133 0v1112q0 238 118 376t349 138q92 0 173 -32.5t142.5 -91t97.5 -139.5t36 -177q0 -90 -55.5 -182.5t-182.5 -143.5q154 -51 235.5 -151.5t81.5 -227.5q0 -109 -31.5 -197.5t-92 -151t-144.5 -97.5t-188 -35h-97v193q63 0 122 14t104 48t72.5 91t27.5 143 q0 82 -29.5 135.5t-75.5 85t-104.5 45t-116.5 13.5v129q53 2 101.5 15.5t85.5 44t58.5 80.5t21.5 122q0 55 -18.5 103.5t-51.5 83t-79 55t-99 20.5q-57 0 -103.5 -22.5t-79 -61.5t-50 -89t-17.5 -105v-1143h-211z" />
<glyph unicode="&#xe0;" d="M92 309q0 125 55.5 205t136.5 126t175 63.5t172 17.5q35 0 74.5 -4t72.5 -10l8 77q12 123 -50 173.5t-171 50.5q-90 0 -166.5 -27t-154.5 -68l-70 164q45 29 99.5 51.5t110.5 39t111.5 25.5t100.5 9q119 0 195.5 -32.5t119.5 -90t59.5 -136.5t16.5 -171v-512 q0 -63 22.5 -95t59.5 -50l-98 -162q-43 14 -91.5 46t-74.5 85q-59 -57 -135 -88t-185 -31q-78 0 -149.5 23.5t-125.5 68.5t-86 108.5t-32 143.5zM254 1628h264l221 -323h-141zM299 326q0 -51 19.5 -89t52 -62.5t73.5 -36t82 -11.5q72 0 140.5 35.5t113.5 107.5v283 q-33 4 -73.5 7t-90.5 3q-47 0 -102 -11t-102 -39t-80 -73t-33 -114z" />
<glyph unicode="&#xe1;" d="M92 309q0 125 55.5 205t136.5 126t175 63.5t172 17.5q35 0 74.5 -4t72.5 -10l8 77q12 123 -50 173.5t-171 50.5q-90 0 -166.5 -27t-154.5 -68l-70 164q45 29 99.5 51.5t110.5 39t111.5 25.5t100.5 9q119 0 195.5 -32.5t119.5 -90t59.5 -136.5t16.5 -171v-512 q0 -63 22.5 -95t59.5 -50l-98 -162q-43 14 -91.5 46t-74.5 85q-59 -57 -135 -88t-185 -31q-78 0 -149.5 23.5t-125.5 68.5t-86 108.5t-32 143.5zM299 326q0 -51 19.5 -89t52 -62.5t73.5 -36t82 -11.5q72 0 140.5 35.5t113.5 107.5v283q-33 4 -73.5 7t-90.5 3q-47 0 -102 -11 t-102 -39t-80 -73t-33 -114zM436 1305l219 321h265l-345 -321h-139z" />
<glyph unicode="&#xe2;" d="M92 309q0 125 55.5 205t136.5 126t175 63.5t172 17.5q35 0 74.5 -4t72.5 -10l8 77q12 123 -50 173.5t-171 50.5q-90 0 -166.5 -27t-154.5 -68l-70 164q45 29 99.5 51.5t110.5 39t111.5 25.5t100.5 9q119 0 195.5 -32.5t119.5 -90t59.5 -136.5t16.5 -171v-512 q0 -63 22.5 -95t59.5 -50l-98 -162q-43 14 -91.5 46t-74.5 85q-59 -57 -135 -88t-185 -31q-78 0 -149.5 23.5t-125.5 68.5t-86 108.5t-32 143.5zM238 1305l260 321h190l260 -321h-182l-172 213l-174 -213h-182zM299 326q0 -51 19.5 -89t52 -62.5t73.5 -36t82 -11.5 q72 0 140.5 35.5t113.5 107.5v283q-33 4 -73.5 7t-90.5 3q-47 0 -102 -11t-102 -39t-80 -73t-33 -114z" />
<glyph unicode="&#xe3;" d="M92 309q0 125 55.5 205t136.5 126t175 63.5t172 17.5q35 0 74.5 -4t72.5 -10l8 77q12 123 -50 173.5t-171 50.5q-90 0 -166.5 -27t-154.5 -68l-70 164q45 29 99.5 51.5t110.5 39t111.5 25.5t100.5 9q119 0 195.5 -32.5t119.5 -90t59.5 -136.5t16.5 -171v-512 q0 -63 22.5 -95t59.5 -50l-98 -162q-43 14 -91.5 46t-74.5 85q-59 -57 -135 -88t-185 -31q-78 0 -149.5 23.5t-125.5 68.5t-86 108.5t-32 143.5zM258 1305q10 86 60.5 144t140.5 58q37 0 69.5 -11t65.5 -26q31 -14 62.5 -26t66.5 -12q78 0 100 71h99q-6 -94 -56.5 -146 t-140.5 -52q-35 0 -66.5 11t-66.5 27q-33 14 -68 26.5t-71 12.5q-37 0 -62.5 -21.5t-36.5 -55.5h-96zM299 326q0 -51 19.5 -89t52 -62.5t73.5 -36t82 -11.5q72 0 140.5 35.5t113.5 107.5v283q-33 4 -73.5 7t-90.5 3q-47 0 -102 -11t-102 -39t-80 -73t-33 -114z" />
<glyph unicode="&#xe4;" d="M92 309q0 125 55.5 205t136.5 126t175 63.5t172 17.5q35 0 74.5 -4t72.5 -10l8 77q12 123 -50 173.5t-171 50.5q-90 0 -166.5 -27t-154.5 -68l-70 164q45 29 99.5 51.5t110.5 39t111.5 25.5t100.5 9q119 0 195.5 -32.5t119.5 -90t59.5 -136.5t16.5 -171v-512 q0 -63 22.5 -95t59.5 -50l-98 -162q-43 14 -91.5 46t-74.5 85q-59 -57 -135 -88t-185 -31q-78 0 -149.5 23.5t-125.5 68.5t-86 108.5t-32 143.5zM250 1427q0 51 36 87t87 36t86 -36t35 -87t-35 -85.5t-86 -34.5t-87 34.5t-36 85.5zM299 326q0 -51 19.5 -89t52 -62.5 t73.5 -36t82 -11.5q72 0 140.5 35.5t113.5 107.5v283q-33 4 -73.5 7t-90.5 3q-47 0 -102 -11t-102 -39t-80 -73t-33 -114zM672 1427q0 51 35.5 86t87.5 35q51 0 87 -35t36 -86t-36 -86.5t-87 -35.5t-87 35.5t-36 86.5z" />
<glyph unicode="&#xe5;" d="M92 309q0 125 55.5 205t136.5 126t175 63.5t172 17.5q35 0 74.5 -4t72.5 -10l8 77q12 123 -50 173.5t-171 50.5q-90 0 -166.5 -27t-154.5 -68l-70 164q45 29 99.5 51.5t110.5 39t111.5 25.5t100.5 9q119 0 195.5 -32.5t119.5 -90t59.5 -136.5t16.5 -171v-512 q0 -63 22.5 -95t59.5 -50l-98 -162q-43 14 -91.5 46t-74.5 85q-59 -57 -135 -88t-185 -31q-78 0 -149.5 23.5t-125.5 68.5t-86 108.5t-32 143.5zM299 326q0 -51 19.5 -89t52 -62.5t73.5 -36t82 -11.5q72 0 140.5 35.5t113.5 107.5v283q-33 4 -73.5 7t-90.5 3q-47 0 -102 -11 t-102 -39t-80 -73t-33 -114zM360 1538q0 49 18.5 91t50.5 74t74 50.5t91 18.5t91 -18.5t75 -50.5t51 -74t18 -91t-18 -92t-51 -75t-75 -50t-91 -18t-91 18t-74 50t-50.5 75t-18.5 92zM463 1536q0 -53 39 -92t92 -39t92 39t39 92q0 55 -39 94t-92 39t-92 -39t-39 -94z" />
<glyph unicode="&#xe6;" horiz-adv-x="1794" d="M72 315q0 113 45 188t118.5 120t169 63.5t193.5 18.5q33 0 67.5 -2.5t90.5 -8.5q4 47 8 72t4 47q0 55 -19.5 93t-51 61.5t-71.5 35t-79 11.5q-92 0 -172 -28t-158 -73l-67 164q88 55 184 87t198 32q104 0 197.5 -22.5t183.5 -108.5q80 72 153 101.5t157 29.5 q121 0 211 -48t149 -130t89 -190.5t30 -231.5q0 -16 -1 -30.5t-1 -28.5h-774q16 -180 103 -281.5t241 -101.5q66 0 126 22.5t111 63.5l123 -123q-74 -78 -163 -115t-199 -37q-127 0 -235.5 43t-194.5 148q-39 -66 -78 -104t-82 -57.5t-92 -24.5t-105 -5q-78 0 -150.5 18.5 t-131 60.5t-93 108.5t-34.5 162.5zM299 317q0 -57 19.5 -94t51 -58.5t71.5 -29.5t79 -8q242 4 242 291v29.5t1 23.5t1 29.5v46.5q-55 10 -94 14t-74 4q-49 0 -101.5 -11t-96.5 -40t-71.5 -77t-27.5 -120zM928 680h588q-10 72 -34 135.5t-61 111.5t-87 75.5t-115 27.5 q-63 0 -113.5 -28.5t-87.5 -76.5t-59.5 -111.5t-30.5 -133.5z" />
<glyph unicode="&#xe7;" d="M92 580q0 119 32 230.5t96.5 197.5t161.5 137t228 51q150 0 260.5 -73t178.5 -208l-160 -98q-43 88 -117 142.5t-172 54.5q-86 0 -143.5 -44t-92 -109.5t-50 -142.5t-15.5 -145t17.5 -143.5t54.5 -139t95 -105.5t140 -42q182 0 289 199l152 -100q-63 -106 -149.5 -178 t-197.5 -93q43 -31 74 -84t31 -120q0 -92 -58.5 -138.5t-146.5 -46.5q-57 0 -95 16.5t-69 34.5l-22 101q23 -10 49 -14.5t49 -4.5q45 0 84 32t39 93q0 41 -13.5 72t-35.5 53q-121 6 -213 55.5t-154.5 131t-94.5 191.5t-32 237z" />
<glyph unicode="&#xe8;" horiz-adv-x="1189" d="M92 588q0 129 33 240.5t98.5 192.5t163.5 127t227 46q125 0 219.5 -49t155 -137t88 -210.5t21.5 -265.5v-18h-793q16 -180 102.5 -262t227.5 -82q74 0 137.5 23.5t114.5 64.5l133 -139q-86 -68 -182.5 -111t-202.5 -43q-131 0 -232.5 47t-170 131t-104.5 198t-36 247z M274 1628h265l221 -323h-142zM305 662h586q4 80 -16.5 145t-59.5 111.5t-94 71t-121 24.5q-68 0 -122 -28t-93 -75t-59.5 -111.5t-20.5 -137.5z" />
<glyph unicode="&#xe9;" horiz-adv-x="1189" d="M92 588q0 129 33 240.5t98.5 192.5t163.5 127t227 46q125 0 219.5 -49t155 -137t88 -210.5t21.5 -265.5v-18h-793q16 -180 102.5 -262t227.5 -82q74 0 137.5 23.5t114.5 64.5l133 -139q-86 -68 -182.5 -111t-202.5 -43q-131 0 -232.5 47t-170 131t-104.5 198t-36 247z M305 662h586q4 80 -16.5 145t-59.5 111.5t-94 71t-121 24.5q-68 0 -122 -28t-93 -75t-59.5 -111.5t-20.5 -137.5zM477 1305l219 321h265l-345 -321h-139z" />
<glyph unicode="&#xea;" horiz-adv-x="1189" d="M92 588q0 129 33 240.5t98.5 192.5t163.5 127t227 46q125 0 219.5 -49t155 -137t88 -210.5t21.5 -265.5v-18h-793q16 -180 102.5 -262t227.5 -82q74 0 137.5 23.5t114.5 64.5l133 -139q-86 -68 -182.5 -111t-202.5 -43q-131 0 -232.5 47t-170 131t-104.5 198t-36 247z M258 1305l260 321h191l260 -321h-183l-172 213l-174 -213h-182zM305 662h586q4 80 -16.5 145t-59.5 111.5t-94 71t-121 24.5q-68 0 -122 -28t-93 -75t-59.5 -111.5t-20.5 -137.5z" />
<glyph unicode="&#xeb;" horiz-adv-x="1189" d="M92 588q0 129 33 240.5t98.5 192.5t163.5 127t227 46q125 0 219.5 -49t155 -137t88 -210.5t21.5 -265.5v-18h-793q16 -180 102.5 -262t227.5 -82q74 0 137.5 23.5t114.5 64.5l133 -139q-86 -68 -182.5 -111t-202.5 -43q-131 0 -232.5 47t-170 131t-104.5 198t-36 247z M270 1427q0 51 36 87t87 36t86 -36t35 -87t-35 -85.5t-86 -34.5t-87 34.5t-36 85.5zM305 662h586q4 80 -16.5 145t-59.5 111.5t-94 71t-121 24.5q-68 0 -122 -28t-93 -75t-59.5 -111.5t-20.5 -137.5zM692 1427q0 51 36 86t87 35t87 -35t36 -86t-36 -86.5t-87 -35.5t-87 35.5 t-36 86.5z" />
<glyph unicode="&#xec;" horiz-adv-x="542" d="M-33 1628h264l222 -323h-142zM170 0v1163h201v-1163h-201z" />
<glyph unicode="&#xed;" horiz-adv-x="542" d="M109 1305l219 321h264l-344 -321h-139zM170 0v1163h201v-1163h-201z" />
<glyph unicode="&#xee;" horiz-adv-x="542" d="M-84 1305l260 321h191l260 -321h-183l-172 213l-174 -213h-182zM170 0v1163h201v-1163h-201z" />
<glyph unicode="&#xef;" horiz-adv-x="542" d="M-61 1427q0 51 35.5 87t86.5 36t86 -36t35 -87t-34.5 -85.5t-86.5 -34.5q-51 0 -86.5 34.5t-35.5 85.5zM170 0v1163h201v-1163h-201zM360 1427q0 51 36 86t87 35t87 -35t36 -86t-35.5 -86.5t-87.5 -35.5q-51 0 -87 35.5t-36 86.5z" />
<glyph unicode="&#xf0;" horiz-adv-x="1163" d="M123 547q0 104 32.5 213.5t102.5 194.5t179.5 130t262.5 19l-157 229h-303l-56 105h283l-111 159h193l100 -159h283l57 -101h-278q37 -55 62.5 -92t43 -62.5t30.5 -46t25 -40.5q39 -61 75 -126t63.5 -133.5t44 -139t16.5 -144.5q0 -115 -32.5 -219.5t-92 -184 t-145.5 -128t-191 -48.5q-117 0 -207 43t-152.5 120t-95 182.5t-32.5 228.5zM313 553q0 -76 20.5 -147.5t57.5 -128t90.5 -90t118.5 -33.5q66 0 119 33.5t90 90t57.5 128t20.5 147.5t-20.5 147.5t-57.5 128t-90 90t-119 33.5t-119 -33.5t-90 -90t-57.5 -128t-20.5 -147.5z " />
<glyph unicode="&#xf1;" horiz-adv-x="1185" d="M143 0v1163h197v-145q41 57 85 93t87 54.5t84 24.5t76 6q92 0 161.5 -26.5t115.5 -73.5t69.5 -110.5t23.5 -137.5v-848h-202v752q0 131 -60.5 186t-167.5 55q-47 0 -96 -23.5t-88 -61.5t-63.5 -88t-24.5 -103v-717h-197zM276 1305q10 86 60.5 144t140.5 58q37 0 70 -11 t65 -26q31 -14 63 -26t66 -12q78 0 101 71h98q-6 -94 -56 -146t-141 -52q-35 0 -66.5 11t-66.5 27q-33 14 -67.5 26.5t-71.5 12.5t-62.5 -21.5t-35.5 -55.5h-97z" />
<glyph unicode="&#xf2;" horiz-adv-x="1232" d="M92 563q0 117 33 230.5t97.5 203.5t160.5 145.5t223 55.5t226.5 -43t168 -123t104.5 -193.5t36 -252.5q0 -135 -34 -249t-101.5 -197t-167 -129t-230.5 -46q-119 0 -214 48t-162.5 131t-103.5 190.5t-36 228.5zM274 1628h265l221 -323h-142zM287 580q0 -86 25.5 -162 t69.5 -133.5t104.5 -91t131.5 -33.5q70 0 131.5 33.5t105.5 91t69.5 133.5t25.5 162t-25.5 162.5t-69.5 135t-105.5 92.5t-131.5 34q-72 0 -132 -34t-105 -92.5t-69.5 -135t-24.5 -162.5z" />
<glyph unicode="&#xf3;" horiz-adv-x="1232" d="M92 563q0 117 33 230.5t97.5 203.5t160.5 145.5t223 55.5t226.5 -43t168 -123t104.5 -193.5t36 -252.5q0 -135 -34 -249t-101.5 -197t-167 -129t-230.5 -46q-119 0 -214 48t-162.5 131t-103.5 190.5t-36 228.5zM287 580q0 -86 25.5 -162t69.5 -133.5t104.5 -91 t131.5 -33.5q70 0 131.5 33.5t105.5 91t69.5 133.5t25.5 162t-25.5 162.5t-69.5 135t-105.5 92.5t-131.5 34q-72 0 -132 -34t-105 -92.5t-69.5 -135t-24.5 -162.5zM436 1305l219 321h265l-345 -321h-139z" />
<glyph unicode="&#xf4;" horiz-adv-x="1232" d="M92 563q0 117 33 230.5t97.5 203.5t160.5 145.5t223 55.5t226.5 -43t168 -123t104.5 -193.5t36 -252.5q0 -135 -34 -249t-101.5 -197t-167 -129t-230.5 -46q-119 0 -214 48t-162.5 131t-103.5 190.5t-36 228.5zM244 1305l260 321h190l260 -321h-182l-172 213l-174 -213 h-182zM287 580q0 -86 25.5 -162t69.5 -133.5t104.5 -91t131.5 -33.5q70 0 131.5 33.5t105.5 91t69.5 133.5t25.5 162t-25.5 162.5t-69.5 135t-105.5 92.5t-131.5 34q-72 0 -132 -34t-105 -92.5t-69.5 -135t-24.5 -162.5z" />
<glyph unicode="&#xf5;" horiz-adv-x="1232" d="M92 563q0 117 33 230.5t97.5 203.5t160.5 145.5t223 55.5t226.5 -43t168 -123t104.5 -193.5t36 -252.5q0 -135 -34 -249t-101.5 -197t-167 -129t-230.5 -46q-119 0 -214 48t-162.5 131t-103.5 190.5t-36 228.5zM283 1305q10 86 60 144t140 58q37 0 70 -11t65 -26 q31 -14 63 -26t67 -12q78 0 100 71h98q-6 -94 -56 -146t-140 -52q-35 0 -67 11t-67 27q-33 14 -67.5 26.5t-71.5 12.5t-62.5 -21.5t-35.5 -55.5h-96zM287 580q0 -86 25.5 -162t69.5 -133.5t104.5 -91t131.5 -33.5q70 0 131.5 33.5t105.5 91t69.5 133.5t25.5 162t-25.5 162.5 t-69.5 135t-105.5 92.5t-131.5 34q-72 0 -132 -34t-105 -92.5t-69.5 -135t-24.5 -162.5z" />
<glyph unicode="&#xf6;" horiz-adv-x="1232" d="M92 563q0 117 33 230.5t97.5 203.5t160.5 145.5t223 55.5t226.5 -43t168 -123t104.5 -193.5t36 -252.5q0 -135 -34 -249t-101.5 -197t-167 -129t-230.5 -46q-119 0 -214 48t-162.5 131t-103.5 190.5t-36 228.5zM274 1427q0 51 36 87t87 36t86 -36t35 -87t-34.5 -85.5 t-86.5 -34.5q-51 0 -87 34.5t-36 85.5zM287 580q0 -86 25.5 -162t69.5 -133.5t104.5 -91t131.5 -33.5q70 0 131.5 33.5t105.5 91t69.5 133.5t25.5 162t-25.5 162.5t-69.5 135t-105.5 92.5t-131.5 34q-72 0 -132 -34t-105 -92.5t-69.5 -135t-24.5 -162.5zM696 1427 q0 51 36 86t87 35t87 -35t36 -86t-36 -86.5t-87 -35.5t-87 35.5t-36 86.5z" />
<glyph unicode="&#xf7;" horiz-adv-x="1124" d="M102 453v194h920v-194h-920zM446 127q0 61 44.5 105t103.5 44q29 0 54.5 -12t46 -32.5t31.5 -47t11 -57.5q0 -29 -11 -54.5t-31.5 -47t-46 -33.5t-52.5 -12q-61 0 -105.5 44t-44.5 103zM446 971q0 61 44.5 104t103.5 43q29 0 54.5 -12t46 -31.5t31.5 -46t11 -57.5 q0 -29 -11 -54.5t-31.5 -47t-46 -34t-52.5 -12.5q-61 0 -105.5 44t-44.5 104z" />
<glyph unicode="&#xf8;" horiz-adv-x="1228" d="M92 563q0 115 33 227.5t97.5 201.5t159.5 144.5t222 55.5q27 0 54.5 -3t68.5 -9l43 155l88 -26l-41 -156q160 -72 240 -216t80 -351q0 -133 -34 -246t-100.5 -195t-166 -128t-230.5 -46q-23 0 -45 2t-57 9l-43 -158l-88 26l41 160q-158 78 -240 226.5t-82 326.5zM283 580 q0 -111 45 -206t139 -171l211 794q-27 4 -39 5.5t-23 1.5q-72 0 -133 -34t-105 -92.5t-69.5 -135t-25.5 -162.5zM553 166q29 -4 41 -5t22 -1q72 0 133.5 33.5t105.5 91t69.5 134.5t25.5 161q0 111 -45 207t-141 174z" />
<glyph unicode="&#xf9;" horiz-adv-x="1169" d="M133 338v825h199v-733q0 -145 56 -203.5t171 -58.5q47 0 95 21.5t87 58.5t63.5 87t24.5 109v719h197v-1161h-197v143q-27 -47 -66.5 -80.5t-84.5 -56t-92 -33t-86 -10.5q-84 0 -152.5 29t-116 78t-73 117.5t-25.5 148.5zM274 1628h265l221 -323h-142z" />
<glyph unicode="&#xfa;" horiz-adv-x="1169" d="M133 338v825h199v-733q0 -145 56 -203.5t171 -58.5q47 0 95 21.5t87 58.5t63.5 87t24.5 109v719h197v-1161h-197v143q-27 -47 -66.5 -80.5t-84.5 -56t-92 -33t-86 -10.5q-84 0 -152.5 29t-116 78t-73 117.5t-25.5 148.5zM403 1305l220 321h264l-344 -321h-140z" />
<glyph unicode="&#xfb;" horiz-adv-x="1169" d="M133 338v825h199v-733q0 -145 56 -203.5t171 -58.5q47 0 95 21.5t87 58.5t63.5 87t24.5 109v719h197v-1161h-197v143q-27 -47 -66.5 -80.5t-84.5 -56t-92 -33t-86 -10.5q-84 0 -152.5 29t-116 78t-73 117.5t-25.5 148.5zM217 1305l260 321h191l260 -321h-183l-172 213 l-174 -213h-182z" />
<glyph unicode="&#xfc;" horiz-adv-x="1169" d="M133 338v825h199v-733q0 -145 56 -203.5t171 -58.5q47 0 95 21.5t87 58.5t63.5 87t24.5 109v719h197v-1161h-197v143q-27 -47 -66.5 -80.5t-84.5 -56t-92 -33t-86 -10.5q-84 0 -152.5 29t-116 78t-73 117.5t-25.5 148.5zM248 1427q0 51 35.5 87t87.5 36q51 0 86 -36 t35 -87t-35 -85.5t-86 -34.5t-87 34.5t-36 85.5zM670 1427q0 51 35.5 86t87.5 35q51 0 86.5 -35t35.5 -86t-35.5 -86.5t-86.5 -35.5t-87 35.5t-36 86.5z" />
<glyph unicode="&#xfd;" horiz-adv-x="1038" d="M31 1163h209l280 -907l275 907h213l-437 -1376q-16 -51 -49 -92t-73 -57q-45 -20 -92.5 -26.5t-98.5 -6.5q-82 0 -158 24q12 80 31 160q29 -10 58.5 -15t60.5 -5q33 0 63.5 9t55 27.5t39 48t14.5 70.5q0 2 -14.5 48t-38 120t-53 171t-63.5 202.5t-67.5 212t-63.5 201 t-54.5 169t-36.5 115.5zM389 1305l219 321h264l-344 -321h-139z" />
<glyph unicode="&#xfe;" horiz-adv-x="1261" d="M143 -383v1982h191v-583q82 90 161.5 128t157.5 38q115 0 210 -47.5t163 -127t105.5 -186t37.5 -227.5q0 -147 -39.5 -263t-109.5 -194t-161 -119t-195 -41q-78 0 -156 33t-174 133v-526h-191zM342 422q0 -59 25.5 -106.5t65.5 -79t87 -48t90 -16.5q82 0 146.5 33 t109.5 88t68.5 130t23.5 161q0 70 -23.5 139.5t-67.5 125.5t-107.5 92t-143.5 36q-37 0 -85 -18.5t-90 -52.5t-70.5 -84t-28.5 -111v-289z" />
<glyph unicode="&#xff;" horiz-adv-x="1038" d="M31 1163h209l280 -907l275 907h213l-437 -1376q-16 -51 -49 -92t-73 -57q-45 -20 -92.5 -26.5t-98.5 -6.5q-82 0 -158 24q12 80 31 160q29 -10 58.5 -15t60.5 -5q33 0 63.5 9t55 27.5t39 48t14.5 70.5q0 2 -14.5 48t-38 120t-53 171t-63.5 202.5t-67.5 212t-63.5 201 t-54.5 169t-36.5 115.5zM184 1427q0 51 36 87t87 36t86 -36t35 -87t-35 -85.5t-86 -34.5t-87 34.5t-36 85.5zM606 1427q0 51 36 86t87 35t87 -35t36 -86t-36 -86.5t-87 -35.5t-87 35.5t-36 86.5z" />
<glyph unicode="&#x152;" horiz-adv-x="2064" d="M113 795q0 412 192.5 607t562.5 195h1047v-190h-729v-502h661v-190h-661v-529h776v-186l-1194 -2q-158 0 -280.5 60.5t-205.5 167t-126 253t-43 316.5zM322 793q0 -109 21.5 -213.5t72.5 -187.5t138 -134t216 -51q41 0 81 5t70.5 23.5t49 53.5t18.5 92l-2 811 q0 100 -57.5 145t-159.5 45q-131 0 -217 -52t-137 -135t-72.5 -189.5t-21.5 -212.5z" />
<glyph unicode="&#x153;" horiz-adv-x="1933" d="M92 584q0 133 34 245.5t99.5 194.5t159.5 128t215 46q104 0 194.5 -43t188.5 -147q92 100 181 144t200 44q119 0 209 -47t150.5 -134t90 -208.5t27.5 -271.5l-774 2q10 -115 45 -188t84 -114.5t105.5 -58t109.5 -16.5q59 0 120.5 25.5t108.5 62.5l132 -131 q-70 -74 -151 -111t-179 -37q-133 0 -239.5 44t-211.5 153q-98 -109 -191 -155t-200 -46q-113 0 -206 46t-160.5 129t-104.5 197t-37 247zM295 588q0 -84 21.5 -160t60.5 -134t94 -93t123 -35t123 35t95 93t61.5 134t21.5 160q0 82 -21.5 158.5t-61.5 135t-95 93.5t-123 35 t-123 -35t-94 -93.5t-60.5 -135t-21.5 -158.5zM1069 680h588q-10 72 -34 135.5t-59.5 110.5t-87 74.5t-116.5 27.5q-61 0 -111.5 -26.5t-87.5 -74.5t-60.5 -111.5t-31.5 -135.5z" />
<glyph unicode="&#x178;" horiz-adv-x="1318" d="M61 1597h222l376 -733l377 733h221l-491 -954v-643h-213v643zM326 1825q0 51 35.5 87t87.5 36q51 0 85.5 -36t34.5 -87t-34.5 -86t-85.5 -35t-87 35t-36 86zM748 1825q0 51 35.5 86t86.5 35t87 -35t36 -86t-35.5 -87t-87.5 -36q-51 0 -86.5 36t-35.5 87z" />
<glyph unicode="&#x2c6;" horiz-adv-x="1421" d="M379 1305l260 321h190l261 -321h-183l-172 213l-174 -213h-182z" />
<glyph unicode="&#x2dc;" horiz-adv-x="1736" d="M508 1305q10 86 60 144t141 58q37 0 69.5 -11t65.5 -26q31 -14 62.5 -26t66.5 -12q78 0 100 71h98q-6 -94 -56 -146t-140 -52q-35 0 -66.5 11t-66.5 27q-33 14 -68 26.5t-72 12.5t-62.5 -21.5t-35.5 -55.5h-96z" />
<glyph unicode="&#x2000;" horiz-adv-x="1085" />
<glyph unicode="&#x2001;" horiz-adv-x="2171" />
<glyph unicode="&#x2002;" horiz-adv-x="1085" />
<glyph unicode="&#x2003;" horiz-adv-x="2171" />
<glyph unicode="&#x2004;" horiz-adv-x="723" />
<glyph unicode="&#x2005;" horiz-adv-x="542" />
<glyph unicode="&#x2006;" horiz-adv-x="361" />
<glyph unicode="&#x2007;" horiz-adv-x="361" />
<glyph unicode="&#x2008;" horiz-adv-x="271" />
<glyph unicode="&#x2009;" horiz-adv-x="434" />
<glyph unicode="&#x200a;" horiz-adv-x="120" />
<glyph unicode="&#x2010;" horiz-adv-x="700" d="M61 567v195h506v-195h-506z" />
<glyph unicode="&#x2011;" horiz-adv-x="700" d="M61 567v195h506v-195h-506z" />
<glyph unicode="&#x2012;" horiz-adv-x="700" d="M61 567v195h506v-195h-506z" />
<glyph unicode="&#x2013;" horiz-adv-x="1165" d="M61 567v195h1045v-195h-1045z" />
<glyph unicode="&#x2014;" horiz-adv-x="1550" d="M61 567v195h1426v-195h-1426z" />
<glyph unicode="&#x2018;" horiz-adv-x="561" d="M156 1303q0 141 69.5 213.5t184.5 101.5v-66q-23 -6 -47.5 -20t-46 -38t-38 -56.5t-22.5 -77.5q33 8 44 9t22 1q51 0 87.5 -43t36.5 -94q0 -57 -38.5 -97t-96.5 -40q-76 0 -115.5 58t-39.5 149z" />
<glyph unicode="&#x2019;" horiz-adv-x="561" d="M156 1464q0 57 38.5 98.5t96.5 39.5q76 0 115.5 -58.5t39.5 -148.5q0 -139 -69.5 -213t-181.5 -103v66q20 6 44.5 20.5t47 38t39 56t22.5 77.5q-33 -8 -45 -9t-20 -1q-51 0 -89 43t-38 94z" />
<glyph unicode="&#x201a;" horiz-adv-x="579" d="M143 158q0 61 43 105t105 44q84 0 125 -64.5t41 -152.5q0 -74 -20.5 -128t-57.5 -93t-87 -63.5t-112 -36.5v100q18 2 41 13.5t44.5 29.5t37.5 44t21 56q-14 -2 -22.5 -3t-18.5 1q-29 0 -54.5 13.5t-44 34t-30 47t-11.5 53.5z" />
<glyph unicode="&#x201c;" horiz-adv-x="1064" d="M184 1292q0 74 20.5 129.5t56.5 94t86 64.5t110 40v-86q-20 -4 -44 -17.5t-46.5 -35t-39 -51t-22.5 -68.5q41 8 53 8q27 0 52.5 -13.5t44 -33.5t30 -46.5t11.5 -53.5q0 -59 -43 -103.5t-103 -44.5q-82 0 -124 62.5t-42 154.5zM631 1292q0 74 20.5 129.5t56 94t86 64.5 t109.5 40v-86q-20 -4 -43.5 -17.5t-46 -35t-39 -51t-22.5 -68.5q41 8 53 8q27 0 52.5 -13.5t44 -33.5t29.5 -46.5t11 -53.5q0 -59 -43 -103.5t-102 -44.5q-82 0 -124 62.5t-42 154.5z" />
<glyph unicode="&#x201d;" horiz-adv-x="1064" d="M164 1464q0 61 43 104.5t102 43.5q82 0 124 -62.5t42 -154.5q0 -74 -20.5 -129.5t-56.5 -94t-86 -64.5t-109 -40v86q20 4 43.5 17.5t46 35t39 51t22.5 68.5q-23 -4 -34 -5t-19 -1q-29 0 -53.5 12t-43 32.5t-29.5 47.5t-11 53zM610 1464q0 61 43 104.5t103 43.5 q82 0 124 -62.5t42 -154.5q0 -74 -20.5 -129.5t-56.5 -94t-86 -64.5t-110 -40v86q20 4 44 17.5t46.5 35t39 51t22.5 68.5q-23 -4 -34 -5t-19 -1q-29 0 -53.5 12t-43 32.5t-30 47.5t-11.5 53z" />
<glyph unicode="&#x201e;" horiz-adv-x="1003" d="M143 158q0 61 43 105t105 44q84 0 125 -64.5t41 -152.5q0 -74 -20.5 -128t-57.5 -93t-87 -63.5t-112 -36.5v100q18 2 41 13.5t44.5 29.5t37.5 44t21 56q-14 -2 -22.5 -3t-18.5 1q-29 0 -54.5 13.5t-44 34t-30 47t-11.5 53.5zM588 158q0 61 42 105t105 44q84 0 125 -64.5 t41 -152.5q0 -74 -20.5 -128t-57.5 -93t-88 -63.5t-112 -36.5v100q18 2 41.5 13.5t45 29.5t37 44t19.5 56q-12 -2 -21.5 -3t-19.5 1q-29 0 -53.5 13.5t-43 34t-29.5 47t-11 53.5z" />
<glyph unicode="&#x2022;" horiz-adv-x="690" d="M102 733q0 49 19.5 94t52.5 78t77 52.5t95 19.5q49 0 93 -19.5t77 -52.5t52.5 -78t19.5 -94t-19.5 -94t-52.5 -78t-77 -52.5t-93 -19.5q-51 0 -95 19.5t-77 52.5t-52.5 78t-19.5 94z" />
<glyph unicode="&#x2026;" horiz-adv-x="1368" d="M121 127q0 55 40 94t93 39q55 0 94 -39t39 -94t-39 -94t-94 -39q-53 0 -93 39t-40 94zM547 127q0 55 39 94t94 39t94 -39t39 -94t-39 -94t-94 -39t-94 39t-39 94zM973 127q0 55 39 94t94 39q53 0 93 -39t40 -94t-40 -94t-93 -39q-55 0 -94 39t-39 94z" />
<glyph unicode="&#x202f;" horiz-adv-x="434" />
<glyph unicode="&#x2039;" horiz-adv-x="2699" d="M41 788l651 656h658l-432 -434h1740v-437h-1740l434 -436h-660z" />
<glyph unicode="&#x203a;" horiz-adv-x="2699" d="M41 573v437h1741l-432 434h657l651 -656l-651 -651h-661l436 436h-1741z" />
<glyph unicode="&#x205f;" horiz-adv-x="542" />
<glyph unicode="&#x20ac;" horiz-adv-x="1716" d="M61 590l15 121h176q-2 23 -3 34t-2 17t-1 11v15v11.5t1 7.5t2 12t1 31h-154l15 121h149q25 147 80 268t140 209t200 136t260 48q113 0 210 -29.5t175 -86t136 -136.5t91 -178l-186 -69q-23 61 -59.5 117.5t-88 100.5t-116 69.5t-144.5 25.5q-109 0 -190.5 -35t-140 -97.5 t-96 -149.5t-58.5 -193h488l-21 -121h-475q0 -20 -1 -28.5t-2 -11.5t-1 -5v-10v-16.5t1 -14.5t2 -19.5t3 -33.5h457l-17 -121h-428q16 -88 54 -167t95.5 -139.5t135.5 -96t176 -35.5q147 0 256 77.5t162 216.5l188 -65q-80 -207 -228.5 -312.5t-379.5 -105.5q-139 0 -252 46 t-196.5 129t-141 199t-86.5 253h-201z" />
<glyph unicode="&#x2122;" horiz-adv-x="1617" d="M61 1483v114h566v-114h-226v-684h-114v684h-226zM760 799v798h172l203 -317l204 317h177v-798h-117v667l-264 -407l-263 409v-669h-112z" />
<glyph unicode="&#xe000;" horiz-adv-x="1167" d="M0 0v1167h1167v-1167h-1167z" />
<glyph unicode="&#xfb01;" horiz-adv-x="1134" d="M133 805l352 772h166l350 -772h-147l-287 663l-288 -663h-146z" />
</font>
</defs>
</svg>
