<?xml version="1.0" standalone="no"?>
<!DOCTYPE svg PUBLIC "-//W3C//DTD SVG 1.1//EN" "http://www.w3.org/Graphics/SVG/1.1/DTD/svg11.dtd" >
<svg xmlns="http://www.w3.org/2000/svg">
<metadata></metadata>
<defs>
<font id="transport_new_mediumregular" horiz-adv-x="1454" >
<font-face units-per-em="2048" ascent="1597" descent="-451" />
<missing-glyph horiz-adv-x="716" />
<glyph horiz-adv-x="0" />
<glyph unicode="&#xd;" horiz-adv-x="0" />
<glyph horiz-adv-x="0" />
<glyph horiz-adv-x="0" />
<glyph unicode=" "  horiz-adv-x="716" />
<glyph unicode="&#x09;" horiz-adv-x="716" />
<glyph unicode="&#xa0;" horiz-adv-x="716" />
<glyph unicode="!" horiz-adv-x="671" d="M154 139q0 72 50 122t122 50t121 -50t49 -122q0 -37 -13.5 -68.5t-37 -55t-54.5 -37t-65 -13.5q-35 0 -67 13.5t-55.5 37t-36.5 55t-13 68.5zM154 1597h344l-82 -1179h-183z" />
<glyph unicode="&#x22;" horiz-adv-x="897" d="M154 971v626h206v-626h-206zM535 971v626h208v-626h-208z" />
<glyph unicode="#" horiz-adv-x="1302" d="M51 451l23 184h223l41 326h-221l22 184h223l58 450h207l-58 -450h258l58 450h205l-58 -450h219l-24 -184h-219l-41 -326h219l-25 -184h-219l-57 -451h-205l55 451h-258l-55 -451h-207l57 451h-221zM502 635h258l43 326h-258z" />
<glyph unicode="$" horiz-adv-x="1507" d="M82 283l215 190q31 -37 77 -83t103.5 -86t125 -66.5t140.5 -26.5q74 0 137.5 11t111.5 38t75 71t27 111q0 49 -29 86t-76 66t-111.5 49.5t-134.5 34.5q-100 20 -207.5 50t-197.5 82t-147.5 134t-57.5 205q0 104 37 186t101.5 140.5t152.5 94.5t192 50v162h273v-164 q133 -20 243.5 -78.5t194.5 -159.5l-209 -184q-68 82 -175 133t-226 51q-49 0 -101.5 -12t-95.5 -36.5t-70.5 -63.5t-27.5 -94t32.5 -94.5t88 -66t126 -44t146.5 -31.5q106 -18 206.5 -54t178.5 -95.5t126 -144.5t48 -202t-37 -201.5t-101.5 -141t-152.5 -87t-190 -41.5 v-178h-272v182q-158 23 -293 100t-246 208z" />
<glyph unicode="%" horiz-adv-x="1906" d="M92 1126q0 102 26.5 203t80 179.5t134.5 128t189 49.5q119 0 203 -49.5t136 -128t76 -178.5t24 -200q0 -98 -24 -200.5t-75 -185t-132 -135t-193 -52.5q-121 0 -205 50t-137.5 131t-78 183.5t-24.5 204.5zM311 1126q0 -59 9.5 -124.5t34 -121t67.5 -91t108 -35.5 q61 0 102.5 35.5t66 91t33.5 121t9 122.5q0 61 -10 126t-34.5 119t-66.5 88t-106 34q-55 0 -95 -30.5t-65.5 -81t-39 -117t-13.5 -136.5zM946 479q0 102 26.5 202.5t80 179.5t134.5 128t189 49q119 0 203 -49t136 -128t76 -178.5t24 -199.5q0 -98 -24 -200.5t-75 -185.5 t-131 -135t-192 -52q-121 0 -206 50t-138.5 131t-78 183.5t-24.5 204.5zM1165 479q0 -59 9.5 -124.5t34 -121t67.5 -91.5t108 -36q61 0 102.5 36t66 91.5t34.5 121t10 122.5q0 61 -10 126t-35.5 119t-67.5 88t-104 34q-55 0 -96 -31t-66.5 -81t-39 -116.5t-13.5 -136.5z" />
<glyph unicode="&#x26;" horiz-adv-x="1443" d="M92 428q2 166 82 290t227 216q-51 84 -78.5 156.5t-27.5 144.5q0 88 26.5 159.5t75.5 123t119 80t156 28.5q82 0 153.5 -21.5t126 -64.5t85 -108.5t30.5 -151.5q0 -63 -24.5 -118.5t-66.5 -104.5t-98.5 -93t-117.5 -85l276 -400q39 59 57.5 107.5t24.5 99.5h246 q-8 -109 -55 -220.5t-119 -209.5q43 -35 87 -42t89 3l27 -219q-41 -18 -79 -25.5t-77 -7.5q-63 0 -125.5 26.5t-118.5 86.5q-98 -57 -192 -84t-189 -27q-102 0 -196 31t-167 89t-115 144t-42 197zM348 463q0 -57 23.5 -104.5t62.5 -80t91.5 -51t109.5 -18.5 q51 -2 105.5 19.5t115.5 60.5l-328 459q-98 -70 -139 -134.5t-41 -150.5zM543 1241q4 -53 34.5 -101t61.5 -89q37 20 69.5 44.5t59.5 53.5t42 62.5t15 74.5q0 59 -38.5 97t-104.5 38q-35 0 -61.5 -16t-44 -43t-25.5 -58.5t-8 -62.5z" />
<glyph unicode="'" horiz-adv-x="616" d="M205 975v622h207v-622h-207z" />
<glyph unicode="(" horiz-adv-x="778" d="M82 805q0 145 34 288.5t96 273.5t148 241.5t191 191.5l113 -131q-72 -74 -133.5 -171t-105.5 -208.5t-69.5 -235.5t-25.5 -249q0 -274 94.5 -494.5t241.5 -386.5l-111 -133q-225 193 -349 451t-124 563z" />
<glyph unicode=")" horiz-adv-x="778" d="M82 -76q147 166 241.5 386t94.5 495q0 125 -25.5 249t-69.5 235.5t-105.5 208.5t-133.5 171l113 131q104 -80 190 -191.5t148.5 -241.5t96.5 -273.5t34 -288.5q0 -305 -124 -563t-349 -451z" />
<glyph unicode="*" horiz-adv-x="751" d="M72 1171l51 162l186 -76v218h150v-215l188 73l53 -162l-190 -69l117 -182l-127 -101l-113 187l-113 -187l-131 101l119 182z" />
<glyph unicode="+" horiz-adv-x="1124" d="M92 408v229h354v407h234v-407h352v-229h-352v-408h-234v408h-354z" />
<glyph unicode="," horiz-adv-x="507" d="M92 154q0 66 46 111.5t112 45.5q35 0 65.5 -15t53 -43t35 -63.5t12.5 -74.5q0 -12 -1 -33t-5 -41t-17.5 -57t-50.5 -80q-29 -33 -79 -59.5t-109 -43.5l-31 74q43 14 70.5 27.5t56.5 40.5q8 6 14 16t4 16q0 18 -18 19q-31 0 -59.5 12t-50 33.5t-35 51.5t-13.5 63z" />
<glyph unicode="-" horiz-adv-x="679" d="M61 557v221h496v-221h-496z" />
<glyph unicode="." horiz-adv-x="497" d="M92 119q0 66 45 110.5t111 44.5t112 -44.5t46 -110.5t-46.5 -111t-111.5 -45q-66 0 -111 45t-45 111z" />
<glyph unicode="/" horiz-adv-x="827" d="M31 -362l557 1986l198 -57l-559 -1989z" />
<glyph unicode="0" horiz-adv-x="1466" d="M113 805q0 154 37.5 302t114.5 263t192.5 185.5t269.5 70.5q168 0 287 -70.5t194.5 -185.5t110.5 -261t35 -298t-35 -302.5t-108.5 -271t-188.5 -196.5t-272 -76q-170 0 -291 73t-198 191.5t-112.5 269t-35.5 306.5zM387 805q0 -86 14.5 -189.5t53.5 -192.5t107.5 -149.5 t176.5 -60.5q104 0 170 60.5t104 149.5t52 190.5t14 185.5q0 92 -15 194.5t-55 189.5t-106.5 143t-171.5 56q-92 0 -157.5 -51t-106.5 -133t-60.5 -185.5t-19.5 -207.5z" />
<glyph unicode="1" horiz-adv-x="929" d="M133 1141v211q57 2 118.5 13t106.5 46q43 33 60.5 80t21.5 106h234v-1597h-275v1141h-266z" />
<glyph unicode="2" horiz-adv-x="1284" d="M113 1067q-4 119 30.5 218t101 171t164 113t220.5 41q262 0 401 -140.5t139 -402.5q0 -98 -34.5 -189.5t-90 -172t-125 -152.5t-138 -130t-131 -103.5t-103.5 -73.5h624v-246h-1056v246q51 31 109.5 68.5t120 80.5t121.5 88t114 88q39 33 92 81t101 111.5t82 143.5 t34 176q0 57 -12.5 108.5t-41 90.5t-75.5 61.5t-117 22.5q-78 0 -132 -28.5t-86 -77t-43 -111t-1 -131.5h-266z" />
<glyph unicode="3" horiz-adv-x="1349" d="M123 434l262 60q12 -57 36.5 -107.5t61.5 -87.5t86 -58.5t111 -21.5q55 0 106.5 15.5t91.5 46t64.5 78t24.5 112.5q0 82 -33 131t-85 72.5t-115.5 27t-125.5 -3.5v230h45q51 0 103.5 9t93.5 32.5t67.5 63.5t26.5 104q2 119 -60.5 179t-209.5 60q-125 0 -188.5 -66.5 t-88.5 -164.5l-254 61q53 219 198.5 319.5t373.5 100.5q111 0 204 -33.5t160.5 -94t105.5 -143.5t38 -179q0 -51 -9.5 -103.5t-30 -99.5t-55 -85t-86.5 -57q92 -57 143.5 -138.5t51.5 -192.5q0 -119 -37 -216.5t-105.5 -167t-164.5 -108.5t-215 -39q-111 0 -210 24.5 t-177 79t-131.5 143.5t-73.5 218z" />
<glyph unicode="4" horiz-adv-x="1402" d="M74 299v295l727 1003h336v-1052h184v-246h-184v-299h-279v299h-784zM350 545h512v729z" />
<glyph unicode="5" horiz-adv-x="1333" d="M113 324l258 100q33 -94 101.5 -151.5t178.5 -57.5q80 0 136.5 27.5t92 75t52 109.5t16.5 134q0 66 -21.5 123t-60.5 99t-94 66.5t-125 24.5q-84 0 -157.5 -37.5t-110.5 -115.5l-266 76l116 800h912v-245h-666l-43 -299q59 29 121.5 46t128.5 17q119 0 218 -48t170 -130 t111 -187.5t40 -218.5q0 -125 -43 -229t-119 -179t-180.5 -117t-229.5 -42q-221 0 -349 96.5t-187 262.5z" />
<glyph unicode="6" horiz-adv-x="1372" d="M113 782q0 152 32.5 302.5t104.5 271.5t186.5 195.5t278.5 74.5q100 0 175 -20.5t130 -55t94 -81t70 -97.5l-226 -115q-41 57 -99 94.5t-144 37.5t-148.5 -35t-103.5 -92.5t-58.5 -129t-13.5 -145.5l4 -67q72 70 160 113.5t190 43.5q125 0 220.5 -43t161 -116.5 t99.5 -175t34 -218.5q0 -119 -36 -221t-103.5 -177t-166 -118t-221.5 -43q-176 0 -296 70.5t-191.5 185.5t-102 262.5t-30.5 298.5zM403 526q0 -66 23 -123t62.5 -99t94 -66.5t115.5 -24.5t115.5 24.5t94.5 66.5t63.5 99t23.5 123q0 63 -23.5 121t-63.5 99.5t-94 66.5 t-116 25q-61 0 -115.5 -25t-94 -66.5t-62.5 -99t-23 -121.5z" />
<glyph unicode="7" horiz-adv-x="1179" d="M45 1352v245h1090v-254l-574 -1343h-299l569 1352h-786z" />
<glyph unicode="8" horiz-adv-x="1353" d="M113 420q0 125 55 229.5t166 167.5q-86 61 -140.5 150.5t-54.5 199.5q0 111 47 196t124 143.5t175.5 88t198.5 29.5q102 0 198.5 -32.5t170 -93t119 -147.5t45.5 -198q0 -106 -53.5 -190t-143.5 -138q98 -66 159.5 -163t61.5 -218q0 -109 -48 -197.5t-126 -152 t-176 -97.5t-201 -34q-92 0 -194.5 32t-187.5 90t-140 143t-55 192zM385 455q0 -53 22.5 -98.5t62.5 -79t94 -53t116 -19.5q61 0 114.5 19.5t93.5 53t63.5 79t23.5 98.5q0 51 -23.5 96t-63.5 79t-93.5 53t-114.5 19t-115.5 -19t-94.5 -53t-62.5 -79t-22.5 -96zM410 1147 q0 -49 20.5 -91t57 -74t85 -50.5t103.5 -18.5t104 18.5t85 50.5t57.5 74t21.5 91t-21.5 91t-57.5 73.5t-85 50t-104 18.5t-103.5 -18.5t-85 -50t-57 -73.5t-20.5 -91z" />
<glyph unicode="9" horiz-adv-x="1372" d="M113 1069q0 119 35.5 220.5t103 176t166 117.5t221.5 43q176 0 295 -70.5t191.5 -186.5t103.5 -262t31 -298t-33 -302.5t-104.5 -270t-186.5 -195.5t-279 -76q-102 0 -175.5 20.5t-129 55.5t-94.5 81t-70 97l226 115q41 -57 99 -94t146 -37q84 0 147.5 34.5t103.5 92 t58.5 130t14.5 146.5l-4 66q-72 -70 -161 -114t-191 -44q-123 0 -219.5 43t-162 118t-99 176t-33.5 218zM373 1067q0 -66 23.5 -123t63.5 -99t94 -66.5t116 -24.5q61 0 114.5 24.5t93.5 66.5t63.5 99t23.5 123q0 63 -23.5 120.5t-63.5 99.5t-93.5 66.5t-114.5 24.5 t-115.5 -24.5t-94.5 -66.5t-63.5 -99.5t-23.5 -120.5z" />
<glyph unicode=":" horiz-adv-x="499" d="M92 739q0 66 45 111t111 45t112 -45t46 -111t-46.5 -111.5t-111.5 -45.5q-66 0 -111 46t-45 111zM96 119q0 66 45 110.5t111 44.5t111 -44.5t45 -110.5t-45.5 -111t-110.5 -45q-66 0 -111 45t-45 111z" />
<glyph unicode=";" horiz-adv-x="507" d="M92 154q0 66 46 111.5t112 45.5q35 0 65.5 -15t53 -43t35 -63.5t12.5 -74.5q0 -12 -1 -33t-5 -41t-17.5 -57t-50.5 -80q-29 -33 -79 -59.5t-109 -43.5l-31 74q43 14 70.5 27.5t56.5 40.5q8 6 14 16t4 16q0 18 -18 19q-31 0 -59.5 12t-50 33.5t-35 51.5t-13.5 63zM96 739 q0 66 45 111t111 45t112 -45t46 -111t-46.5 -111.5t-111.5 -45.5q-66 0 -111 46t-45 111z" />
<glyph unicode="&#x3c;" horiz-adv-x="1409" d="M92 479v170l1225 500v-234l-905 -350l905 -352v-233z" />
<glyph unicode="=" horiz-adv-x="1234" d="M102 205v213h1031v-213h-1031zM102 684v211h1031v-211h-1031z" />
<glyph unicode="&#x3e;" horiz-adv-x="1429" d="M102 -18v233l906 352l-906 351v235l1225 -502v-168z" />
<glyph unicode="?" horiz-adv-x="1261" d="M113 1110q0 117 41 212t111.5 162.5t167.5 104.5t210 37q117 0 212 -45t162.5 -121t104.5 -174.5t37 -202.5q0 -92 -25.5 -164.5t-63.5 -128t-82 -92t-81 -59.5q-80 -47 -112.5 -99.5t-28.5 -142.5h-264q-4 152 57.5 258.5t163.5 155.5q184 90 184 274q0 55 -19.5 106.5 t-56 90.5t-87 61.5t-111.5 22.5q-55 0 -104.5 -22.5t-87.5 -58.5t-59.5 -82t-21.5 -93h-247zM467 139q0 72 50 122t122 50t121 -50t49 -122q0 -37 -13.5 -68.5t-37 -55t-54 -37t-65.5 -13.5t-66.5 13.5t-55 37t-37 55t-13.5 68.5z" />
<glyph unicode="@" horiz-adv-x="1896" d="M164 799q0 174 64.5 325.5t177 263t262 175t319.5 63.5q152 0 288 -49t237.5 -139t161 -215t59.5 -277q0 -164 -58.5 -284.5t-141.5 -200.5t-173 -120t-154 -40q-53 0 -90 30.5t-51 67.5h-10q-10 -10 -32 -27.5t-52.5 -32.5t-68.5 -26.5t-77 -11.5q-84 0 -147.5 28.5 t-105.5 79t-63.5 118t-21.5 145.5q0 119 35 223t100.5 182t160 124t212.5 46q39 0 78 -10t72 -28.5t57.5 -42t34.5 -50.5l27 101h172l-148 -574q-6 -25 -13 -54.5t-7 -45.5q0 -23 11 -41.5t38 -18.5q45 0 91 32t82 89.5t58.5 133t22.5 165.5q0 133 -44 237.5t-122 176.5 t-185.5 108.5t-234.5 36.5q-139 0 -259 -51t-209 -142t-140 -213t-51 -263q0 -145 53 -268.5t144 -211.5t213 -137t259 -49t247 49t183 115l95 -111q-41 -39 -94.5 -78t-119 -69.5t-145.5 -49t-174 -18.5q-170 0 -319.5 62.5t-261 174t-177 264t-65.5 333.5zM692.5 684.5 q-6.5 -55.5 6 -99.5t48 -73t105.5 -29q33 0 75 14.5t81 37t68.5 53t37.5 63.5l60 228q6 27 1.5 59.5t-23.5 60t-54 46t-88 18.5q-123 0 -196 -77t-101 -193q-14 -53 -20.5 -108.5z" />
<glyph unicode="A" d="M41 0l514 1597h338l520 -1597h-274l-95 299h-632l-97 -299h-274zM485 532h482l-242 773z" />
<glyph unicode="B" horiz-adv-x="1466" d="M184 0v1597h654q82 0 161.5 -26.5t143 -77.5t102.5 -128t39 -177q0 -59 -16.5 -110.5t-42 -92.5t-59 -71.5t-66.5 -47.5q78 -23 130 -62.5t85 -93t46 -116.5t13 -131q0 -102 -37 -187.5t-101.5 -146.5t-152.5 -95t-188 -34h-711zM463 250h383q53 0 102 15.5t86 46 t58.5 76t21.5 104.5q0 49 -18.5 95t-50 80.5t-75.5 55t-96 20.5h-411v-493zM463 958h375q49 0 86 17.5t61.5 46.5t36.5 65.5t12 77.5q0 37 -15 71t-43 59.5t-63.5 41t-78.5 15.5h-371v-394z" />
<glyph unicode="C" horiz-adv-x="1595" d="M102 788q0 170 46.5 324t137.5 269.5t226 183t315 67.5q123 0 228.5 -32.5t189.5 -93t144.5 -148t93.5 -193.5l-248 -88q-18 59 -52 115.5t-82 99.5t-111.5 70t-141.5 27q-129 0 -218 -49.5t-144.5 -131.5t-79 -189.5t-23.5 -223.5q0 -109 22.5 -213.5t74.5 -187.5 t138.5 -134t210.5 -51q147 0 250 76.5t148 216.5l252 -84q-82 -223 -242 -339t-412 -116q-176 0 -311 67.5t-226 181.5t-138.5 263.5t-47.5 312.5z" />
<glyph unicode="D" horiz-adv-x="1574" d="M184 0v1597h588q186 0 320.5 -70.5t221.5 -182t128 -252t41 -279.5q0 -166 -44 -314.5t-133 -259t-223.5 -175t-312.5 -64.5h-586zM459 246h323q113 0 194 51t133 132t75.5 181.5t23.5 198.5q0 88 -25.5 184.5t-76.5 176t-129 131t-180 51.5h-338v-1106z" />
<glyph unicode="E" horiz-adv-x="1320" d="M184 0v1597h998v-249h-723v-418h661v-246h-661v-438h770v-246h-1045z" />
<glyph unicode="F" horiz-adv-x="1253" d="M184 0v1597h998v-245h-723v-420h661v-250h-661v-682h-275z" />
<glyph unicode="G" horiz-adv-x="1636" d="M92 825q0 164 47 310.5t137.5 257t224.5 176t310 65.5q211 0 377 -91t262 -283l-225 -115q-25 57 -68 102t-96 77t-113.5 48.5t-122.5 16.5q-127 0 -215 -53.5t-143 -138.5t-80 -192.5t-25 -216.5t24 -212t78 -185t140 -132t211 -50q94 0 170 29.5t127 76.5t79 107.5 t28 124.5v112h-418v240h651v-899h-231v160q-41 -61 -90.5 -99t-102.5 -59.5t-107.5 -29t-105.5 -7.5q-186 0 -322.5 70.5t-225.5 189.5t-132 274.5t-43 325.5z" />
<glyph unicode="H" horiz-adv-x="1552" d="M184 0v1597h275v-620h706v620h275v-1597h-275v733h-706v-733h-275z" />
<glyph unicode="I" horiz-adv-x="645" d="M184 0v1597h277v-1597h-277z" />
<glyph unicode="J" horiz-adv-x="993" d="M41 16l70 252q70 -31 130 -41t105 -10q27 0 59.5 8t60.5 25.5t46 46.5t18 70v1228h279v-1269q0 -92 -38 -160t-101.5 -113t-144.5 -67.5t-167 -22.5q-82 0 -163.5 14.5t-153.5 38.5z" />
<glyph unicode="K" horiz-adv-x="1466" d="M184 0v1597h275v-710l600 710h340l-565 -655l591 -942h-305l-461 745l-200 -233v-512h-275z" />
<glyph unicode="L" horiz-adv-x="1130" d="M184 0v1597h275v-1351h620v-246h-895z" />
<glyph unicode="M" horiz-adv-x="1914" d="M184 0v1597h277l487 -708l508 708h275v-1597h-275v1153l-512 -711l-485 711v-1153h-275z" />
<glyph unicode="N" horiz-adv-x="1716" d="M184 0v1597h308l765 -1146v1146h275v-1597h-307l-766 1145v-1145h-275z" />
<glyph unicode="O" horiz-adv-x="1673" d="M102 788q0 184 45.5 339t135.5 267.5t226 175t320 62.5q190 0 329.5 -63.5t232 -176t136.5 -267t44 -334.5q0 -174 -47 -326t-139.5 -264.5t-231.5 -178t-324 -65.5q-174 0 -309 61.5t-228 172t-141.5 263t-48.5 334.5zM373 803q0 -121 24.5 -228.5t78.5 -189.5 t141.5 -129t213.5 -47q137 0 226.5 50t141.5 133t73.5 189.5t21.5 219.5q0 119 -23.5 225.5t-78.5 187t-144.5 128t-218.5 47.5q-125 0 -212 -49.5t-141 -130.5t-78.5 -187.5t-24.5 -218.5z" />
<glyph unicode="P" horiz-adv-x="1341" d="M184 0v1597h629q117 0 205 -46t146.5 -118.5t87 -164t28.5 -181.5t-34 -180t-95 -162.5t-147 -117.5t-191 -45h-350v-582h-279zM459 827h309q51 0 96 22.5t79 58.5t53.5 82t19.5 95q0 51 -18.5 98.5t-52.5 84.5t-80 58.5t-99 21.5h-307v-521z" />
<glyph unicode="Q" horiz-adv-x="1687" d="M102 788q0 184 45.5 339t137.5 267.5t229 175t322 62.5q193 0 334 -63.5t233 -176t137 -267t45 -334.5q0 -223 -79 -408.5t-232 -296.5l102 -182l-248 -131l-104 207q-47 -12 -92 -17.5t-94 -5.5q-176 0 -313.5 61.5t-231.5 172t-142.5 263t-48.5 334.5zM375 803 q0 -121 24.5 -228.5t80 -189.5t143.5 -129t215 -47q37 0 67 6l-119 223l232 119l131 -242q90 86 124 215.5t34 270.5q0 119 -25 225.5t-80 187t-145 128t-221 47.5q-125 0 -213 -49.5t-143.5 -130.5t-80 -187.5t-24.5 -218.5z" />
<glyph unicode="R" horiz-adv-x="1394" d="M184 0v1597h617q129 0 223 -43t154.5 -113.5t89 -159.5t28.5 -183q0 -78 -18 -148.5t-55 -129t-91.5 -101.5t-123.5 -64l325 -655h-299l-301 623h-274v-623h-275zM459 866h336q117 0 179 67t62 163q0 106 -65.5 179t-173.5 73h-338v-482z" />
<glyph unicode="S" horiz-adv-x="1544" d="M123 283l201 186q25 -41 78 -86t118.5 -84t138 -63.5t136.5 -24.5q74 0 137 9t111.5 34t75 66.5t26.5 109.5q0 45 -23.5 82t-63.5 65.5t-93.5 49t-112.5 35.5l-217 55q-29 8 -73 21.5t-95 36t-103.5 56t-94.5 80.5t-68.5 110.5t-26.5 145.5q0 117 49 203t134 143.5 t199 86t243 28.5q205 0 345 -60.5t232 -160.5l-200 -180q-74 80 -172.5 116.5t-215.5 36.5q-63 0 -122.5 -12t-104.5 -36.5t-71.5 -63.5t-26.5 -94q0 -47 27.5 -81t70.5 -58.5t95.5 -42t99.5 -29.5q12 -4 39.5 -11.5t58.5 -14.5t59.5 -15.5t40.5 -10.5q72 -18 154 -50 t151.5 -85t115.5 -135t46 -199q0 -135 -48 -226t-132 -147.5t-195.5 -80t-234.5 -23.5q-178 0 -362.5 76t-325.5 242z" />
<glyph unicode="T" horiz-adv-x="1230" d="M41 1348v249h1149v-249h-438v-1348h-275v1348h-436z" />
<glyph unicode="U" horiz-adv-x="1597" d="M174 549v1048h287v-1058q0 -66 29.5 -124.5t77.5 -102.5t109.5 -69.5t127.5 -25.5q57 0 117.5 25.5t109.5 69.5t81 102.5t32 124.5q-2 248 -2 460v598h280v-1046q0 -133 -51 -241.5t-137 -185.5t-197.5 -119t-232.5 -42q-123 0 -236.5 43t-201.5 120t-140.5 184.5 t-52.5 238.5z" />
<glyph unicode="V" horiz-adv-x="1392" d="M61 1597h277l360 -1228l357 1228h276l-467 -1597h-338z" />
<glyph unicode="W" horiz-adv-x="1998" d="M61 1597h287l250 -1079l250 1079h303l250 -1085l250 1085h286l-366 -1595h-307l-263 1145l-266 -1145h-305z" />
<glyph unicode="X" horiz-adv-x="1437" d="M51 0l514 842l-461 755h308l307 -501l305 501h309l-461 -755l514 -842h-307l-360 592l-361 -592h-307z" />
<glyph unicode="Y" horiz-adv-x="1400" d="M51 1597h291l358 -669l359 669h291l-512 -956v-641h-275v641z" />
<glyph unicode="Z" horiz-adv-x="1286" d="M102 2v250l746 1100h-725v245h1061v-249l-746 -1100h746v-246h-1082z" />
<glyph unicode="[" horiz-adv-x="770" d="M154 -250v1847h575v-165h-330v-1518h330v-164h-575z" />
<glyph unicode="\" horiz-adv-x="817" d="M31 1567l196 57l559 -1986l-196 -60z" />
<glyph unicode="]" horiz-adv-x="770" d="M41 -86h330v1518h-330v165h575v-1847h-575v164z" />
<glyph unicode="^" horiz-adv-x="1388" d="M41 383v664l651 653l656 -653v-662l-435 434v-1409h-436v1409z" />
<glyph unicode="_" horiz-adv-x="2856" d="M41 999l1059 -247v411h657v-411l1059 247l-1389 -981z" />
<glyph unicode="`" horiz-adv-x="1218" d="M336 1628h285l221 -323h-162z" />
<glyph unicode="a" horiz-adv-x="1198" d="M82 319q0 86 26.5 151t71.5 112t103.5 78.5t122 50t127 25.5t118.5 7q31 0 61.5 -2t59.5 -6l4 41q1 11 1 22q0 71 -47 111q-54 47 -144 47q-92 0 -171 -28.5t-165 -71.5l-94 207q45 33 104 58.5t121.5 44t124 27.5t110.5 9q129 0 211 -33.5t129.5 -94t64.5 -140.5 t17 -172v-486q0 -53 27 -82.5t72 -39.5l-119 -195q-63 8 -113.5 41t-79.5 80q-53 -47 -133 -81t-194 -34q-84 0 -160 22.5t-132 66.5t-90 110.5t-34 154.5zM348 338q0 -41 17.5 -69.5t46 -49t64.5 -30t71 -9.5q66 0 126 30t97 85v229q-35 6 -67.5 7t-65.5 1q-45 0 -95 -10 t-93 -32.5t-72 -59.5t-29 -92z" />
<glyph unicode="b" horiz-adv-x="1275" d="M133 0v1597h252v-518q66 53 140.5 83t158.5 30q111 0 205 -51t161.5 -137t105.5 -199t38 -236q0 -115 -35 -223t-102.5 -193t-163.5 -137.5t-219 -52.5q-82 0 -155 33t-134 86v-82h-252zM383 422q0 -51 25.5 -89t64.5 -62.5t81 -37t77 -12.5q72 0 127 32t92 83t56.5 116 t19.5 128q0 78 -19.5 144.5t-57.5 114.5t-94.5 75.5t-129.5 27.5q-39 0 -82 -14.5t-78 -40t-58.5 -64.5t-23.5 -88v-313z" />
<glyph unicode="c" horiz-adv-x="1193" d="M82 580q0 117 34 227.5t101.5 197.5t171 139t242.5 52q168 0 288.5 -82t192.5 -229l-223 -109q-41 82 -106.5 133.5t-161.5 51.5q-74 0 -125.5 -37t-84 -93.5t-47 -124t-14.5 -131.5q0 -63 16.5 -130.5t50.5 -123t86 -90t124 -34.5q90 0 160.5 53t105.5 131l217 -109 q-37 -68 -85 -124t-106.5 -97t-128 -64.5t-149.5 -23.5q-137 0 -241.5 48t-175 131t-106.5 196t-36 242z" />
<glyph unicode="d" horiz-adv-x="1286" d="M82 567q0 121 31.5 234.5t97 201t166 139.5t235.5 52q78 0 148.5 -26.5t130.5 -73.5v503h262v-1599h-266l-2 76q-59 -49 -130 -79t-149 -30q-121 0 -217 53.5t-164.5 138.5t-105.5 192.5t-37 217.5zM350 580q0 -63 19.5 -128t56.5 -116t92 -83t127 -32q33 0 77 12.5 t82 37t64.5 62.5t26.5 89v313q0 49 -23.5 88t-59.5 64.5t-79 40t-82 14.5q-74 0 -130 -27.5t-94 -75.5t-57.5 -115t-19.5 -144z" />
<glyph unicode="e" horiz-adv-x="1230" d="M82 586q0 129 35 239.5t104.5 192.5t173 129t240.5 47q135 0 234.5 -51t164.5 -141q64 -88 92 -208q24 -99 24 -211q0 -24 -1 -48l-2 -48h-787q12 -133 87 -199.5t206 -66.5q76 0 135.5 19.5t126.5 81.5l160 -191q-82 -78 -189.5 -122t-230.5 -44q-139 0 -245.5 48 t-179 132t-110.5 197t-38 244zM356 688h527v12q1 52 -15 98q-18 50 -54 86t-85 56.5t-108 20.5t-108.5 -23t-84.5 -60.5t-53.5 -87t-18.5 -102.5z" />
<glyph unicode="f" horiz-adv-x="800" d="M33 946v217h186l-2 66v16q0 178 87 279q91 104 290 104q45 0 90 -5t88 -15l-22 -232q-25 6 -50.5 12.5t-52.5 6.5q-55 0 -89 -14.5t-53.5 -40t-25.5 -61.5q-5 -27 -5 -57q0 -10 1 -20l4 -39h211v-217h-211v-948h-260v948h-186z" />
<glyph unicode="g" horiz-adv-x="1220" d="M82 631q0 98 32.5 197.5t93 181.5t147.5 133t198 51q86 0 153.5 -23.5t127.5 -83.5v76h253v-1183q0 -115 -40.5 -190t-110.5 -120t-164 -63.5t-199 -18.5q-117 0 -218 27t-201 84l94 217q82 -43 161.5 -63.5t172.5 -20.5q39 0 83 6t81.5 24.5t62.5 51.5t25 86v156 q-55 -49 -125 -76t-154 -27q-115 0 -204 48.5t-148.5 129t-90 185t-30.5 215.5zM344 629q0 -63 13.5 -123t44 -106t79.5 -73.5t119 -27.5q63 0 107.5 28.5t72 73.5t39.5 99.5t12 105.5q0 66 -13 127.5t-43 108.5t-75 75.5t-108 28.5q-61 0 -107.5 -28.5t-78 -73.5 t-47 -102.5t-15.5 -112.5z" />
<glyph unicode="h" horiz-adv-x="1208" d="M133 0v1599h254v-530q72 66 144.5 96.5t150.5 30.5q190 0 291.5 -102.5t101.5 -278.5v-815h-256v748q0 106 -47 153t-133 47q-49 0 -94 -15t-81 -43t-56.5 -69t-20.5 -92v-729h-254z" />
<glyph unicode="i" horiz-adv-x="579" d="M133 1470q0 66 46 111t112 45t110.5 -45t44.5 -111t-45 -111.5t-110 -45.5q-66 0 -112 46t-46 111zM158 0v1163h262v-1163h-262z" />
<glyph unicode="j" horiz-adv-x="579" d="M-113 -346l70 235q23 -8 45.5 -13t56.5 -5q68 0 68 88v1204h262v-1276q0 -131 -73.5 -201.5t-204.5 -70.5q-66 0 -119 11.5t-105 27.5zM102 1470q0 66 46.5 111t111.5 45q66 0 111 -45t45 -111t-45 -111.5t-111 -45.5t-112 46t-46 111z" />
<glyph unicode="k" horiz-adv-x="1224" d="M133 0v1597h262v-880l436 446h345l-463 -465l471 -698h-285l-354 530l-150 -157v-373h-262z" />
<glyph unicode="l" horiz-adv-x="696" d="M133 274v1325h256v-1288q0 -47 30 -75.5t87 -28.5q33 0 58.5 4t60.5 12l30 -229q-53 -12 -102 -20.5t-102 -8.5q-172 0 -245 78t-73 231z" />
<glyph unicode="m" horiz-adv-x="1841" d="M133 0v1163h268v-76q20 23 51 43.5t66 36t70 23.5t63 8q98 0 182.5 -35t143.5 -112q66 63 147.5 105t173.5 42q90 0 166 -28.5t130.5 -82t84 -127t29.5 -163.5v-797h-260v788q0 33 -16.5 64t-41 53.5t-55 36.5t-61.5 14q-37 0 -76 -15t-70.5 -42t-52 -62.5t-20.5 -74.5 v-762h-264v63.5t-1.5 104.5t-1.5 128v138v357q0 31 -13 61.5t-34.5 54t-50 37.5t-61.5 14q-45 0 -86 -16t-73 -44t-50.5 -61.5t-18.5 -70.5v-766h-268z" />
<glyph unicode="n" horiz-adv-x="1226" d="M133 0v1163h258v-94q59 59 134 93t167 34q98 0 174 -29.5t126 -82t76 -124t26 -155.5v-805h-265v727q0 109 -51 162t-145 53q-43 0 -86 -19.5t-78 -52t-56.5 -74.5t-21.5 -85v-711h-258z" />
<glyph unicode="o" horiz-adv-x="1273" d="M82 565q0 113 34 225.5t102.5 203.5t171 147.5t237.5 56.5t240.5 -44t177 -124t109.5 -193.5t38 -250.5q0 -133 -36 -246t-106.5 -197t-176 -131t-244.5 -47q-127 0 -227.5 49t-172 132t-109.5 191.5t-38 227.5zM338 582q0 -78 23.5 -145.5t64.5 -118t96.5 -79 t116.5 -28.5t116.5 28.5t96.5 79t64.5 118t23.5 145.5q0 76 -23.5 143.5t-64.5 118.5t-96.5 79.5t-116.5 28.5t-116.5 -28.5t-96.5 -79.5t-64.5 -119t-23.5 -143z" />
<glyph unicode="p" horiz-adv-x="1302" d="M133 -383v1546h252v-82q47 49 127 82t162 33q123 0 223 -48t173 -131t112 -191.5t39 -231.5q0 -150 -42 -266.5t-115 -197.5t-171 -123t-209 -42q-84 0 -159.5 27.5t-139.5 91.5v-467h-252zM381 428q0 -49 23.5 -88t59.5 -66.5t79 -42t82 -14.5q74 0 133 28.5t102 78 t65.5 116t22.5 144.5q0 63 -22.5 126.5t-64.5 113.5t-100.5 81t-129.5 31q-35 0 -78 -16.5t-81 -46t-64.5 -71.5t-26.5 -93v-281z" />
<glyph unicode="q" horiz-adv-x="1304" d="M82 594q0 123 39 231.5t111.5 191.5t174 131t224.5 48q82 0 161.5 -33t127.5 -82v82h251v-1546h-251v467q-63 -63 -139 -91t-163 -28q-111 0 -208 42t-170.5 123t-115.5 197.5t-42 266.5zM354 584q0 -78 23.5 -144.5t65.5 -116t102.5 -78t134.5 -28.5q39 0 82 14.5t79 42 t59.5 66.5t23.5 88v281q0 51 -27 93t-64.5 71.5t-81.5 46t-77 16.5q-72 0 -130.5 -31t-100.5 -81t-65.5 -113.5t-23.5 -126.5z" />
<glyph unicode="r" horiz-adv-x="800" d="M133 0v1163h264v-141q70 100 155 141q68 33 161 33q23 0 47 -2v-274l-37 2h-11q-54 0 -108 -18q-58 -20 -104.5 -56.5t-74.5 -89.5t-28 -121v-637h-264z" />
<glyph unicode="s" horiz-adv-x="1114" d="M72 135l164 187q74 -66 163.5 -93.5t161.5 -27.5q92 0 142.5 27.5t50.5 90.5q0 43 -44 74t-116 49l-203 52q-55 12 -107.5 37.5t-94.5 65.5t-66.5 95.5t-24.5 126.5q0 94 39 165t103.5 118t147.5 70.5t169 23.5q125 0 240.5 -38t212.5 -116l-158 -178q-53 37 -126 67 t-153 30q-88 0 -143 -34t-55 -93q0 -29 23.5 -60t103.5 -51l213 -53q61 -16 118.5 -42t101.5 -66t70.5 -97t26.5 -139q0 -94 -40 -163t-106.5 -113t-152.5 -65.5t-178 -21.5q-135 0 -257 40t-226 132z" />
<glyph unicode="t" horiz-adv-x="864" d="M41 942v221h192v316l261 116v-432h301v-221h-301v-590q0 -82 27.5 -114.5t113.5 -32.5q70 0 135 24l43 -227q-47 -12 -109.5 -25.5t-148.5 -13.5q-53 0 -110.5 11.5t-104.5 43t-77 88t-30 144.5v692h-192z" />
<glyph unicode="u" horiz-adv-x="1210" d="M123 350v813h260v-745q0 -106 49 -152.5t148 -46.5q43 0 85 19.5t76.5 52.5t56 75t21.5 85v712h258v-1163h-258v92q-57 -59 -140 -93t-159 -34q-188 0 -292.5 105.5t-104.5 279.5z" />
<glyph unicode="v" horiz-adv-x="1120" d="M35 1163h274l252 -821l248 821h276l-368 -1163h-316z" />
<glyph unicode="w" horiz-adv-x="1634" d="M35 1163h270l184 -780l183 780h291l182 -780l184 780h270l-321 -1163h-293l-170 764l-168 -764h-291z" />
<glyph unicode="x" horiz-adv-x="1155" d="M25 0l405 612l-364 553h299l215 -323l208 323h297l-362 -547l407 -618h-299l-253 391l-259 -391h-294z" />
<glyph unicode="y" horiz-adv-x="1112" d="M25 1163h274l258 -801l252 801h278l-430 -1310q-23 -72 -65.5 -131.5t-95.5 -90.5q-35 -20 -89.5 -26t-105.5 -6q-49 0 -100 9t-99 25q10 53 20.5 106.5t22.5 106.5q35 -12 70 -20t72 -8q57 0 99 23.5t42 76.5q0 23 -10 57z" />
<glyph unicode="z" horiz-adv-x="1079" d="M82 0v223l553 713h-502v227h844v-219l-557 -717h588v-227h-926z" />
<glyph unicode="{" horiz-adv-x="759" d="M82 700v191q66 4 103.5 26.5t57 58.5t24.5 83t7 102q4 63 2 127t-2 127q0 104 20.5 185t68 136.5t124 84t191.5 28.5v-196q-72 -4 -112 -30t-61.5 -65.5t-26.5 -93t-5 -114.5q0 -55 2 -110.5t2 -111.5q0 -49 -3 -96t-15.5 -90t-39 -80t-73.5 -65q49 -31 77 -75t41 -93 t16 -103.5t3 -105.5q0 -47 -1 -91t-1 -91q0 -61 4 -112.5t23.5 -89.5t59.5 -62.5t110 -36.5v-197q-168 -2 -270.5 90t-118.5 264q-6 72 -9.5 143.5t-5.5 143.5q-2 51 -1 108.5t-17 104.5q-23 59 -68 80.5t-106 25.5z" />
<glyph unicode="|" horiz-adv-x="509" d="M154 -55v1702h202v-1702h-202z" />
<glyph unicode="}" horiz-adv-x="759" d="M82 -63q70 12 109.5 36.5t59 62.5t24 89t4.5 113q0 47 -1.5 91t-1.5 91q0 51 3.5 105.5t16.5 103.5t41 93t77 75q-47 29 -74 65.5t-39 79.5t-15 90t-3 96q0 55 2 110.5t2 111.5q0 61 -5.5 114.5t-27 93t-62 65.5t-110.5 30v196q113 0 190.5 -28.5t124.5 -84t67.5 -136 t20.5 -185.5q0 -63 -2 -126.5t2 -127.5q2 -55 7.5 -102t25 -83t57 -58.5t103.5 -26.5v-191q-59 -4 -105.5 -25.5t-68.5 -80.5q-16 -47 -16.5 -104.5t-2.5 -108.5q-2 -72 -5 -143.5t-9 -143.5q-14 -172 -116.5 -264t-272.5 -90v197z" />
<glyph unicode="~" horiz-adv-x="1456" d="M168 582q53 90 126 138t181 48q63 0 135 -25.5t141.5 -55.5t134 -55.5t113.5 -25.5q35 0 65 15.5t54.5 38t47 51t40.5 53.5l84 -154q-53 -90 -125.5 -138t-181.5 -48q-66 0 -136.5 25.5t-141 55.5t-134 55.5t-112.5 25.5q-35 0 -64.5 -15.5t-55.5 -38t-47.5 -51 t-39.5 -53.5z" />
<glyph unicode="&#xa1;" horiz-adv-x="651" d="M154 -35l79 1178h183l82 -1178h-344zM154 1423q0 37 13 69t36.5 55.5t55.5 36.5t67 13t65.5 -13t54 -36.5t37 -55.5t13.5 -69t-13.5 -68.5t-37 -55t-54.5 -37t-65 -13.5q-35 0 -67 13.5t-55.5 37t-36.5 55t-13 68.5z" />
<glyph unicode="&#xa2;" horiz-adv-x="1241" d="M102 582q0 119 35 224t94.5 185t137 130t166.5 63v166h233v-162q133 -31 222 -106.5t143 -204.5l-222 -99q-16 35 -39.5 69t-54.5 59.5t-70.5 42t-89.5 16.5q-78 0 -132 -41t-90 -100.5t-51 -128t-15 -124.5q0 -59 18.5 -124.5t55 -121t90 -91t122.5 -35.5q43 0 84 14 t77 38.5t62.5 56.5t41.5 69l219 -111q-39 -57 -77 -104t-82 -84t-96.5 -62.5t-115.5 -38.5v-161h-233v164q-90 12 -169 59t-137.5 126t-92.5 184.5t-34 232.5z" />
<glyph unicode="&#xa3;" horiz-adv-x="1337" d="M72 248q133 51 179 153.5t38 247.5h-193v172h160q-59 96 -81.5 169t-22.5 157q0 94 31.5 181t95 152.5t160 105.5t227.5 40q223 0 355 -102.5t167 -282.5l-250 -51q-31 119 -90.5 161t-167.5 42q-61 0 -112.5 -21.5t-88.5 -59.5t-57.5 -89.5t-20.5 -110.5q2 -49 11.5 -86 t25.5 -68q14 -29 29.5 -58.5t34.5 -78.5h397v-172h-358q6 -104 -15.5 -184t-68.5 -170q104 10 172.5 -4.5t120.5 -30.5q27 -8 52 -16t54 -17q59 -16 123 -16q33 0 55.5 5t46.5 9q18 4 41 8.5t56 10.5l47 -244q-43 -10 -77 -17.5t-65.5 -11.5t-64.5 -6t-72 -2 q-98 0 -163.5 12.5t-123.5 30.5q-31 10 -60.5 18.5t-61.5 16.5q-33 8 -70 12t-82 4q-49 0 -88 -5t-74 -13q-25 -6 -48 -13.5t-46 -15.5z" />
<glyph unicode="&#xa4;" horiz-adv-x="1742" d="M51 567l21 146h141q-2 18 -2 37.5v37.5v64h-121l21 145h118q25 135 81.5 251t145.5 201t208.5 134t271.5 49q123 0 228.5 -32.5t189.5 -93t144 -148t91 -193.5l-246 -88q-18 59 -52 115.5t-83 99.5t-112.5 70t-141.5 27q-100 0 -176 -30t-130 -83t-88 -125t-50 -154h451 l-21 -145h-448v-57v-41t2 -41h428l-21 -146h-385q18 -74 52 -139.5t85.5 -114.5t122 -76.5t162.5 -27.5q145 0 248.5 76.5t148.5 216.5l250 -84q-80 -223 -239.5 -339t-411.5 -116q-145 0 -263 47t-206 128t-146.5 191.5t-85.5 237.5h-182z" />
<glyph unicode="&#xa5;" horiz-adv-x="1482" d="M92 1597h291l356 -665h4l357 665h291l-357 -665h232v-193h-334l-53 -98v-63h387v-193h-387v-385h-275v385h-389v193h389v63l-53 98h-336v193h234z" />
<glyph unicode="&#xa6;" horiz-adv-x="444" d="M133 -41v655h178v-655h-178zM133 977v655h178v-655h-178z" />
<glyph unicode="&#xa7;" horiz-adv-x="1056" d="M82 616q0 86 51 149.5t154 125.5q-55 53 -90 111.5t-35 140.5q0 66 23.5 128t69.5 110.5t113.5 78t157.5 29.5q63 0 124 -14.5t111 -51.5t84 -98t44 -156h-184q-12 72 -57.5 117t-127.5 45q-80 0 -127 -47t-47 -104q0 -92 92 -144l320 -172q47 -25 87 -53.5t68.5 -65 t45 -85t16.5 -111.5q0 -16 -9.5 -50t-34 -74t-65.5 -81t-104 -72q59 -53 104 -118.5t45 -161.5q0 -92 -32.5 -161t-87 -115t-126 -69.5t-147.5 -23.5q-109 0 -179.5 36t-112.5 86t-60.5 107.5t-24.5 100.5h197q6 -31 18.5 -61.5t35 -55t58 -40t89.5 -15.5q55 0 90 22.5 t53 52t24.5 60.5t6.5 49q0 70 -40 108t-93 66l-301 166q-49 27 -86 55.5t-62 64.5t-37 82t-12 109zM248 670q0 -63 32.5 -100.5t75.5 -61.5l324 -186q59 35 88 77t29 101q0 33 -12.5 58.5t-32 45t-42 34.5t-42.5 28l-299 163q-35 -12 -58.5 -33.5t-37 -45t-19.5 -45 t-6 -35.5z" />
<glyph unicode="&#xa8;" horiz-adv-x="1261" d="M246 1450q0 55 39 94t94 39t94 -39t39 -94t-39 -94t-94 -39t-94 39t-39 94zM668 1450q0 55 38.5 94t94.5 39q55 0 94 -39t39 -94t-39 -94t-94 -39t-94 39t-39 94z" />
<glyph unicode="&#xa9;" horiz-adv-x="1906" d="M123 797q0 172 65.5 322.5t178 263t264 178t323.5 65.5t322.5 -65.5t263.5 -178t178.5 -263t65.5 -322.5t-65.5 -323.5t-178.5 -264.5t-263.5 -178.5t-322.5 -65.5t-323.5 65.5t-264 178.5t-178 264.5t-65.5 323.5zM180 795q0 -160 60.5 -300.5t166 -246t246 -165.5 t299.5 -60q160 0 301.5 60t247 165.5t165.5 246t60 300.5t-60 301t-165.5 246.5t-247 166t-301.5 60.5t-300 -60.5t-245.5 -166t-166 -247t-60.5 -300.5zM369 799q0 121 46 227.5t124.5 186t185 125.5t227.5 46q82 0 160 -21.5t144.5 -60t119.5 -92t86 -116.5l-233 -136 q-39 72 -112 114t-165 42q-66 0 -123 -24.5t-99 -67.5t-66.5 -100.5t-24.5 -122.5q0 -66 24.5 -123.5t66.5 -99t99.5 -66.5t122.5 -25q90 0 162 44t109 108l231 -139q-37 -61 -89 -113.5t-116.5 -89.5t-139.5 -58.5t-157 -21.5q-121 0 -227.5 46t-185 125t-124.5 185.5 t-46 227.5z" />
<glyph unicode="&#xaa;" horiz-adv-x="987" d="M72 911q0 111 46 178.5t115.5 104.5t148.5 50t146 13q23 0 50.5 -2t44.5 -4l4 33q8 70 -36 106.5t-116 36.5q-74 0 -138.5 -22.5t-131.5 -56.5l-74 165q37 27 84 47.5t97 35t98.5 21.5t89.5 7q102 0 167.5 -27.5t102.5 -75.5t51.5 -113t14.5 -136v-387q0 -41 22 -66 t57 -33l-94 -155q-51 6 -90 28.5t-59 61.5h-10q-47 -51 -114 -68.5t-130 -17.5q-57 0 -118.5 16.5t-112 51t-83 86t-32.5 122.5zM285 932q0 -33 14 -56.5t36.5 -39t51.5 -22.5t57 -7q53 0 101.5 22.5t77.5 67.5l-2 184q-27 2 -52.5 4t-52.5 2q-37 0 -77 -7t-74.5 -25.5 t-57 -48t-22.5 -74.5z" />
<glyph unicode="&#xab;" horiz-adv-x="989" d="M102 481v254l322 291v-207l-227 -211l227 -211v-207zM565 481v254l322 291v-207l-228 -211l228 -211v-207z" />
<glyph unicode="&#xac;" horiz-adv-x="1175" d="M113 633v209h950v-621h-191v412h-759z" />
<glyph unicode="&#xad;" horiz-adv-x="679" d="M61 557v221h496v-221h-496z" />
<glyph unicode="&#xae;" horiz-adv-x="1882" d="M123 795q0 172 64.5 323.5t175 264t260 178t319.5 65.5t318.5 -65.5t259 -178t175 -264t64.5 -323.5t-64.5 -324t-175 -263.5t-259 -177t-318.5 -65.5t-319.5 65.5t-260 177t-175 263.5t-64.5 324zM279 795q0 -139 52 -261t141 -213.5t210 -144.5t258 -53t259 53 t211 144.5t141.5 213.5t52.5 261t-52.5 262t-141.5 214t-211 144t-259 53t-258 -53t-210 -144t-141 -214t-52 -262zM625 340v946h401q68 0 122 -22.5t92 -61.5t59.5 -94t21.5 -119q0 -92 -53.5 -155.5t-145.5 -108.5l219 -387h-186l-217 383h-152v-381h-161zM799 858h237 q57 0 89 42t32 89q-2 47 -39 85t-84 38h-235v-254z" />
<glyph unicode="&#xaf;" horiz-adv-x="722" d="M8 1313v139h709v-139h-709z" />
<glyph unicode="&#xb0;" horiz-adv-x="854" d="M102 1305q0 68 26 126t70 102t103 69.5t127 25.5t126 -25.5t102 -69.5t70 -102t26 -126t-26 -127.5t-70 -103.5t-102 -69.5t-126 -25.5t-127 25.5t-103 69.5t-70 103.5t-26 127.5zM252 1303q0 -72 51 -123.5t123 -51.5q74 0 125 51.5t51 123.5q0 74 -51 125t-125 51 q-72 0 -123 -51.5t-51 -124.5z" />
<glyph unicode="&#xb1;" horiz-adv-x="1124" d="M92 53v211h940v-211h-940zM92 825v230h354v407h234v-407h352v-230h-352v-407h-234v407h-354z" />
<glyph unicode="&#xb2;" horiz-adv-x="1036" d="M72 1260q-4 205 102.5 314t304.5 109q180 0 281.5 -99t101.5 -279q0 -84 -30.5 -160t-84 -142.5t-128 -123t-160.5 -103.5h399l2 -190h-768v198q63 35 157.5 91.5t182.5 126t150.5 148.5t62.5 159q0 72 -44 125t-120 53q-49 0 -85 -19.5t-59.5 -52.5t-33.5 -72.5 t-8 -82.5h-223z" />
<glyph unicode="&#xb3;" horiz-adv-x="1058" d="M72 897l209 39q20 -84 78.5 -132t150.5 -48q78 0 133 40t55 126q0 57 -33.5 85.5t-80.5 39.5q-39 10 -80 11t-82 1v174q70 -4 127 8q49 10 92 39t43 92q0 41 -18.5 66.5t-46 41t-59.5 20.5t-58 5q-78 0 -137.5 -34.5t-83.5 -120.5l-209 24q47 158 155.5 233.5t278.5 75.5 q74 0 143.5 -20.5t123.5 -60t87 -99t33 -135.5q0 -66 -29.5 -126t-113.5 -91q84 -39 119.5 -99t35.5 -130q0 -188 -101.5 -268.5t-299.5 -80.5q-354 0 -432 324z" />
<glyph unicode="&#xb4;" horiz-adv-x="1341" d="M512 1702l221 321h285l-346 -321h-160z" />
<glyph unicode="&#xb5;" horiz-adv-x="1282" d="M31 -422l313 1491h258l-149 -713l-7 -24q-14 -61 20 -96t83 -35q55 0 101 21.5t83 59t61.5 90t36.5 111.5l125 586h254l-225 -1075h-246l15 67q-70 -59 -119 -77.5t-103 -18.5q-23 0 -63.5 13.5t-85.5 54.5l-96 -455h-256z" />
<glyph unicode="&#xb6;" horiz-adv-x="1107" d="M72 989q0 115 34.5 204t96 150.5t146.5 93t186 31.5h532v-133h-115v-1697h-147v1697h-197v-1697h-149v878q-94 6 -166 46t-121 103.5t-74.5 146.5t-25.5 177z" />
<glyph unicode="&#xb7;" horiz-adv-x="579" d="M102 801q0 66 45.5 110.5t110.5 44.5q66 0 112 -44.5t46 -110.5t-46 -111t-112 -45t-111 45t-45 111z" />
<glyph unicode="&#xb8;" horiz-adv-x="1556" d="M559 -260q49 -18 98 -19q18 0 40 7.5t40.5 21.5t30.5 37t12 53q0 63 -25.5 103.5t-60.5 62.5h56q39 0 78.5 -18.5t73.5 -51t55.5 -78t21.5 -98.5q0 -92 -60.5 -135t-150.5 -43q-100 0 -182 56z" />
<glyph unicode="&#xb9;" horiz-adv-x="595" d="M72 1378v144q72 6 114 41q47 39 58 123h198v-1082h-223v774h-147z" />
<glyph unicode="&#xba;" horiz-adv-x="1032" d="M72 1118q0 90 27.5 181.5t82 164t136 117.5t190.5 45q106 0 191 -35t142.5 -99.5t88.5 -154t31 -200.5q0 -106 -29 -197.5t-86.5 -158t-141 -104.5t-196.5 -38q-100 0 -181 40t-137.5 105.5t-87 152.5t-30.5 181zM276 1133q0 -61 18.5 -115.5t51.5 -94.5t77 -63.5 t93 -23.5t93 23.5t77 63.5t52.5 94.5t19.5 115.5t-19.5 115.5t-52.5 94t-77 63.5t-93 24t-93 -24t-77 -63.5t-51.5 -94t-18.5 -115.5z" />
<glyph unicode="&#xbb;" horiz-adv-x="989" d="M102 190v207l228 211l-228 211v207l322 -291v-254zM565 190v207l228 211l-228 211v207l322 -291v-254z" />
<glyph unicode="&#xbc;" horiz-adv-x="1415" d="M72 1378v144q72 6 114 41q47 39 58 123h198v-1082h-223v774h-147zM356 113v219l533 665h295v-673h159v-211h-159v-183h-223v183h-605zM602 324h359v448z" />
<glyph unicode="&#xbd;" horiz-adv-x="1466" d="M72 1378v144q35 4 63.5 11t50.5 28q47 39 58 122h198v-1079h-223v774h-147zM563 604q-4 203 103.5 313.5t304.5 110.5q180 0 281.5 -99.5t101.5 -279.5q0 -84 -31 -159.5t-84 -142t-128 -123t-161 -103.5h402v-191h-768v199q43 23 100 56.5t118.5 73.5t122 87t107.5 97.5 t77 103.5t30 106q0 72 -44 125t-122 53q-49 0 -85 -19t-59.5 -52t-34 -73t-8.5 -83h-223z" />
<glyph unicode="&#xbe;" horiz-adv-x="1748" d="M72 897l209 39q20 -84 78.5 -132t150.5 -48q78 0 133 40t55 126q0 57 -33.5 85.5t-80.5 39.5q-39 10 -80 11t-82 1v174q70 -4 127 8q49 10 92 39t43 92q0 41 -18.5 66.5t-46 41t-59.5 20.5t-58 5q-78 0 -137.5 -34.5t-83.5 -120.5l-209 24q47 158 155.5 233.5t278.5 75.5 q74 0 143.5 -20.5t123.5 -60t87 -99t33 -135.5q0 -66 -29.5 -126t-113.5 -91q84 -39 119.5 -99t35.5 -130q0 -188 -101.5 -268.5t-299.5 -80.5q-354 0 -432 324zM690 113v219l533 665h295v-673h159v-211h-159v-183h-224v183h-604zM936 324h358v448z" />
<glyph unicode="&#xbf;" horiz-adv-x="1251" d="M92 514q0 92 24.5 166t62.5 130t82 96t85 63q78 45 108.5 89t32.5 113h299q2 -68 -17 -133t-54 -121.5t-79 -98.5t-89 -60q-84 -35 -125 -98.5t-41 -147.5q0 -47 18.5 -93t51 -82t80 -58.5t106.5 -22.5q55 0 100 20.5t79 54.5t54.5 80t22.5 97h276q-2 -123 -43 -223.5 t-113.5 -171t-171 -109.5t-214.5 -39q-121 0 -219.5 46t-169 123t-108.5 176.5t-38 203.5zM465 1452q0 37 13.5 68.5t36 55t54 37t66.5 13.5t66.5 -13.5t55 -37t37 -55t13.5 -68.5t-13.5 -68.5t-37 -55t-55 -37t-66.5 -13.5t-66.5 13.5t-54 37t-36 55t-13.5 68.5z" />
<glyph unicode="&#xc0;" d="M41 0l514 1597h338l520 -1597h-274l-95 299h-632l-97 -299h-274zM369 2023h284l221 -321h-159zM485 532h482l-242 773z" />
<glyph unicode="&#xc1;" d="M41 0l514 1597h338l520 -1597h-274l-95 299h-632l-97 -299h-274zM485 532h482l-242 773zM502 1700l221 321h285l-346 -321h-160z" />
<glyph unicode="&#xc2;" d="M41 0l514 1597h338l520 -1597h-274l-95 299h-632l-97 -299h-274zM352 1702l260 321h230l260 -321h-203l-172 213l-172 -213h-203zM485 532h482l-242 773z" />
<glyph unicode="&#xc3;" d="M41 0l514 1597h338l520 -1597h-274l-95 299h-632l-97 -299h-274zM373 1700q10 98 64.5 166.5t146.5 68.5q41 0 74.5 -13t68.5 -30q33 -16 66.5 -30.5t70.5 -14.5q82 0 105 84h104q-8 -111 -61.5 -171t-147.5 -60q-35 0 -68.5 13t-68.5 30q-35 16 -72 31.5t-75 15.5 q-41 0 -68 -24.5t-37 -65.5h-102zM485 532h482l-242 773z" />
<glyph unicode="&#xc4;" d="M41 0l514 1597h338l520 -1597h-274l-95 299h-632l-97 -299h-274zM389 1835q0 55 39 94t94 39t94 -39t39 -94t-38.5 -94t-94.5 -39q-55 0 -94 39t-39 94zM485 532h482l-242 773zM811 1835q0 55 39 94t94 39t94 -39t39 -94t-39 -94t-94 -39t-94 39t-39 94z" />
<glyph unicode="&#xc5;" d="M41 0l514 1597h338l520 -1597h-274l-95 299h-632l-97 -299h-274zM485 532h482l-242 773zM489 1937q0 49 18.5 91.5t50.5 74t74 50t91 18.5t91 -18.5t75 -50t51 -74t18 -91.5t-18 -92t-51 -74.5t-75 -50t-91 -18.5t-91 18.5t-74 50t-50.5 74.5t-18.5 92zM610 1935 q0 -47 33 -79.5t80 -32.5t80 32.5t33 79.5t-33 81t-80 34t-80 -34t-33 -81z" />
<glyph unicode="&#xc6;" horiz-adv-x="2267" d="M41 0l999 1597h1082v-247h-721v-424h653v-240h-653v-440l774 2v-248h-1042l2 295h-637l-179 -295h-278zM633 522h502v832z" />
<glyph unicode="&#xc7;" horiz-adv-x="1595" d="M102 788q0 170 46.5 324t137.5 269.5t226 183t315 67.5q123 0 228.5 -32.5t189.5 -93t144.5 -148t93.5 -193.5l-248 -88q-18 59 -52 115.5t-82 99.5t-111.5 70t-141.5 27q-129 0 -218 -49.5t-144.5 -131.5t-79 -189.5t-23.5 -223.5q0 -109 22.5 -213.5t74.5 -187.5 t138.5 -134t210.5 -51q147 0 250 76.5t148 216.5l252 -84q-72 -197 -204 -309.5t-333 -139.5q47 -31 82 -85t35 -124q0 -92 -60.5 -135t-150.5 -43q-100 0 -182 56l-27 102q49 -18 98 -19q18 0 40 7.5t40.5 21.5t30.5 37t12 53q0 39 -11 70t-28 53q-176 0 -310 68.5 t-224 182.5t-137.5 262.5t-47.5 311.5z" />
<glyph unicode="&#xc8;" horiz-adv-x="1320" d="M184 0v1597h998v-249h-723v-418h661v-246h-661v-438q193 -6 385 -3t385 3v-246h-1045zM354 2023h285l221 -321h-160z" />
<glyph unicode="&#xc9;" horiz-adv-x="1320" d="M184 0v1597h998v-249h-723v-418h661v-246h-661v-438q193 -6 385 -3t385 3v-246h-1045zM502 1702l221 321h285l-346 -321h-160z" />
<glyph unicode="&#xca;" horiz-adv-x="1320" d="M184 0v1597h998v-249h-723v-418h661v-246h-661v-438q193 -6 385 -3t385 3v-246h-1045zM328 1702l260 321h229l260 -321h-203l-172 213l-172 -213h-202z" />
<glyph unicode="&#xcb;" horiz-adv-x="1320" d="M184 0v1597h998v-249h-723v-418h661v-246h-661v-438q193 -6 385 -3t385 3v-246h-1045zM365 1835q0 55 38.5 94t94.5 39q55 0 94 -39t39 -94t-39 -94t-94 -39t-94 39t-39 94zM786 1835q0 55 39 94t95 39q55 0 94 -39t39 -94t-39 -94t-94 -39t-94.5 39t-39.5 94z" />
<glyph unicode="&#xcc;" horiz-adv-x="665" d="M4 2025h285l219 -321h-160zM195 0v1599h276v-1599h-276z" />
<glyph unicode="&#xcd;" horiz-adv-x="665" d="M158 1702l221 321h285l-347 -321h-159zM195 0v1597h276v-1597h-276z" />
<glyph unicode="&#xce;" horiz-adv-x="665" d="M-43 1702l258 321h231l261 -321h-203l-172 213l-172 -213h-203zM195 0v1597h276v-1597h-276z" />
<glyph unicode="&#xcf;" horiz-adv-x="665" d="M-10 1835q0 55 39 94t94 39t94 -39t39 -94t-39 -94t-94 -39t-94 39t-39 94zM195 0v1597h276v-1597h-276zM412 1835q0 55 38.5 94t94.5 39q55 0 94 -39t39 -94t-39 -94t-94 -39t-94 39t-39 94z" />
<glyph unicode="&#xd0;" horiz-adv-x="1574" d="M92 696v211h86v690h594q186 0 320.5 -70.5t221.5 -182t128 -252t41 -279.5q0 -166 -44 -314.5t-133 -259t-223.5 -175t-312.5 -64.5h-586l-6 696h-86zM453 246h329q113 0 194 51t133 132t75.5 181.5t23.5 198.5q0 88 -25.5 184.5t-76.5 176t-129 131t-180 51.5h-338 l-6 -445h278v-211h-278v-450z" />
<glyph unicode="&#xd1;" horiz-adv-x="1716" d="M184 0v1597h308l765 -1146v1146h275v-1597h-307l-766 1145v-1145h-275zM483 1702q10 98 64.5 166.5t146.5 68.5q41 0 75 -13t69 -30q33 -16 66.5 -30.5t70.5 -14.5q82 0 104 84h105q-8 -111 -61.5 -171t-147.5 -60q-35 0 -69 13.5t-68 29.5q-35 16 -72 31.5t-76 15.5 q-41 0 -67.5 -24.5t-36.5 -65.5h-103z" />
<glyph unicode="&#xd2;" horiz-adv-x="1673" d="M102 788q0 184 45.5 339t135.5 267.5t226 175t320 62.5q190 0 329.5 -63.5t232 -176t136.5 -267t44 -334.5q0 -174 -47 -326t-139.5 -264.5t-231.5 -178t-324 -65.5q-174 0 -309 61.5t-228 172t-141.5 263t-48.5 334.5zM373 803q0 -121 24.5 -228.5t78.5 -189.5 t141.5 -129t213.5 -47q137 0 226.5 50t141.5 133t73.5 189.5t21.5 219.5q0 119 -23.5 225.5t-78.5 187t-144.5 128t-218.5 47.5q-125 0 -212 -49.5t-141 -130.5t-78.5 -187.5t-24.5 -218.5zM457 2023h284l222 -321h-160z" />
<glyph unicode="&#xd3;" horiz-adv-x="1673" d="M102 788q0 184 45.5 339t135.5 267.5t226 175t320 62.5q190 0 329.5 -63.5t232 -176t136.5 -267t44 -334.5q0 -174 -47 -326t-139.5 -264.5t-231.5 -178t-324 -65.5q-174 0 -309 61.5t-228 172t-141.5 263t-48.5 334.5zM373 803q0 -121 24.5 -228.5t78.5 -189.5 t141.5 -129t213.5 -47q137 0 226.5 50t141.5 133t73.5 189.5t21.5 219.5q0 119 -23.5 225.5t-78.5 187t-144.5 128t-218.5 47.5q-125 0 -212 -49.5t-141 -130.5t-78.5 -187.5t-24.5 -218.5zM645 1702l221 321h285l-346 -321h-160z" />
<glyph unicode="&#xd4;" horiz-adv-x="1673" d="M102 788q0 184 45.5 339t135.5 267.5t226 175t320 62.5q190 0 329.5 -63.5t232 -176t136.5 -267t44 -334.5q0 -174 -47 -326t-139.5 -264.5t-231.5 -178t-324 -65.5q-174 0 -309 61.5t-228 172t-141.5 263t-48.5 334.5zM373 803q0 -121 24.5 -228.5t78.5 -189.5 t141.5 -129t213.5 -47q137 0 226.5 50t141.5 133t73.5 189.5t21.5 219.5q0 119 -23.5 225.5t-78.5 187t-144.5 128t-218.5 47.5q-125 0 -212 -49.5t-141 -130.5t-78.5 -187.5t-24.5 -218.5zM451 1702l260 321h229l260 -321h-203l-172 213l-172 -213h-202z" />
<glyph unicode="&#xd5;" horiz-adv-x="1673" d="M102 788q0 184 45.5 339t135.5 267.5t226 175t320 62.5q190 0 329.5 -63.5t232 -176t136.5 -267t44 -334.5q0 -174 -47 -326t-139.5 -264.5t-231.5 -178t-324 -65.5q-174 0 -309 61.5t-228 172t-141.5 263t-48.5 334.5zM373 803q0 -121 24.5 -228.5t78.5 -189.5 t141.5 -129t213.5 -47q137 0 226.5 50t141.5 133t73.5 189.5t21.5 219.5q0 119 -23.5 225.5t-78.5 187t-144.5 128t-218.5 47.5q-125 0 -212 -49.5t-141 -130.5t-78.5 -187.5t-24.5 -218.5zM483 1702q10 98 64.5 166.5t146.5 68.5q41 0 75 -13t69 -30q33 -16 66.5 -30.5 t70.5 -14.5q82 0 104 84h105q-8 -111 -61.5 -171t-147.5 -60q-35 0 -69 13.5t-68 29.5q-35 16 -72 31.5t-76 15.5q-41 0 -67.5 -24.5t-36.5 -65.5h-103z" />
<glyph unicode="&#xd6;" horiz-adv-x="1673" d="M102 788q0 184 45.5 339t135.5 267.5t226 175t320 62.5q190 0 329.5 -63.5t232 -176t136.5 -267t44 -334.5q0 -174 -47 -326t-139.5 -264.5t-231.5 -178t-324 -65.5q-174 0 -309 61.5t-228 172t-141.5 263t-48.5 334.5zM373 803q0 -121 24.5 -228.5t78.5 -189.5 t141.5 -129t213.5 -47q137 0 226.5 50t141.5 133t73.5 189.5t21.5 219.5q0 119 -23.5 225.5t-78.5 187t-144.5 128t-218.5 47.5q-125 0 -212 -49.5t-141 -130.5t-78.5 -187.5t-24.5 -218.5zM483 1835q0 55 39 94t94 39t94.5 -39t39.5 -94t-39 -94t-95 -39q-55 0 -94 39 t-39 94zM905 1835q0 55 39 94t94 39t94 -39t39 -94t-38.5 -94t-94.5 -39q-55 0 -94 39t-39 94z" />
<glyph unicode="&#xd7;" horiz-adv-x="1116" d="M82 174l311 348l-311 350l162 164l313 -350l311 350l166 -164l-311 -350l311 -348l-164 -166l-313 348l-313 -348z" />
<glyph unicode="&#xd8;" horiz-adv-x="1662" d="M102 797q0 197 57.5 351.5t157 262t231.5 163.5t283 56q35 0 72 -3t90 -13l45 158l131 -48l-45 -155q199 -100 317 -293.5t120 -480.5q0 -188 -57.5 -342t-157 -263.5t-232.5 -169t-283 -59.5q-33 0 -66.5 3t-86.5 13l-47 -167l-129 47l47 163q-205 104 -326 303 t-121 474zM377 795q0 -170 60.5 -297t183.5 -219l301 1077q-41 4 -58.5 6t-29.5 2q-92 0 -175.5 -38t-144.5 -109.5t-98 -178t-39 -243.5zM750 229q41 -4 57 -5t27 -1q94 0 173.5 40t137 115t89.5 180.5t32 234.5q0 166 -51.5 289.5t-163.5 222.5z" />
<glyph unicode="&#xd9;" horiz-adv-x="1597" d="M174 549v1048h287v-1058q0 -66 29.5 -124.5t77.5 -102.5t109.5 -69.5t127.5 -25.5q57 0 117.5 25.5t109.5 69.5t81 102.5t32 124.5q-2 248 -2 460v598h280v-1046q0 -133 -51 -241.5t-137 -185.5t-197.5 -119t-232.5 -42q-123 0 -236.5 43t-201.5 120t-140.5 184.5 t-52.5 238.5zM457 2023h284l222 -321h-160z" />
<glyph unicode="&#xda;" horiz-adv-x="1597" d="M174 549v1048h287v-1058q0 -66 29.5 -124.5t77.5 -102.5t109.5 -69.5t127.5 -25.5q57 0 117.5 25.5t109.5 69.5t81 102.5t32 124.5q-2 248 -2 460v598h280v-1046q0 -133 -51 -241.5t-137 -185.5t-197.5 -119t-232.5 -42q-123 0 -236.5 43t-201.5 120t-140.5 184.5 t-52.5 238.5zM584 1702l221 321h285l-347 -321h-159z" />
<glyph unicode="&#xdb;" horiz-adv-x="1597" d="M174 549v1048h287v-1058q0 -66 29.5 -124.5t77.5 -102.5t109.5 -69.5t127.5 -25.5q57 0 117.5 25.5t109.5 69.5t81 102.5t32 124.5q-2 248 -2 460v598h280v-1046q0 -133 -51 -241.5t-137 -185.5t-197.5 -119t-232.5 -42q-123 0 -236.5 43t-201.5 120t-140.5 184.5 t-52.5 238.5zM426 1702l260 321h229l261 -321h-203l-172 213l-172 -213h-203z" />
<glyph unicode="&#xdc;" horiz-adv-x="1597" d="M174 549v1048h287v-1058q0 -66 29.5 -124.5t77.5 -102.5t109.5 -69.5t127.5 -25.5q57 0 117.5 25.5t109.5 69.5t81 102.5t32 124.5q-2 248 -2 460v598h280v-1046q0 -133 -51 -241.5t-137 -185.5t-197.5 -119t-232.5 -42q-123 0 -236.5 43t-201.5 120t-140.5 184.5 t-52.5 238.5zM451 1835q0 55 38.5 94t94.5 39q55 0 94 -39t39 -94t-39 -94t-94 -39t-94 39t-39 94zM872 1835q0 55 39 94t95 39q55 0 94 -39t39 -94t-39 -94t-94 -39t-94.5 39t-39.5 94z" />
<glyph unicode="&#xdd;" horiz-adv-x="1400" d="M51 1597h291l358 -669l359 669h291l-512 -956v-641h-275v641zM502 1704l221 321h285l-346 -321h-160z" />
<glyph unicode="&#xde;" horiz-adv-x="1310" d="M143 0v1597h273v-258h356q117 0 205 -46t146.5 -118.5t87 -164t28.5 -181.5t-34 -180t-95 -162.5t-147 -117.5t-191 -45h-354v-324h-275zM418 569h309q51 0 96 22.5t79 58.5t54.5 82t20.5 95q0 51 -19.5 98.5t-53.5 84.5t-79 58.5t-98 21.5h-309v-521z" />
<glyph unicode="&#xdf;" horiz-adv-x="1265" d="M123 0v1100q0 242 126 384t374 142q96 0 183 -33.5t153.5 -94t105.5 -143.5t39 -184q0 -47 -14.5 -93t-39 -86t-58.5 -72.5t-72 -53.5q51 -16 99 -52t85 -84t58.5 -108t21.5 -126q0 -111 -35 -202t-98.5 -156.5t-154.5 -101.5t-202 -36h-129v250q66 -2 125.5 8t103.5 38 t70.5 78t26.5 128q0 72 -28.5 119t-75 73.5t-104.5 35.5t-118 7v189q55 -2 103.5 8t85.5 35.5t57 68.5t20 109q0 92 -60 154.5t-155 62.5q-49 0 -89 -18.5t-68.5 -50t-44 -74.5t-15.5 -91l-4 -1130h-272z" />
<glyph unicode="&#xe0;" horiz-adv-x="1198" d="M82 319q0 86 26.5 151t71.5 112t103.5 78.5t122 50t127 25.5t118.5 7q31 0 61.5 -2t59.5 -6l4 41q8 86 -46 133t-144 47q-92 0 -171 -28.5t-165 -71.5l-94 207q45 33 104 58.5t121.5 44t124 27.5t110.5 9q129 0 211 -33.5t129.5 -94t64.5 -140.5t17 -172v-486 q0 -53 27 -82.5t72 -39.5l-119 -195q-63 8 -113.5 41t-79.5 80q-53 -47 -133 -81t-194 -34q-84 0 -160 22.5t-132 66.5t-90 110.5t-34 154.5zM264 1628h285l221 -323h-162zM348 338q0 -41 17.5 -69.5t46 -49t64.5 -30t71 -9.5q66 0 126 30t97 85v229q-35 6 -67.5 7t-65.5 1 q-45 0 -95 -9t-93 -31.5t-72 -60.5t-29 -93z" />
<glyph unicode="&#xe1;" horiz-adv-x="1198" d="M82 319q0 86 26.5 151t71.5 112t103.5 78.5t122 50t127 25.5t118.5 7q31 0 61.5 -2t59.5 -6l4 41q8 86 -46 133t-144 47q-92 0 -171 -28.5t-165 -71.5l-94 207q45 33 104 58.5t121.5 44t124 27.5t110.5 9q129 0 211 -33.5t129.5 -94t64.5 -140.5t17 -172v-486 q0 -53 27 -82.5t72 -39.5l-119 -195q-63 8 -113.5 41t-79.5 80q-53 -47 -133 -81t-194 -34q-84 0 -160 22.5t-132 66.5t-90 110.5t-34 154.5zM348 338q0 -41 17.5 -69.5t46 -49t64.5 -30t71 -9.5q66 0 126 30t97 85v229q-35 6 -67.5 7t-65.5 1q-45 0 -95 -10t-93 -32.5 t-72 -59.5t-29 -92zM416 1305l219 321h285l-345 -321h-159z" />
<glyph unicode="&#xe2;" horiz-adv-x="1198" d="M82 319q0 86 26.5 151t71.5 112t103.5 78.5t122 50t127 25.5t118.5 7q31 0 61.5 -2t59.5 -6l4 41q8 86 -46 133t-144 47q-92 0 -171 -28.5t-165 -71.5l-94 207q45 33 104 58.5t121.5 44t124 27.5t110.5 9q129 0 211 -33.5t129.5 -94t64.5 -140.5t17 -172v-486 q0 -53 27 -82.5t72 -39.5l-119 -195q-63 8 -113.5 41t-79.5 80q-53 -47 -133 -81t-194 -34q-84 0 -160 22.5t-132 66.5t-90 110.5t-34 154.5zM227 1305l260 321h232l260 -321h-203l-172 213l-172 -213h-205zM348 338q0 -41 17.5 -69.5t46 -49t64.5 -30t71 -9.5q66 0 126 30 t97 85v229q-35 6 -67.5 7t-65.5 1q-45 0 -95 -9t-93 -32.5t-72 -60.5t-29 -92z" />
<glyph unicode="&#xe3;" horiz-adv-x="1198" d="M82 319q0 86 26.5 151t71.5 112t103.5 78.5t122 50t127 25.5t118.5 7q31 0 61.5 -2t59.5 -6l4 41q8 86 -46 133t-144 47q-92 0 -171 -28.5t-165 -71.5l-94 207q45 33 104 58.5t121.5 44t124 27.5t110.5 9q129 0 211 -33.5t129.5 -94t64.5 -140.5t17 -172v-486 q0 -53 27 -82.5t72 -39.5l-119 -195q-63 8 -113.5 41t-79.5 80q-53 -47 -133 -81t-194 -34q-84 0 -160 22.5t-132 66.5t-90 110.5t-34 154.5zM236 1305q10 98 64 166.5t146 68.5q41 0 75 -13.5t69 -29.5q33 -16 66.5 -30.5t70.5 -14.5q82 0 104 84h105q-8 -111 -61.5 -171 t-147.5 -60q-35 0 -68.5 13t-68.5 30q-35 16 -72 31.5t-76 15.5q-41 0 -67.5 -24.5t-36.5 -65.5h-102zM348 338q0 -41 17.5 -69.5t46 -49t64.5 -30t71 -9.5q66 0 126 30t97 85v229q-35 6 -67.5 7t-65.5 1q-45 0 -95 -10t-93 -33.5t-72 -60.5t-29 -90z" />
<glyph unicode="&#xe4;" horiz-adv-x="1198" d="M82 319q0 86 26.5 151t71.5 112t103.5 78.5t122 50t127 25.5t118.5 7q31 0 61.5 -2t59.5 -6l4 41q8 86 -46 133t-144 47q-92 0 -171 -28.5t-165 -71.5l-94 207q45 33 104 58.5t121.5 44t124 27.5t110.5 9q129 0 211 -33.5t129.5 -94t64.5 -140.5t17 -172v-486 q0 -53 27 -82.5t72 -39.5l-119 -195q-63 8 -113.5 41t-79.5 80q-53 -47 -133 -81t-194 -34q-84 0 -160 22.5t-132 66.5t-90 110.5t-34 154.5zM260 1436q0 55 39 94t94 39t94 -39t39 -94t-38.5 -94t-94.5 -39q-55 0 -94 38.5t-39 94.5zM348 338q0 -41 17.5 -69.5t46 -49 t64.5 -30t71 -9.5q66 0 126 30t97 85v229q-35 6 -67.5 7t-65.5 1q-45 0 -95 -9t-93 -31.5t-72 -60.5t-29 -93zM682 1436q0 55 39 94t94 39t94 -39t39 -94t-39 -94t-94 -39t-94 38.5t-39 94.5z" />
<glyph unicode="&#xe5;" horiz-adv-x="1198" d="M82 319q0 86 26.5 151t71.5 112t103.5 78.5t122 50t127 25.5t118.5 7q31 0 61.5 -2t59.5 -6l4 41q8 86 -46 133t-144 47q-92 0 -171 -28.5t-165 -71.5l-94 207q45 33 104 58.5t121.5 44t124 27.5t110.5 9q129 0 211 -33.5t129.5 -94t64.5 -140.5t17 -172v-486 q0 -53 27 -82.5t72 -39.5l-119 -195q-63 8 -113.5 41t-79.5 80q-53 -47 -133 -81t-194 -34q-84 0 -160 22.5t-132 66.5t-90 110.5t-34 154.5zM348 338q0 -41 17.5 -69.5t46 -49t64.5 -30t71 -9.5q66 0 126 30t97 85v229q-35 6 -67.5 7t-65.5 1q-45 0 -95 -10t-93 -32.5 t-72 -59.5t-29 -92zM365 1530q0 49 18 91t50 75t75 51t92 18t91 -18t74 -51t50.5 -75t18.5 -91t-18.5 -91t-50.5 -74t-74 -50.5t-91 -18.5t-92 18.5t-75 50.5t-50 74t-18 91zM485 1530q0 -47 33 -80t80 -33t81 33t34 80t-34 79.5t-81 32.5t-80 -32.5t-33 -79.5z" />
<glyph unicode="&#xe6;" horiz-adv-x="1839" d="M61 324q0 127 62.5 208.5t161 127t221.5 57.5t244 0l8 84q0 45 -17.5 74.5t-45 48t-60.5 25.5t-66 7q-96 0 -177 -27.5t-167 -78.5l-94 213q100 63 206.5 98t217.5 35q47 0 97 -3t99.5 -14.5t95.5 -34t89 -61.5q76 66 153.5 89.5t155.5 23.5q131 0 229.5 -51t162 -137 t93 -201t25.5 -242l-2 -59h-770q16 -156 104.5 -226.5t204.5 -70.5q59 0 122 23.5t116 70.5l170 -160q-86 -96 -186.5 -137t-223.5 -41q-117 0 -223 38t-203 155q-33 -59 -74.5 -96t-88 -58.5t-96.5 -30t-101 -8.5q-80 0 -160 21.5t-142.5 65.5t-101.5 111.5t-39 160.5z M354 332q0 -47 17.5 -76t45 -45t61.5 -22.5t65 -6.5q84 0 130 20.5t66 67.5q10 23 12.5 47.5t4.5 53.5q0 27 -1 60.5t-1 90.5q-45 6 -76 8t-60 2q-41 0 -87 -8t-85.5 -30.5t-65.5 -61.5t-26 -100zM987 707h514q-20 123 -92 194.5t-168 71.5q-92 0 -164.5 -72t-89.5 -194z " />
<glyph unicode="&#xe7;" horiz-adv-x="1193" d="M82 580q0 117 34 227.5t101.5 197.5t171 139t242.5 52q168 0 288.5 -82t192.5 -229l-223 -109q-41 82 -106.5 133.5t-161.5 51.5q-74 0 -125.5 -37t-84 -93.5t-47 -124t-14.5 -131.5q0 -63 16.5 -130.5t50.5 -123t86 -90t124 -34.5q90 0 160.5 53t105.5 131l217 -109 q-66 -119 -164 -201.5t-231 -101.5q47 -33 80.5 -87t33.5 -122q0 -92 -60 -135t-151 -43q-100 0 -182 56l-26 102q49 -18 98 -19q18 0 39.5 7.5t40 21.5t31 37t12.5 53q0 41 -11.5 72t-27.5 53q-125 8 -220.5 59.5t-160 133.5t-97 190.5t-32.5 231.5z" />
<glyph unicode="&#xe8;" horiz-adv-x="1230" d="M82 586q0 129 35 239.5t104.5 192.5t173 129t240.5 47q135 0 234.5 -51t164 -140.5t93 -209t22.5 -258.5l-2 -48h-787q12 -133 88 -199.5t207 -66.5q76 0 141.5 26.5t112.5 67.5l178 -176q-92 -76 -200.5 -125t-231.5 -49q-139 0 -245.5 48t-179 132t-110.5 197t-38 244z M291 1628h284l222 -323h-162zM356 688h527q2 59 -15.5 109.5t-53.5 86.5t-85 56.5t-108 20.5t-108.5 -23t-84.5 -60.5t-53.5 -87t-18.5 -102.5z" />
<glyph unicode="&#xe9;" horiz-adv-x="1230" d="M82 586q0 129 35 239.5t104.5 192.5t173 129t240.5 47q135 0 234.5 -51t164 -140.5t93 -209t22.5 -258.5l-2 -48h-787q12 -133 88 -199.5t207 -66.5q76 0 141.5 26.5t112.5 67.5l178 -176q-92 -76 -200.5 -125t-231.5 -49q-139 0 -245.5 48t-179 132t-110.5 197t-38 244z M356 688h527q2 59 -15.5 109.5t-53.5 86.5t-85 56.5t-108 20.5t-108.5 -23t-84.5 -60.5t-53.5 -87t-18.5 -102.5zM457 1305l219 321h285l-345 -321h-159z" />
<glyph unicode="&#xea;" horiz-adv-x="1230" d="M82 586q0 129 35 239.5t104.5 192.5t173 129t240.5 47q135 0 234.5 -51t164 -140.5t93 -209t22.5 -258.5l-2 -48h-787q12 -133 88 -199.5t207 -66.5q76 0 141.5 26.5t112.5 67.5l178 -176q-92 -76 -200.5 -125t-231.5 -49q-139 0 -245.5 48t-179 132t-110.5 197t-38 244z M254 1305l260 321h231l261 -321h-203l-172 213l-172 -213h-205zM356 688h527q2 59 -15.5 109.5t-53.5 86.5t-85 56.5t-108 20.5t-108.5 -23t-84.5 -60.5t-53.5 -87t-18.5 -102.5z" />
<glyph unicode="&#xeb;" horiz-adv-x="1230" d="M82 586q0 129 35 239.5t104.5 192.5t173 129t240.5 47q135 0 234.5 -51t164 -140.5t93 -209t22.5 -258.5l-2 -48h-787q12 -133 88 -199.5t207 -66.5q76 0 141.5 26.5t112.5 67.5l178 -176q-92 -76 -200.5 -125t-231.5 -49q-139 0 -245.5 48t-179 132t-110.5 197t-38 244z M285 1436q0 55 38.5 94t94.5 39q55 0 94 -39t39 -94t-39 -94t-94 -39t-94 38.5t-39 94.5zM356 688h527q2 59 -15.5 109.5t-53.5 86.5t-85 56.5t-108 20.5t-108.5 -23t-84.5 -60.5t-53.5 -87t-18.5 -102.5zM707 1436q0 55 38.5 94t94.5 39q55 0 94 -39t39 -94t-39 -94 t-94 -39t-94 38.5t-39 94.5z" />
<glyph unicode="&#xec;" horiz-adv-x="604" d="M-43 1628h285l221 -323h-162zM158 0v1163h262v-1163h-262z" />
<glyph unicode="&#xed;" horiz-adv-x="579" d="M129 1307l219 321h285l-344 -321h-160zM158 0v1163h262v-1163h-262z" />
<glyph unicode="&#xee;" horiz-adv-x="579" d="M-88 1305l260 321h231l259 -321h-203l-172 213l-172 -213h-203zM158 0v1163h262v-1163h-262z" />
<glyph unicode="&#xef;" horiz-adv-x="579" d="M-55 1438q0 55 39 94t94 39t94 -39t39 -94t-39 -94t-94 -39t-94 38.5t-39 94.5zM158 0v1163h262v-1163h-262zM367 1438q0 55 38.5 94t94.5 39q55 0 94 -39t39 -94t-39 -94t-94 -39t-94 38.5t-39 94.5z" />
<glyph unicode="&#xf0;" horiz-adv-x="1196" d="M113 555q0 104 35.5 213t105.5 195t173 135t239 32l-131 177h-306l-73 135h276l-110 155h258l100 -159h285l79 -127h-276q51 -78 84 -124t59 -87q39 -59 76 -123t64.5 -132.5t45 -140t17.5 -145.5q0 -113 -33.5 -218t-97 -187t-154 -131.5t-202.5 -49.5q-123 0 -218.5 44 t-162 123t-100 185.5t-33.5 229.5zM356 561q0 -72 19.5 -137.5t54.5 -114.5t82 -78.5t104 -29.5t104.5 29.5t82.5 78.5t54.5 114.5t19.5 137.5q0 70 -19.5 135.5t-54.5 114.5t-82 79t-105 30q-57 0 -104 -30t-82 -79t-54.5 -114.5t-19.5 -135.5z" />
<glyph unicode="&#xf1;" horiz-adv-x="1226" d="M133 0v1163h258v-94q59 59 134 93t167 34q98 0 174 -29.5t126 -82t76 -124t26 -155.5v-805h-265v743q0 98 -51 148.5t-145 50.5q-43 0 -86 -19.5t-78 -52t-56.5 -74.5t-21.5 -85v-711h-258zM268 1305q10 98 64.5 166.5t146.5 68.5q41 0 75 -13.5t69 -29.5 q33 -16 66.5 -30.5t70.5 -14.5q82 0 104 84h105q-8 -111 -61.5 -171t-147.5 -60q-35 0 -69 14t-68 31q-35 16 -72 30.5t-76 14.5q-41 0 -67.5 -24.5t-36.5 -65.5h-103z" />
<glyph unicode="&#xf2;" horiz-adv-x="1273" d="M82 565q0 113 34 225.5t102.5 203.5t171 147.5t237.5 56.5t240.5 -44t177 -124t109.5 -193.5t38 -250.5q0 -133 -36 -246t-106.5 -197t-176 -131t-244.5 -47q-127 0 -227.5 49t-172 132t-109.5 191.5t-38 227.5zM289 1628h284l222 -323h-162zM338 582q0 -78 23.5 -145.5 t64.5 -118t96.5 -79t116.5 -28.5t116.5 28.5t96.5 79t64.5 118t23.5 145.5q0 76 -23.5 143.5t-64.5 118.5t-96.5 79.5t-116.5 28.5t-116.5 -28.5t-96.5 -79.5t-64.5 -119t-23.5 -143z" />
<glyph unicode="&#xf3;" horiz-adv-x="1273" d="M82 565q0 113 34 225.5t102.5 203.5t171 147.5t237.5 56.5t240.5 -44t177 -124t109.5 -193.5t38 -250.5q0 -133 -36 -246t-106.5 -197t-176 -131t-244.5 -47q-127 0 -227.5 49t-172 132t-109.5 191.5t-38 227.5zM338 582q0 -78 23.5 -145.5t64.5 -118t96.5 -79 t116.5 -28.5t116.5 28.5t96.5 79t64.5 118t23.5 145.5q0 76 -23.5 143.5t-64.5 118.5t-96.5 79.5t-116.5 28.5t-116.5 -28.5t-96.5 -79.5t-64.5 -119t-23.5 -143zM416 1305l219 321h285l-345 -321h-159z" />
<glyph unicode="&#xf4;" horiz-adv-x="1273" d="M82 565q0 113 34 225.5t102.5 203.5t171 147.5t237.5 56.5t240.5 -44t177 -124t109.5 -193.5t38 -250.5q0 -133 -36 -246t-106.5 -197t-176 -131t-244.5 -47q-127 0 -227.5 49t-172 132t-109.5 191.5t-38 227.5zM246 1305l260 321h231l260 -321h-202l-172 213l-172 -213 h-205zM338 582q0 -78 23.5 -145.5t64.5 -118t96.5 -79t116.5 -28.5t116.5 28.5t96.5 79t64.5 118t23.5 145.5q0 76 -23.5 143.5t-64.5 118.5t-96.5 79.5t-116.5 28.5t-116.5 -28.5t-96.5 -79.5t-64.5 -119t-23.5 -143z" />
<glyph unicode="&#xf5;" horiz-adv-x="1273" d="M82 565q0 113 34 225.5t102.5 203.5t171 147.5t237.5 56.5t240.5 -44t177 -124t109.5 -193.5t38 -250.5q0 -133 -36 -246t-106.5 -197t-176 -131t-244.5 -47q-127 0 -227.5 49t-172 132t-109.5 191.5t-38 227.5zM309 1305q10 98 64.5 166.5t146.5 68.5q41 0 75 -13.5 t69 -29.5q33 -16 66.5 -30.5t70.5 -14.5q82 0 104 84h105q-8 -111 -61.5 -171t-147.5 -60q-35 0 -69 14t-68 31q-35 16 -72 30.5t-76 14.5q-41 0 -67.5 -24.5t-36.5 -65.5h-103zM338 582q0 -78 23.5 -145.5t64.5 -118t96.5 -79t116.5 -28.5t116.5 28.5t96.5 79t64.5 118 t23.5 145.5q0 76 -23.5 143.5t-64.5 118.5t-96.5 79.5t-116.5 28.5t-116.5 -28.5t-96.5 -79.5t-64.5 -119t-23.5 -143z" />
<glyph unicode="&#xf6;" horiz-adv-x="1273" d="M82 565q0 113 34 225.5t102.5 203.5t171 147.5t237.5 56.5t240.5 -44t177 -124t109.5 -193.5t38 -250.5q0 -133 -36 -246t-106.5 -197t-176 -131t-244.5 -47q-127 0 -227.5 49t-172 132t-109.5 191.5t-38 227.5zM276 1436q0 55 39 94t95 39q55 0 94 -39t39 -94t-39 -94 t-94 -39t-94.5 38.5t-39.5 94.5zM338 582q0 -78 23.5 -145.5t64.5 -118t96.5 -79t116.5 -28.5t116.5 28.5t96.5 79t64.5 118t23.5 145.5q0 76 -23.5 143.5t-64.5 118.5t-96.5 79.5t-116.5 28.5t-116.5 -28.5t-96.5 -79.5t-64.5 -119t-23.5 -143zM698 1436q0 55 39 94t94 39 t94.5 -39t39.5 -94t-39 -94t-95 -39q-55 0 -94 38.5t-39 94.5z" />
<glyph unicode="&#xf7;" horiz-adv-x="1124" d="M92 444v211h940v-211h-940zM436 135q0 66 47 111t111 45q61 0 107.5 -46.5t46.5 -109.5q0 -29 -12.5 -57.5t-34 -50t-48 -34.5t-57.5 -13q-66 0 -113 46t-47 109zM436 963q0 66 47 110.5t111 44.5q61 0 107.5 -46t46.5 -109q0 -29 -12.5 -57.5t-34 -50t-48 -35 t-57.5 -13.5q-66 0 -113 46t-47 110z" />
<glyph unicode="&#xf8;" horiz-adv-x="1273" d="M82 565q0 113 34 225.5t102.5 203.5t171 147.5t237.5 56.5q31 0 60.5 -3t57.5 -7l41 149l113 -49l-37 -133q160 -63 245 -210.5t85 -358.5q0 -133 -36 -246t-106.5 -197t-176 -131t-244.5 -47q-25 0 -48.5 2t-45.5 6l-41 -147l-113 41l39 139q-80 33 -142.5 90.5 t-106.5 131t-66.5 159.5t-22.5 178zM338 582q0 -104 42 -190.5t109 -133.5l191 690q-10 2 -20.5 3t-20.5 1q-61 0 -116.5 -28.5t-96.5 -79.5t-64.5 -119t-23.5 -143zM598 215q10 -2 20.5 -3t20.5 -1q61 0 116.5 28.5t96.5 79t64.5 118t23.5 145.5q0 104 -42 188t-110 133z " />
<glyph unicode="&#xf9;" horiz-adv-x="1210" d="M123 350v813h260v-745q0 -106 49 -152.5t148 -46.5q43 0 85 19.5t76.5 52.5t56 75t21.5 85v712h258v-1163h-258v92q-57 -59 -140 -93t-159 -34q-188 0 -292.5 105.5t-104.5 279.5zM285 1628h284l222 -323h-162z" />
<glyph unicode="&#xfa;" horiz-adv-x="1210" d="M123 350v813h260v-745q0 -106 49 -152.5t148 -46.5q43 0 85 19.5t76.5 52.5t56 75t21.5 85v712h258v-1163h-258v92q-57 -59 -140 -93t-159 -34q-188 0 -292.5 105.5t-104.5 279.5zM381 1305l219 321h285l-344 -321h-160z" />
<glyph unicode="&#xfb;" horiz-adv-x="1210" d="M123 350v813h260v-745q0 -106 49 -152.5t148 -46.5q43 0 85 19.5t76.5 52.5t56 75t21.5 85v712h258v-1163h-258v92q-57 -59 -140 -93t-159 -34q-188 0 -292.5 105.5t-104.5 279.5zM225 1305l260 321h232l260 -321h-203l-172 213l-172 -213h-205z" />
<glyph unicode="&#xfc;" horiz-adv-x="1210" d="M123 350v813h260v-745q0 -106 49 -152.5t148 -46.5q43 0 85 19.5t76.5 52.5t56 75t21.5 85v712h258v-1163h-258v92q-57 -59 -140 -93t-159 -34q-188 0 -292.5 105.5t-104.5 279.5zM262 1436q0 55 39 94t94 39t94 -39t39 -94t-38.5 -94t-94.5 -39q-55 0 -94 38.5t-39 94.5 zM684 1436q0 55 39 94t94 39t94 -39t39 -94t-39 -94t-94 -39t-94 38.5t-39 94.5z" />
<glyph unicode="&#xfd;" horiz-adv-x="1112" d="M25 1163h274l258 -801l252 801h278l-456 -1380q-16 -53 -47 -88t-58 -47q-47 -23 -113.5 -33t-117.5 -10q-98 0 -193 35q10 53 20.5 106t22.5 107q35 -12 70 -20.5t72 -8.5q57 0 99 29.5t42 89.5q0 2 -17.5 56t-46 140t-65.5 194.5t-74 223.5zM358 1305l222 323h284 l-346 -323h-160z" />
<glyph unicode="&#xfe;" horiz-adv-x="1302" d="M133 -383v1982h252v-518q47 49 127 82t162 33q123 0 223 -48t173 -131t112 -191.5t39 -231.5q0 -150 -42 -266.5t-115 -197.5t-171 -123t-209 -42q-84 0 -159.5 27.5t-139.5 91.5v-467h-252zM393 428q0 -49 22.5 -88t57.5 -66.5t77 -42t81 -14.5q74 0 132 28.5t100 78 t63.5 116t21.5 144.5q0 63 -21.5 126.5t-62.5 113.5t-98 81t-129 31q-35 0 -77 -16.5t-79 -46t-62.5 -71.5t-25.5 -93v-281z" />
<glyph unicode="&#xff;" horiz-adv-x="1112" d="M25 1163h274l258 -801l252 801h278l-456 -1380q-16 -53 -47 -88t-58 -47q-47 -23 -113.5 -33t-117.5 -10q-98 0 -193 35q10 53 20.5 106t22.5 107q35 -12 70 -20.5t72 -8.5q57 0 99 29.5t42 89.5q0 2 -17.5 56t-46 140t-65.5 194.5t-74 223.5zM213 1407q0 55 39 94t94 39 t94 -39t39 -94t-39 -94t-94 -39t-94 39t-39 94zM635 1407q0 55 39 94t94 39t94 -39t39 -94t-39 -94t-94 -39t-94 39t-39 94z" />
<glyph unicode="&#x152;" horiz-adv-x="2109" d="M102 795q0 408 203 605t586 197h1079v-249h-729v-414h662v-248h-662v-442l776 2v-246l-1226 -2q-168 0 -296 61.5t-215 169t-132.5 253t-45.5 313.5zM377 793q0 -102 20.5 -197.5t68.5 -169.5t128 -119t199 -45q84 0 135 24.5t51 110.5l-2 779q0 78 -45 113.5t-139 35.5 q-119 0 -199 -45t-128 -119t-68.5 -170t-20.5 -198z" />
<glyph unicode="&#x153;" horiz-adv-x="1978" d="M82 584q0 131 36 242.5t104.5 194.5t170 130t230.5 47q215 0 383 -166q78 82 170 123t210 41q131 0 229.5 -51t163 -143.5t94 -219t23.5 -276.5h-772q8 -86 40 -142.5t75 -89t94 -46t101 -13.5q61 0 123.5 26.5t107.5 67.5l176 -166q-78 -86 -170 -131t-207 -45 q-139 0 -248.5 42t-201.5 134q-166 -178 -391 -178q-121 0 -221.5 47t-171 130t-109.5 197t-39 245zM350 588q0 -76 20.5 -142.5t56.5 -116.5t84 -79t105 -29t106.5 29t85.5 79t56.5 116.5t20.5 142.5t-20.5 142.5t-56.5 116.5t-85 78.5t-107 28.5q-57 0 -105 -28.5 t-84 -78.5t-56.5 -116.5t-20.5 -142.5zM1128 707h514q-8 51 -28.5 99t-52 85t-76.5 59.5t-103 22.5q-53 0 -97 -22.5t-76.5 -59.5t-53 -85t-27.5 -99z" />
<glyph unicode="&#x178;" horiz-adv-x="1400" d="M51 1597h291l358 -669l359 669h291l-512 -956v-641h-275v641zM362 1831q0 55 39 94t95 39q55 0 94 -39t39 -94t-39 -94t-94 -39t-94.5 39t-39.5 94zM784 1831q0 55 39 94t95 39q55 0 94 -39t39 -94t-39 -94t-94 -39t-94.5 39t-39.5 94z" />
<glyph unicode="&#x2c6;" horiz-adv-x="1421" d="M344 1305l260 321h232l258 -321h-203l-172 213l-172 -213h-203z" />
<glyph unicode="&#x2dc;" horiz-adv-x="1736" d="M489 1305q10 98 64.5 166.5t146.5 68.5q41 0 75 -13.5t69 -29.5q33 -16 66.5 -30.5t70.5 -14.5q82 0 104 84h105q-8 -111 -61.5 -171t-147.5 -60q-35 0 -68.5 14t-68.5 31q-35 16 -72 30.5t-76 14.5q-41 0 -67.5 -24.5t-36.5 -65.5h-103z" />
<glyph unicode="&#x2000;" horiz-adv-x="1085" />
<glyph unicode="&#x2001;" horiz-adv-x="2171" />
<glyph unicode="&#x2002;" horiz-adv-x="1085" />
<glyph unicode="&#x2003;" horiz-adv-x="2171" />
<glyph unicode="&#x2004;" horiz-adv-x="723" />
<glyph unicode="&#x2005;" horiz-adv-x="542" />
<glyph unicode="&#x2006;" horiz-adv-x="361" />
<glyph unicode="&#x2007;" horiz-adv-x="361" />
<glyph unicode="&#x2008;" horiz-adv-x="271" />
<glyph unicode="&#x2009;" horiz-adv-x="434" />
<glyph unicode="&#x200a;" horiz-adv-x="120" />
<glyph unicode="&#x2010;" horiz-adv-x="679" d="M61 557v221h496v-221h-496z" />
<glyph unicode="&#x2011;" horiz-adv-x="679" d="M61 557v221h496v-221h-496z" />
<glyph unicode="&#x2012;" horiz-adv-x="679" d="M61 557v221h496v-221h-496z" />
<glyph unicode="&#x2013;" horiz-adv-x="1165" d="M61 557v223h1045v-223h-1045z" />
<glyph unicode="&#x2014;" horiz-adv-x="1546" d="M61 557v223h1426v-223h-1426z" />
<glyph unicode="&#x2018;" horiz-adv-x="565" d="M150 1300q0 147 73.5 223t194.5 109v-69q-23 -6 -49.5 -21.5t-50 -40t-41 -59.5t-23.5 -82q35 8 47 9t23 1q27 0 51 -12t42.5 -32.5t29 -46t10.5 -52.5q0 -59 -42 -102.5t-102 -43.5q-80 0 -121.5 62.5t-41.5 156.5z" />
<glyph unicode="&#x2019;" horiz-adv-x="565" d="M150 1470q0 59 41.5 102.5t101.5 43.5q80 0 122 -62.5t42 -156.5q0 -147 -74 -223t-195 -107v68q23 6 49.5 21t50 40t41 59.5t23.5 81.5q-35 -8 -47 -9t-22 -1q-27 0 -51.5 12.5t-43 33t-28.5 46t-10 51.5z" />
<glyph unicode="&#x201a;" horiz-adv-x="595" d="M143 164q0 66 45 112t111 46q88 0 131 -68t43 -160q0 -78 -21.5 -136t-60.5 -98t-92 -65.5t-117 -40.5v107q18 2 43 14t46.5 30.5t39 45t21.5 61.5q-12 -4 -22.5 -4h-20.5q-31 0 -56.5 13.5t-46 36t-32 50t-11.5 56.5z" />
<glyph unicode="&#x201c;" horiz-adv-x="1064" d="M164 1290q0 78 21.5 135.5t59.5 99.5t91 67.5t117 41.5v-90q-23 -4 -48.5 -17.5t-49 -36t-41 -54t-23.5 -72.5q25 4 36 5t21 1q59 0 101.5 -48t42.5 -105q0 -66 -44.5 -111t-109.5 -45q-86 0 -130 66.5t-44 162.5zM635 1290q0 78 21.5 135.5t59.5 99.5t91 67.5t117 41.5 v-90q-23 -4 -48.5 -17.5t-49 -36t-41 -54t-23.5 -72.5q25 4 36 5t21 1q59 0 101.5 -48t42.5 -105q0 -66 -44.5 -111t-109.5 -45q-86 0 -130 66.5t-44 162.5z" />
<glyph unicode="&#x201d;" horiz-adv-x="1064" d="M143 1470q0 66 44 111t110 45q86 0 130 -66.5t44 -162.5q0 -78 -21.5 -135.5t-59.5 -99.5t-91 -68.5t-117 -40.5v90q23 4 48.5 17.5t49 37t41 55t23.5 72.5q-25 -6 -36 -7t-21 -1q-59 0 -101.5 48t-42.5 105zM614 1470q0 66 44 111t110 45q86 0 130 -66.5t44 -162.5 q0 -78 -21.5 -135.5t-59.5 -99.5t-91 -68.5t-117 -40.5v90q23 4 48.5 17.5t49 37t41 55t23.5 72.5q-25 -6 -36 -7t-21 -1q-59 0 -101.5 48t-42.5 105z" />
<glyph unicode="&#x201e;" horiz-adv-x="1042" d="M143 164q0 66 45 112t111 46q88 0 131 -68t43 -160q0 -78 -21.5 -136t-60.5 -98t-92 -65.5t-117 -40.5v107q18 2 43 14t46.5 30.5t39 45t21.5 61.5q-12 -4 -22.5 -4h-20.5q-31 0 -56.5 13.5t-46 36t-32 50t-11.5 56.5zM610 164q0 66 45 112t111 46q88 0 131 -68t43 -160 q0 -78 -21.5 -136t-60.5 -98t-92 -65.5t-117 -40.5v107q18 2 43 14t46.5 30.5t39 45t21.5 61.5q-12 -4 -22.5 -4h-20.5q-31 0 -56.5 13.5t-46 36t-32 50t-11.5 56.5z" />
<glyph unicode="&#x2022;" horiz-adv-x="743" d="M102 733q0 55 21.5 104.5t57.5 86.5t85 57t105 20q55 0 104 -20t86 -57t58.5 -86.5t21.5 -104.5t-21.5 -104t-58.5 -86t-86 -57.5t-104 -20.5t-104.5 20.5t-85.5 57.5t-57.5 86t-21.5 104z" />
<glyph unicode="&#x2026;" horiz-adv-x="1466" d="M123 127q0 61 43 104t104 43t104.5 -43t43.5 -104t-43 -104t-105 -43q-61 0 -104 43t-43 104zM594 127q0 61 43 104t104 43t104.5 -43t43.5 -104t-43 -104t-105 -43q-61 0 -104 43t-43 104zM1065 127q0 61 43 104t104 43t104.5 -43t43.5 -104t-43 -104t-105 -43 q-61 0 -104 43t-43 104z" />
<glyph unicode="&#x202f;" horiz-adv-x="434" />
<glyph unicode="&#x2039;" horiz-adv-x="2699" d="M41 788l651 656h658l-432 -434h1740v-437h-1740l434 -436h-660z" />
<glyph unicode="&#x203a;" horiz-adv-x="2699" d="M41 573v437h1741l-432 434h657l651 -656l-651 -651h-661l436 436h-1741z" />
<glyph unicode="&#x205f;" horiz-adv-x="542" />
<glyph unicode="&#x20ac;" horiz-adv-x="1742" d="M51 567l21 146h141q-2 18 -2 37.5v37.5v64h-121l21 145h118q25 135 81.5 251t145.5 201t208.5 134t271.5 49q123 0 228.5 -32.5t189.5 -93t144 -148t91 -193.5l-246 -88q-18 59 -52 115.5t-83 99.5t-112.5 70t-141.5 27q-100 0 -176 -30t-130 -83t-88 -125t-50 -154h451 l-21 -145h-448v-57v-41t2 -41h428l-21 -146h-385q18 -74 52 -139.5t85.5 -114.5t122 -76.5t162.5 -27.5q145 0 248.5 76.5t148.5 216.5l250 -84q-80 -223 -239.5 -339t-411.5 -116q-145 0 -263 47t-206 128t-146.5 191.5t-85.5 237.5h-182z" />
<glyph unicode="&#x2122;" horiz-adv-x="1642" d="M61 1460v137h590v-137h-225v-661h-139v661h-226zM760 799v798h190l197 -297l199 297h194v-798h-141v618l-252 -377l-250 379v-620h-137z" />
<glyph unicode="&#xe000;" horiz-adv-x="1167" d="M0 0v1167h1167v-1167h-1167z" />
<glyph unicode="&#xfb01;" horiz-adv-x="1200" d="M133 805l371 772h192l371 -772h-193l-274 600l-276 -600h-191z" />
</font>
</defs>
</svg>
