<?xml version="1.0" standalone="no"?>
<!DOCTYPE svg PUBLIC "-//W3C//DTD SVG 20010904//EN"
 "http://www.w3.org/TR/2001/REC-SVG-20010904/DTD/svg10.dtd">
<svg version="1.0" xmlns="http://www.w3.org/2000/svg"
 width="410.000000pt" height="410.000000pt" viewBox="0 0 410.000000 410.000000"
 preserveAspectRatio="xMidYMid meet">
<metadata>
Created by potrace 1.11, written by Peter Selinger 2001-2013
</metadata>
<g transform="translate(0.000000,410.000000) scale(0.100000,-0.100000)"
fill="#000000" stroke="none">
<path d="M1970 3393 c0 -5 7 -17 15 -27 23 -30 18 -40 -10 -22 -34 22 -35 21
-35 -24 0 -45 1 -46 35 -24 28 19 32 9 9 -24 -15 -22 -15 -22 31 -22 46 0 46
0 31 22 -23 33 -19 43 9 24 l25 -16 0 40 0 40 -25 -16 c-22 -15 -25 -15 -25
-1 0 9 5 19 10 22 6 3 10 13 10 21 0 10 -12 14 -40 14 -22 0 -40 -3 -40 -7z"/>
<path d="M2680 3323 c0 -4 63 -87 139 -183 l139 -174 -30 -13 c-16 -7 -42 -25
-57 -40 -16 -16 -53 -45 -84 -66 -53 -35 -56 -39 -50 -70 3 -17 7 -33 8 -35 2
-2 21 6 44 17 49 26 80 28 61 6 -7 -8 -18 -15 -24 -15 -6 0 -19 -7 -29 -14
-18 -14 -18 -15 -1 -35 14 -16 21 -18 33 -8 12 10 13 7 8 -22 -7 -33 -7 -33
16 -19 12 8 27 30 34 49 10 28 12 30 12 10 1 -20 3 -21 16 -11 8 7 15 20 15
30 0 29 24 42 46 25 45 -34 126 0 137 58 3 13 5 7 6 -14 1 -48 -15 -66 -117
-128 -74 -45 -85 -49 -108 -39 -20 10 -27 9 -35 -3 -5 -8 -9 -18 -9 -24 0 -5
4 -4 9 4 5 7 14 10 20 6 9 -5 9 -10 0 -21 -8 -10 -8 -14 0 -14 6 0 11 -4 11
-9 0 -16 -40 -8 -41 9 0 8 -5 4 -10 -9 -5 -13 -8 -29 -5 -35 2 -6 5 -2 5 8 1
17 4 16 26 -8 13 -14 33 -26 45 -26 24 0 26 15 4 28 -22 12 -8 35 17 27 13 -4
19 -2 19 8 0 8 6 20 14 26 20 17 30 -3 15 -30 -9 -18 -8 -24 5 -31 21 -12 12
-28 -13 -21 -28 7 -35 -13 -11 -37 24 -24 43 -26 60 -5 10 12 10 15 -3 15 -10
0 -14 6 -11 14 3 8 12 12 19 10 7 -3 15 1 17 10 2 11 7 13 17 6 12 -7 12 -11
2 -23 -9 -12 -9 -16 0 -19 8 -3 9 -9 5 -17 -7 -11 -10 -11 -17 0 -6 10 -10 9
-15 -5 -5 -14 -1 -25 15 -38 13 -10 27 -18 32 -18 15 0 24 33 11 38 -22 7 -12
24 11 18 16 -4 26 1 35 14 7 11 17 20 22 20 15 0 12 -27 -5 -43 -13 -13 -13
-16 0 -21 26 -9 17 -27 -10 -20 -18 4 -25 2 -25 -8 0 -21 21 -38 48 -38 21 0
22 -2 12 -15 -7 -8 -15 -15 -19 -15 -4 0 -80 40 -171 89 l-163 90 -32 -64
c-18 -35 -35 -73 -38 -85 -5 -19 -8 -20 -26 -8 -13 8 -21 23 -21 39 0 37 -34
65 -63 52 -19 -9 -29 -5 -62 23 -48 40 -83 43 -122 10 -28 -24 -28 -24 -9 -45
13 -15 23 -18 30 -11 5 5 15 10 22 10 11 0 124 -132 124 -144 0 -4 -24 -6 -53
-6 -47 0 -56 -3 -74 -28 l-21 -29 53 -104 52 -104 72 -38 c65 -35 71 -36 71
-18 0 11 7 21 15 23 13 2 11 10 -10 41 -27 39 -59 48 -84 25 -10 -11 -12 -9
-11 7 4 34 0 45 -14 45 -15 0 -66 72 -66 95 0 16 34 19 80 6 21 -6 22 -8 8
-14 -24 -9 -23 -52 2 -77 29 -29 74 -26 99 8 15 20 20 23 21 10 0 -31 63 -85
128 -108 42 -15 73 -35 94 -59 l32 -36 -66 -7 c-123 -12 -178 -58 -178 -150 0
-38 6 -53 35 -88 39 -47 43 -69 18 -93 -21 -18 -101 -42 -196 -58 -54 -9 -78
-19 -117 -50 -52 -41 -80 -79 -59 -79 7 0 21 8 32 17 19 17 19 17 12 -6 -7
-23 -6 -23 31 -16 63 11 77 23 70 56 -4 21 -2 29 8 29 8 0 16 -7 20 -15 3 -8
13 -15 23 -15 29 0 293 112 293 124 0 6 -7 20 -15 30 -39 52 1 136 65 136 25
0 30 -4 30 -24 0 -41 19 -79 63 -124 53 -54 100 -84 146 -92 l36 -5 8 -75 c12
-104 4 -132 -53 -195 -61 -67 -88 -115 -65 -115 8 0 24 17 35 38 17 31 20 32
16 10 -3 -14 -9 -33 -12 -42 -9 -23 33 -21 74 4 31 19 43 52 22 65 -5 3 -10
13 -10 22 0 12 7 14 34 9 38 -7 46 3 46 59 0 33 1 34 33 28 43 -7 80 22 80 62
0 52 -51 70 -97 34 l-26 -20 0 85 c0 86 -9 108 -35 86 -11 -9 -19 -7 -39 13
-39 39 -41 68 -12 149 14 40 27 82 28 93 3 15 9 10 31 -27 15 -26 27 -54 27
-63 0 -25 28 -73 49 -85 22 -11 74 -14 84 -3 4 3 -7 14 -23 24 -36 22 -41 45
-7 34 56 -17 64 -16 95 10 36 30 43 52 11 35 -28 -16 -34 -6 -15 22 23 32 21
119 -3 166 -11 20 -56 73 -101 117 -45 44 -90 97 -101 117 -46 89 -4 187 80
188 28 0 32 -3 25 -17 -4 -10 -9 -34 -11 -53 -7 -60 23 -93 134 -146 54 -25
101 -51 105 -58 12 -18 10 22 -2 45 -6 10 -24 26 -40 34 -37 19 -100 74 -100
87 0 5 14 -2 31 -16 17 -14 39 -26 50 -26 23 0 24 9 4 24 -9 6 -22 35 -30 65
-8 30 -20 61 -28 68 -16 16 -72 33 -133 40 -85 10 -144 -50 -144 -146 0 -77
27 -124 120 -215 90 -86 120 -136 120 -196 0 -45 -23 -75 -66 -86 -44 -11 -59
5 -160 160 -48 75 -51 81 -30 73 7 -3 23 1 35 10 31 21 25 69 -11 96 -23 18
-31 19 -54 8 -14 -6 -28 -20 -31 -32 -5 -18 -8 -16 -30 13 -39 52 -63 105 -63
138 0 24 15 46 75 108 63 65 72 79 60 88 -11 8 -13 18 -7 35 l9 23 12 -22 c6
-12 18 -22 26 -22 12 0 15 16 15 75 0 72 1 75 19 65 27 -14 44 -13 34 3 -4 6
-11 46 -14 87 -3 41 -9 82 -13 92 -5 11 -2 18 12 22 19 6 18 9 -9 39 -16 18
-39 44 -52 58 -12 14 -29 28 -37 32 -13 5 -13 7 0 16 8 5 12 12 10 14 -17 16
-93 47 -114 47 -18 0 -33 11 -50 36 -13 20 -33 42 -45 50 -20 14 -21 14 -21
-15 0 -16 -4 -32 -8 -35 -5 -3 -71 58 -148 135 -136 137 -194 189 -194 172z"/>
<path d="M975 3260 c-3 -5 -3 -14 0 -20 3 -5 1 -10 -4 -10 -6 0 -11 -7 -11
-16 0 -10 6 -14 14 -11 9 4 16 -4 20 -24 6 -31 26 -38 45 -15 10 11 7 19 -10
35 -19 17 -20 21 -6 21 11 0 14 5 10 16 -3 8 -12 13 -19 10 -8 -3 -14 1 -14 9
0 17 -16 20 -25 5z"/>
<path d="M1092 3243 c2 -10 10 -18 18 -18 8 0 16 8 18 18 2 12 -3 17 -18 17
-15 0 -20 -5 -18 -17z"/>
<path d="M1146 3253 c-13 -14 -5 -33 14 -33 11 0 20 6 20 14 0 15 -24 28 -34
19z"/>
<path d="M1950 3218 c-30 -33 -26 -50 13 -46 28 3 32 7 35 36 4 39 -17 43 -48
10z"/>
<path d="M2030 3205 c0 -32 2 -35 30 -35 36 0 40 20 10 50 -29 29 -40 25 -40
-15z"/>
<path d="M1050 3210 c0 -23 25 -27 33 -6 7 16 -1 26 -20 26 -7 0 -13 -9 -13
-20z"/>
<path d="M1183 3213 c-18 -6 -16 -30 2 -37 9 -3 18 1 22 10 7 18 -7 33 -24 27z"/>
<path d="M894 3169 c-10 -17 13 -36 27 -22 12 12 4 33 -11 33 -5 0 -12 -5 -16
-11z"/>
<path d="M944 3169 c-7 -12 15 -31 28 -23 4 3 8 12 8 20 0 17 -26 19 -36 3z"/>
<path d="M1112 3153 c2 -18 0 -35 -6 -37 -6 -3 -3 -10 7 -16 14 -9 16 -15 6
-26 -13 -16 -49 -19 -49 -4 0 6 5 10 10 10 6 0 10 10 10 21 0 19 -2 20 -17 8
-15 -12 -16 -12 -10 5 6 14 4 17 -9 12 -8 -3 -20 -6 -26 -6 -6 0 -8 -6 -5 -14
3 -8 1 -16 -4 -18 -6 -2 -7 -11 -3 -21 5 -14 9 -15 20 -6 11 9 14 8 14 -5 0
-20 -23 -31 -47 -22 -15 6 -15 8 -3 16 13 9 7 14 -12 11 -4 0 -10 8 -13 19 -4
11 -13 20 -21 20 -16 0 -19 -26 -4 -35 5 -3 7 -12 4 -20 -6 -15 -25 -16 -35
-1 -4 5 -12 5 -18 1 -8 -4 1 -20 27 -45 l38 -39 69 35 c37 19 91 41 120 49
l51 15 0 50 c0 30 -5 51 -12 54 -16 6 -28 -27 -19 -54 5 -16 2 -20 -14 -20
-23 0 -28 15 -8 24 10 5 10 7 0 12 -7 3 -13 11 -13 19 0 7 -7 19 -16 26 -15
13 -17 11 -12 -18z"/>
<path d="M1714 3135 c-8 -19 3 -35 26 -35 19 0 30 17 23 38 -6 17 -42 15 -49
-3z"/>
<path d="M1791 3140 c-19 -11 -9 -45 14 -45 13 0 21 8 23 21 3 23 -17 37 -37
24z"/>
<path d="M1937 3144 c-3 -4 -2 -15 3 -24 7 -14 5 -19 -10 -23 -20 -5 -28 -41
-11 -51 16 -10 41 5 41 24 0 15 6 17 40 13 26 -4 46 -1 56 8 15 12 16 11 10
-7 -9 -29 18 -52 39 -34 21 18 19 41 -5 47 -15 4 -18 11 -14 29 6 24 5 24 -68
24 -41 0 -78 -3 -81 -6z"/>
<path d="M2200 3135 c-15 -18 -6 -45 13 -45 8 0 20 7 27 15 10 12 10 18 0 30
-16 19 -24 19 -40 0z"/>
<path d="M2264 3135 c-4 -9 -2 -21 4 -27 16 -16 47 -5 47 17 0 26 -42 34 -51
10z"/>
<path d="M864 3129 c-10 -17 13 -36 27 -22 12 12 4 33 -11 33 -5 0 -12 -5 -16
-11z"/>
<path d="M1644 3115 c-4 -9 -2 -21 4 -27 16 -16 47 -5 47 17 0 26 -42 34 -51
10z"/>
<path d="M1854 3116 c-9 -24 4 -48 23 -44 12 2 18 12 18 28 0 29 -32 41 -41
16z"/>
<path d="M2134 3116 c-9 -24 4 -48 23 -44 12 2 18 12 18 28 0 29 -32 41 -41
16z"/>
<path d="M2330 3105 c0 -22 4 -26 23 -23 14 2 22 10 22 23 0 13 -8 21 -22 23
-19 3 -23 -1 -23 -23z"/>
<path d="M874 3079 c-10 -17 13 -36 27 -22 12 12 4 33 -11 33 -5 0 -12 -5 -16
-11z"/>
<path d="M1600 3074 c-11 -12 -10 -18 3 -32 16 -15 18 -15 34 0 13 14 14 20 3
32 -7 9 -16 16 -20 16 -4 0 -13 -7 -20 -16z"/>
<path d="M2392 3081 c-20 -12 -10 -46 13 -46 14 0 20 7 20 24 0 27 -13 35 -33
22z"/>
<path d="M1217 3057 c-3 -8 -35 -22 -71 -31 -36 -10 -91 -33 -121 -52 -31 -18
-62 -31 -70 -28 -8 3 -20 -4 -27 -16 -7 -12 -28 -28 -45 -35 -41 -17 -42 -36
-4 -67 26 -23 27 -27 15 -49 -7 -13 -13 -41 -14 -62 0 -21 -5 -47 -11 -59 -13
-24 -8 -31 16 -22 10 4 28 30 41 58 12 28 23 44 23 35 1 -9 -8 -38 -20 -64
-18 -41 -20 -58 -14 -121 10 -105 30 -97 55 21 16 71 35 110 25 50 -10 -65
-23 -200 -19 -204 7 -8 35 23 64 73 16 28 30 47 30 42 0 -16 -82 -240 -108
-291 -31 -64 -166 -277 -210 -333 -56 -71 -109 -88 -156 -51 -20 16 -26 29
-26 60 0 60 32 111 141 226 106 111 149 180 149 238 0 83 -64 136 -140 115
-22 -6 -42 -15 -45 -20 -3 -5 -21 -6 -40 -3 -42 7 -72 -22 -99 -96 -10 -28
-29 -60 -43 -71 l-26 -20 26 0 c14 0 40 12 58 27 18 15 30 21 27 13 -2 -8 -24
-30 -49 -47 -85 -63 -109 -89 -109 -119 l0 -28 16 22 c9 13 62 45 118 72 55
27 114 62 129 78 32 33 47 103 28 125 -15 19 -4 27 39 27 41 0 55 -11 65 -52
11 -45 -26 -108 -138 -231 -130 -145 -152 -185 -144 -273 5 -65 -4 -79 -31
-52 -9 9 -12 9 -12 0 0 -29 40 -52 92 -52 50 0 51 0 33 -20 -10 -11 -26 -20
-37 -20 -28 0 -21 -18 9 -24 56 -12 153 41 153 83 0 9 12 27 27 41 14 14 42
49 60 78 19 30 37 52 39 49 2 -2 -14 -42 -36 -88 -22 -47 -46 -118 -54 -161
-24 -125 -50 -161 -119 -162 -38 -1 -42 -3 -40 -24 2 -13 -6 -41 -17 -62 -20
-38 -26 -103 -14 -147 8 -30 17 -29 34 2 21 39 28 29 17 -24 -5 -28 -6 -62 -3
-77 7 -25 8 -26 27 -8 28 25 42 7 27 -34 -11 -27 -10 -34 4 -48 15 -16 18 -16
33 0 19 18 37 20 82 7 26 -8 37 -6 57 10 29 23 46 24 46 4 0 -13 4 -14 20 -5
14 8 20 21 20 45 0 39 21 48 39 17 9 -15 12 -15 21 -2 19 30 10 49 -32 70 -53
25 -72 25 -107 -1 -24 -18 -31 -19 -55 -8 -52 24 -94 156 -67 208 7 12 46 38
87 57 88 42 174 118 204 179 13 27 24 73 27 119 5 67 8 74 23 66 21 -11 50
-79 50 -117 0 -18 -13 -38 -40 -63 -40 -37 -40 -37 -20 -55 11 -10 20 -26 20
-35 0 -20 56 -110 69 -110 5 0 11 15 13 33 l4 32 12 -43 c7 -24 22 -52 33 -63
23 -23 54 -26 46 -4 -12 29 16 26 44 -5 24 -26 35 -31 57 -27 65 13 67 13 66
-10 0 -13 3 -23 7 -23 15 0 41 49 35 65 -7 20 27 20 44 0 7 -8 16 -12 21 -9
18 11 8 41 -25 72 -25 24 -44 32 -70 32 -19 0 -38 -5 -41 -10 -19 -30 -102 8
-163 74 -56 61 -54 80 13 139 48 42 55 53 55 85 0 54 -31 96 -104 144 -36 24
-66 46 -66 50 0 14 74 30 114 25 38 -5 44 -3 59 21 l16 27 1 -36 c0 -47 9 -54
37 -27 l23 21 0 -36 c0 -37 13 -49 24 -22 7 19 22 19 30 0 3 -9 -6 -25 -22
-40 -23 -22 -25 -28 -14 -45 16 -26 15 -40 -3 -40 -22 0 -18 -17 6 -30 16 -9
26 -8 46 5 26 17 26 17 21 -9 -8 -39 30 -36 45 4 13 34 30 35 35 2 4 -25 15
-28 31 -8 15 18 5 80 -20 122 -11 17 -19 43 -19 57 0 18 -20 49 -62 98 -35 39
-80 91 -102 115 -43 50 -27 62 19 14 35 -37 43 -37 56 -3 10 27 51 91 97 151
l26 35 -31 -7 c-28 -6 -31 -4 -36 21 -3 15 -9 42 -12 58 -3 17 -8 40 -11 52
-2 12 -16 36 -30 53 l-27 31 27 -7 c29 -7 66 3 50 14 -5 4 -24 26 -42 48 l-32
42 30 5 30 6 -74 70 -74 70 31 3 c31 3 52 28 23 28 -8 0 -27 5 -41 12 -21 9
-25 18 -25 55 0 49 -16 62 -55 45 -15 -7 -26 -8 -30 -2 -9 15 -42 12 -48 -3z"/>
<path d="M1970 2991 c0 -48 3 -61 15 -61 13 0 15 11 13 57 -4 81 -28 85 -28 4z"/>
<path d="M2037 3043 c-4 -3 -7 -30 -7 -60 0 -40 4 -53 15 -53 12 0 15 13 15
60 0 55 -6 70 -23 53z"/>
<path d="M1570 3014 c-11 -12 -10 -18 3 -32 16 -15 18 -15 34 0 13 14 14 20 3
32 -7 9 -16 16 -20 16 -4 0 -13 -7 -20 -16z"/>
<path d="M2414 3016 c-9 -24 4 -48 23 -44 12 2 18 12 18 28 0 29 -32 41 -41
16z"/>
<path d="M1556 2944 c-4 -10 -2 -22 3 -27 15 -15 46 -3 46 18 0 26 -40 33 -49
9z"/>
<path d="M2427 2954 c-12 -12 -8 -42 6 -47 21 -8 39 8 35 29 -3 19 -29 30 -41
18z"/>
<path d="M1801 2933 c-16 -31 -14 -57 9 -86 24 -30 12 -45 -13 -16 -20 23 -30
24 -47 4 -10 -12 -10 -21 -1 -42 11 -24 13 -25 25 -8 14 19 36 13 36 -10 0
-15 -49 -45 -74 -45 -22 0 -66 22 -66 33 0 5 11 6 25 3 29 -7 28 -9 14 34
l-12 33 -19 -24 -20 -24 5 42 c5 39 3 42 -13 33 -26 -14 -28 -13 -32 13 -2 14
-10 22 -23 22 -30 0 -30 -33 0 -61 24 -22 90 -148 96 -184 1 -8 -3 -28 -10
-44 -10 -24 -8 -34 9 -63 l20 -35 -27 -21 c-39 -30 -90 -85 -123 -132 -32 -46
-70 -120 -70 -135 0 -5 15 -27 34 -47 39 -44 56 -75 56 -100 0 -10 9 -35 20
-56 11 -20 20 -44 20 -52 0 -13 28 -15 190 -15 l190 0 0 -205 c0 -172 -2 -205
-14 -205 -31 0 -25 -20 11 -35 72 -31 87 -30 100 4 l11 31 -39 0 -39 0 0 205
0 205 180 0 c205 0 190 9 165 -99 -28 -119 -104 -228 -205 -294 -37 -24 -68
-74 -54 -87 5 -5 48 -17 97 -26 l87 -17 36 26 c116 82 201 247 228 444 13 91
13 99 -4 118 -9 11 -41 66 -70 123 -55 108 -56 112 -18 164 10 13 5 25 -30 71
-32 42 -105 112 -140 133 -2 1 6 12 17 23 23 23 27 61 10 89 -17 28 43 164 94
214 38 36 39 40 24 56 -16 15 -18 15 -34 0 -13 -14 -14 -20 -3 -32 16 -20 3
-20 -30 -1 -34 20 -43 18 -30 -4 5 -11 10 -30 10 -43 l-1 -23 -20 24 c-11 13
-21 22 -22 20 -1 -2 -7 -18 -14 -36 l-11 -32 32 5 31 5 -24 -20 c-26 -23 -47
-26 -86 -11 -30 11 -42 37 -26 53 10 9 15 8 23 -7 8 -15 12 -16 19 -5 25 39
-4 86 -36 59 -20 -16 -19 -5 1 25 14 21 14 30 4 55 -16 38 -25 38 -45 1 -11
-23 -12 -36 -5 -57 12 -32 8 -41 -10 -19 -7 8 -16 15 -21 15 -15 0 -30 -40
-24 -61 5 -16 9 -18 21 -8 22 18 42 -4 24 -26 -27 -33 -140 -9 -140 31 0 18 5
18 35 -2 l25 -16 0 52 c0 51 -1 52 -18 37 -19 -17 -42 -23 -42 -10 0 4 10 17
22 30 l21 23 -67 0 -67 0 21 -22 c22 -24 27 -43 8 -35 -7 3 -20 8 -28 11 -12
5 -15 -3 -15 -39 0 -50 1 -52 26 -29 29 26 43 12 19 -19 -17 -21 -30 -27 -60
-27 -21 0 -45 3 -54 6 -20 8 -21 44 -1 44 8 0 15 -4 15 -10 0 -5 5 -10 10 -10
6 0 10 13 10 29 0 30 -22 57 -39 46 -7 -4 -9 4 -5 22 4 20 0 36 -14 53 l-19
24 -12 -21z"/>
<path d="M2694 2545 c-10 -16 -14 -34 -10 -50 13 -50 106 -23 106 31 0 48 -68
62 -96 19z"/>
<path d="M2070 1917 c0 -7 12 -20 28 -29 17 -11 21 -18 12 -19 -31 -3 -35 -4
-40 -14 -7 -13 58 -19 73 -7 7 5 27 13 45 17 25 5 32 3 32 -9 0 -20 20 -20 46
-1 25 19 45 19 38 0 -4 -9 0 -15 10 -15 9 0 16 6 16 13 0 22 -23 37 -59 38
-24 1 -28 3 -13 6 12 2 22 8 22 13 0 5 8 11 18 13 9 3 -12 5 -48 4 -46 -2 -64
-6 -62 -14 3 -18 -25 -16 -32 2 -3 8 -12 15 -21 15 -8 0 -15 -7 -15 -15 0 -8
-5 -15 -10 -15 -6 0 -13 7 -16 15 -7 18 -24 20 -24 2z"/>
<path d="M1875 1909 c-16 -6 -63 -7 -102 -4 -62 5 -73 3 -73 -10 0 -8 4 -15 9
-15 4 0 11 -20 14 -45 7 -65 53 -134 113 -170 32 -19 48 -36 46 -46 -5 -29 31
-33 51 -7 14 19 19 47 22 127 2 57 8 108 14 114 14 14 -24 67 -47 66 -9 0 -30
-5 -47 -10z"/>
<path d="M2290 1906 c0 -2 7 -6 15 -10 8 -3 15 -1 15 4 0 6 -7 10 -15 10 -8 0
-15 -2 -15 -4z"/>
<path d="M1607 1844 c-29 -25 -57 -32 -57 -14 0 7 -6 7 -19 0 -11 -5 -31 -10
-46 -10 -23 0 -25 -3 -19 -27 23 -97 89 -221 152 -285 20 -21 41 -52 46 -70 6
-17 23 -40 38 -51 23 -17 32 -19 52 -9 21 9 34 8 70 -9 71 -31 194 -59 260
-59 66 0 135 27 190 73 l29 24 -54 6 c-74 9 -149 29 -268 74 -78 28 -101 41
-101 55 0 29 -45 68 -79 68 -48 0 -115 93 -150 207 l-16 52 -28 -25z"/>
<path d="M2119 1808 c-8 -14 -14 -18 -17 -10 -5 16 -33 16 -29 0 1 -7 11 -19
22 -26 19 -12 18 -12 -7 -10 -15 2 -28 -1 -30 -7 -5 -17 59 -17 91 -1 37 20
45 20 37 1 -4 -11 1 -15 19 -15 14 0 25 5 25 10 0 6 7 10 15 10 8 0 15 -4 15
-10 0 -11 29 -14 31 -2 11 63 4 72 -59 72 -29 0 -44 -5 -48 -15 -4 -8 -13 -15
-21 -15 -8 0 -12 4 -9 9 3 5 -1 14 -8 21 -12 9 -17 7 -27 -12z"/>
<path d="M2180 1700 c-11 -7 -4 -10 25 -10 29 0 36 3 25 10 -8 5 -19 10 -25
10 -5 0 -17 -5 -25 -10z"/>
<path d="M2060 1681 c0 -11 5 -23 10 -26 6 -3 10 -11 10 -17 0 -7 -4 -7 -13 1
-14 11 -27 5 -27 -12 0 -5 18 -7 40 -5 26 2 41 -1 44 -9 8 -19 36 -4 36 18 0
12 7 19 18 18 10 0 12 -3 5 -6 -7 -2 -13 -11 -13 -20 0 -8 6 -13 13 -10 6 2
12 15 12 28 0 17 7 26 25 31 15 4 4 6 -27 3 -38 -3 -53 0 -57 11 -7 19 -36 18
-36 -1 0 -8 -4 -15 -10 -15 -5 0 -10 7 -10 15 0 8 -4 15 -10 15 -5 0 -10 -9
-10 -19z"/>
<path d="M3065 1536 c-30 -30 -32 -69 -4 -97 25 -25 46 -22 72 13 24 33 16 71
-20 95 -20 14 -24 13 -48 -11z"/>
<path d="M3495 1535 c-47 -46 -24 -125 42 -141 34 -9 74 13 91 50 40 82 -68
156 -133 91z"/>
<path d="M3170 1407 c-53 -27 -27 -97 36 -97 38 0 64 22 64 54 0 42 -56 66
-100 43z"/>
<path d="M1425 1367 c-63 -21 -119 -53 -267 -149 -184 -119 -255 -151 -338
-154 -64 -3 -89 -17 -52 -28 10 -4 43 -25 73 -47 85 -64 125 -81 169 -74 57
10 145 55 266 135 100 68 176 108 234 125 24 7 23 6 -9 -30 -29 -34 -32 -43
-28 -84 2 -25 22 -95 43 -156 37 -104 42 -112 85 -141 79 -53 180 -69 424 -69
163 1 225 5 278 18 131 33 180 72 203 163 9 32 27 79 40 106 35 69 32 109 -12
158 -20 22 -31 40 -25 40 33 0 126 -48 248 -128 220 -145 289 -165 369 -109
21 15 65 44 96 65 31 20 57 42 58 47 0 6 -27 10 -62 10 -53 0 -76 7 -148 41
-47 23 -141 78 -210 123 -137 90 -225 136 -282 146 -57 11 -130 -11 -165 -48
-42 -45 -113 -180 -113 -215 0 -33 35 -70 98 -101 23 -12 40 -26 37 -31 -9
-14 -98 -39 -205 -56 -105 -18 -386 -14 -470 5 -95 23 -160 45 -160 55 0 6 20
22 46 35 46 25 94 73 94 94 0 7 -11 32 -25 57 -14 25 -38 70 -55 101 -18 35
-42 65 -64 78 -43 27 -119 35 -171 18z"/>
<path d="M1940 1241 c0 -58 -1 -61 -24 -61 -42 0 -60 -41 -40 -89 12 -28 17
-31 29 -21 12 10 17 5 31 -29 9 -23 20 -41 24 -41 4 0 11 -11 14 -24 11 -45
76 -42 76 4 0 10 6 20 14 23 8 3 19 22 26 41 11 35 30 49 30 24 0 -23 29 16
36 48 7 35 -15 64 -47 64 -16 0 -19 7 -19 49 l0 49 -42 7 c-24 3 -58 9 -75 12
l-33 5 0 -61z"/>
</g>
</svg>
